<svg xmlns="http://www.w3.org/2000/svg" width="948.625" height="474.527" viewBox="0 0 948.625 474.527">
  <g id="Grupo_1790" data-name="Grupo 1790" transform="translate(-163.375 -6273.026)">
    <path id="Caminho_1394" data-name="Caminho 1394" d="M0,0H103a40,40,0,0,1,40,40V340a40,40,0,0,1-40,40H0Z" transform="translate(898 6704) rotate(180)" fill="#c2cadd"/>
    <path id="Caminho_1407" data-name="Caminho 1407" d="M0,0H103a40,40,0,0,1,40,40V340a40,40,0,0,1-40,40H0Z" transform="translate(969 6324)" fill="#0e295b"/>
    <path id="Caminho_1390" data-name="Caminho 1390" d="M0,0H103a40,40,0,0,1,40,40V340a40,40,0,0,1-40,40H0Z" transform="translate(450 6704) rotate(180)" fill="#c2cadd"/>
    <path id="Caminho_1393" data-name="Caminho 1393" d="M0,0H103a40,40,0,0,1,40,40V340a40,40,0,0,1-40,40H0Z" transform="translate(521 6324)" fill="#0e295b"/>
    <path id="Caminho_1389" data-name="Caminho 1389" d="M1.45,19V2.125H6.825a8.175,8.175,0,0,1,5.113,1.438A4.7,4.7,0,0,1,13.8,7.5a4.776,4.776,0,0,1-.85,2.812,5.749,5.749,0,0,1-2.375,1.913q1.075,1.4,2.125,3.05T14.9,19H10.55q-.775-1.575-1.65-3.087T7,12.975H5.25V19Zm3.8-9.025H6.875A3.436,3.436,0,0,0,9.1,9.325a2.192,2.192,0,0,0,.8-1.8,2.073,2.073,0,0,0-.788-1.738A3.529,3.529,0,0,0,6.9,5.175H5.25Zm16.875,9.35a6.7,6.7,0,0,1-5-1.825,6.88,6.88,0,0,1-1.8-5.05A7.794,7.794,0,0,1,16.1,8.875a5.856,5.856,0,0,1,2.175-2.387,6.069,6.069,0,0,1,3.25-.863A5.18,5.18,0,0,1,25.65,7.35a7,7,0,0,1,1.5,4.75v1.625H19q.6,2.65,3.65,2.65a7.473,7.473,0,0,0,1.95-.263,6.229,6.229,0,0,0,1.725-.737V18.3a5.951,5.951,0,0,1-1.838.75A9.817,9.817,0,0,1,22.125,19.325ZM18.95,11.2h4.7A3.28,3.28,0,0,0,23,9.162a2.042,2.042,0,0,0-1.65-.712Q19.3,8.45,18.95,11.2ZM29.1,23.625V5.95h3.325l.2,1.6a3.892,3.892,0,0,1,1.538-1.425,4.675,4.675,0,0,1,2.188-.5,4.763,4.763,0,0,1,2.787.825,5.388,5.388,0,0,1,1.85,2.35,9.054,9.054,0,0,1,.662,3.625,9.087,9.087,0,0,1-.675,3.65,5.551,5.551,0,0,1-1.888,2.4,4.818,4.818,0,0,1-2.838.85,4.137,4.137,0,0,1-3.35-1.5v5.8Zm6.2-7.375a2.1,2.1,0,0,0,1.837-.988A4.923,4.923,0,0,0,37.8,12.5a5.041,5.041,0,0,0-.663-2.8,2.2,2.2,0,0,0-3.675-.013A4.923,4.923,0,0,0,32.8,12.45a5.041,5.041,0,0,0,.662,2.8A2.088,2.088,0,0,0,35.3,16.25ZM43.625,19V5.95H46.95l.25,1.875a4.1,4.1,0,0,1,1.262-1.55A2.809,2.809,0,0,1,50.15,5.7a2.5,2.5,0,0,1,1,.175V9.4a2.38,2.38,0,0,0-1.075-.225,2.411,2.411,0,0,0-1.937.837,3.457,3.457,0,0,0-.713,2.312V19Zm14.775.325a6.491,6.491,0,0,1-3.35-.838,5.7,5.7,0,0,1-2.213-2.375A7.826,7.826,0,0,1,52.05,12.5a7.9,7.9,0,0,1,.787-3.625,5.74,5.74,0,0,1,2.225-2.4,7.047,7.047,0,0,1,6.688-.012,5.7,5.7,0,0,1,2.212,2.375,7.826,7.826,0,0,1,.787,3.612,7.9,7.9,0,0,1-.787,3.625,5.766,5.766,0,0,1-2.212,2.4A6.416,6.416,0,0,1,58.4,19.325Zm0-3.075a2.1,2.1,0,0,0,1.838-.988A4.924,4.924,0,0,0,60.9,12.5a5.041,5.041,0,0,0-.662-2.8,2.2,2.2,0,0,0-3.675-.013A4.923,4.923,0,0,0,55.9,12.45a5.041,5.041,0,0,0,.663,2.8A2.088,2.088,0,0,0,58.4,16.25ZM73.55,19h-3.7a65.319,65.319,0,0,1-2.775-6.538,60.916,60.916,0,0,1-1.95-6.512h4.1q.4,2.35.988,4.712a40.261,40.261,0,0,0,1.512,4.762,45.378,45.378,0,0,0,1.5-4.762q.6-2.362,1-4.712h4.05a55.407,55.407,0,0,1-1.9,6.437A64.27,64.27,0,0,1,73.55,19Zm9.5.325a4.512,4.512,0,0,1-3.1-1.038A3.532,3.532,0,0,1,78.775,15.5,4.018,4.018,0,0,1,80.5,12.037,8.265,8.265,0,0,1,85.375,10.8q.275,0,.55.012t.55.037q-.25-2.2-2.825-2.2a6.227,6.227,0,0,0-3.7,1.175V6.85a7.215,7.215,0,0,1,4.325-1.225,5.878,5.878,0,0,1,4.3,1.475,5.661,5.661,0,0,1,1.5,4.225V19h-3.1l-.2-1.375a3.834,3.834,0,0,1-1.563,1.25A5.153,5.153,0,0,1,83.05,19.325ZM86.5,13.2q-.375-.025-.95-.025a4.733,4.733,0,0,0-2.362.488,1.527,1.527,0,0,0-.838,1.387,1.565,1.565,0,0,0,.5,1.225,1.906,1.906,0,0,0,1.325.45,2.2,2.2,0,0,0,1.65-.7A2.389,2.389,0,0,0,86.5,14.3Zm12.075,6.125a7.059,7.059,0,0,1-3.5-.825,5.686,5.686,0,0,1-2.288-2.362,7.682,7.682,0,0,1-.812-3.638,7.368,7.368,0,0,1,.85-3.6,6.093,6.093,0,0,1,2.362-2.413A6.967,6.967,0,0,1,98.7,5.625a6.81,6.81,0,0,1,1.75.225,4.265,4.265,0,0,1,1.35.575V9.5a4.273,4.273,0,0,0-2.625-.8,3.141,3.141,0,0,0-2.463.988,3.988,3.988,0,0,0-.887,2.762,4.022,4.022,0,0,0,.912,2.775A3.131,3.131,0,0,0,99.2,16.25a4.3,4.3,0,0,0,2.75-.85v3.05a4.34,4.34,0,0,1-1.45.637A7.52,7.52,0,0,1,98.575,19.325Zm-1.6-.575h2.1L98.6,20.4a2.968,2.968,0,0,1,1.875.775,2.2,2.2,0,0,1,.7,1.65,2.406,2.406,0,0,1-1.012,2.063,4.8,4.8,0,0,1-2.863.737,6.552,6.552,0,0,1-1.625-.225V23.5a4.156,4.156,0,0,0,.7.138,5.756,5.756,0,0,0,.6.037q1.45,0,1.45-.925,0-.85-1.525-.85h-.775Zm11,.575a4.512,4.512,0,0,1-3.1-1.038A3.532,3.532,0,0,1,103.7,15.5a4.018,4.018,0,0,1,1.725-3.463A8.265,8.265,0,0,1,110.3,10.8q.275,0,.55.012t.55.037q-.25-2.2-2.825-2.2a6.227,6.227,0,0,0-3.7,1.175V6.85A7.215,7.215,0,0,1,109.2,5.625,5.878,5.878,0,0,1,113.5,7.1a5.661,5.661,0,0,1,1.5,4.225V19h-3.1l-.2-1.375a3.834,3.834,0,0,1-1.562,1.25A5.153,5.153,0,0,1,107.975,19.325Zm3.45-6.125q-.375-.025-.95-.025a4.733,4.733,0,0,0-2.362.488,1.527,1.527,0,0,0-.838,1.387,1.565,1.565,0,0,0,.5,1.225,1.906,1.906,0,0,0,1.325.45,2.2,2.2,0,0,0,1.65-.7,2.389,2.389,0,0,0,.675-1.725Zm.175-8.825a2.687,2.687,0,0,1-1.362-.337q-.588-.337-1.062-.675a1.548,1.548,0,0,0-.875-.338q-.7,0-.7,1.1v.2h-2.325v-.2a4.316,4.316,0,0,1,.7-2.663A2.4,2.4,0,0,1,108,.55a2.756,2.756,0,0,1,1.375.337,10.732,10.732,0,0,1,1.063.675,1.494,1.494,0,0,0,.863.338q.7,0,.7-1.1V.6h2.325V.8a4.316,4.316,0,0,1-.7,2.663A2.4,2.4,0,0,1,111.6,4.375Zm11.65,14.95a6.491,6.491,0,0,1-3.35-.838,5.7,5.7,0,0,1-2.212-2.375A7.826,7.826,0,0,1,116.9,12.5a7.9,7.9,0,0,1,.788-3.625,5.74,5.74,0,0,1,2.225-2.4,7.047,7.047,0,0,1,6.688-.012,5.7,5.7,0,0,1,2.213,2.375,7.826,7.826,0,0,1,.787,3.612,7.9,7.9,0,0,1-.787,3.625,5.766,5.766,0,0,1-2.213,2.4A6.416,6.416,0,0,1,123.25,19.325Zm0-3.075a2.1,2.1,0,0,0,1.837-.988,4.923,4.923,0,0,0,.663-2.762,5.041,5.041,0,0,0-.663-2.8,2.2,2.2,0,0,0-3.675-.013,4.924,4.924,0,0,0-.662,2.762,5.041,5.041,0,0,0,.662,2.8A2.088,2.088,0,0,0,123.25,16.25Z" transform="translate(163 6375.924)"/>
    <path id="Caminho_1395" data-name="Caminho 1395" d="M1.45,19V2.125H6.8a10.442,10.442,0,0,1,4.788,1.012,7.145,7.145,0,0,1,3.05,2.887A9.042,9.042,0,0,1,15.7,10.55a8.749,8.749,0,0,1-1.113,4.5,7.414,7.414,0,0,1-3.163,2.925A10.787,10.787,0,0,1,6.55,19ZM6.925,5.475H5.375V15.65H6.8a4.779,4.779,0,0,0,3.613-1.312,5.213,5.213,0,0,0,1.262-3.762A5.335,5.335,0,0,0,10.45,6.762,4.636,4.636,0,0,0,6.925,5.475ZM17.75,19V5.95h3.8V19Zm1.9-14.575a2.17,2.17,0,0,1-1.563-.613,2.043,2.043,0,0,1-.637-1.538A2.043,2.043,0,0,1,18.087.737a2.315,2.315,0,0,1,3.138,0,2.064,2.064,0,0,1,.625,1.538,2.064,2.064,0,0,1-.625,1.538A2.158,2.158,0,0,1,19.65,4.425Zm8.25,14.9a10.687,10.687,0,0,1-2.325-.25A7.258,7.258,0,0,1,23.6,18.35V15.375a7.027,7.027,0,0,0,1.863.8,7.742,7.742,0,0,0,2.037.275q2,0,2-1.225a.957.957,0,0,0-.513-.825A8.247,8.247,0,0,0,27,13.675q-3.45-.975-3.45-3.95A3.531,3.531,0,0,1,25.063,6.75,6.61,6.61,0,0,1,29.1,5.625a8.558,8.558,0,0,1,1.837.2,5.6,5.6,0,0,1,1.538.55V9.3A6.946,6.946,0,0,0,29.2,8.5q-1.925,0-1.925,1.125a.892.892,0,0,0,.475.775,8.314,8.314,0,0,0,1.9.7,5.637,5.637,0,0,1,2.8,1.512,3.72,3.72,0,0,1,.875,2.563,3.63,3.63,0,0,1-1.45,3.025A6.331,6.331,0,0,1,27.9,19.325Zm12.85-.075q-4.65,0-4.65-4.725V8.85h-2V5.95h2V2.55h3.8v3.4h2.75v2.9H39.9v5.325q0,2.05,1.65,2.05a2.9,2.9,0,0,0,1.4-.325v2.925a6.754,6.754,0,0,1-1.037.3A5.574,5.574,0,0,1,40.75,19.25Zm9.575.075a6.491,6.491,0,0,1-3.35-.838,5.7,5.7,0,0,1-2.213-2.375,7.826,7.826,0,0,1-.787-3.612,7.9,7.9,0,0,1,.787-3.625,5.74,5.74,0,0,1,2.225-2.4,7.047,7.047,0,0,1,6.688-.012,5.7,5.7,0,0,1,2.213,2.375,7.826,7.826,0,0,1,.787,3.612,7.9,7.9,0,0,1-.787,3.625,5.766,5.766,0,0,1-2.213,2.4A6.416,6.416,0,0,1,50.325,19.325Zm0-3.075a2.1,2.1,0,0,0,1.838-.988,4.923,4.923,0,0,0,.663-2.762,5.041,5.041,0,0,0-.663-2.8,2.2,2.2,0,0,0-3.675-.013,4.923,4.923,0,0,0-.663,2.762,5.041,5.041,0,0,0,.663,2.8A2.088,2.088,0,0,0,50.325,16.25ZM58.65,19V5.95h3.325l.25,1.875a4.1,4.1,0,0,1,1.263-1.55A2.809,2.809,0,0,1,65.175,5.7a2.5,2.5,0,0,1,1,.175V9.4A2.38,2.38,0,0,0,65.1,9.175a2.411,2.411,0,0,0-1.938.837,3.458,3.458,0,0,0-.712,2.312V19Zm15.025.325a7.059,7.059,0,0,1-3.5-.825,5.686,5.686,0,0,1-2.288-2.362,7.682,7.682,0,0,1-.812-3.638,7.368,7.368,0,0,1,.85-3.6,6.093,6.093,0,0,1,2.362-2.413A6.967,6.967,0,0,1,73.8,5.625a6.81,6.81,0,0,1,1.75.225,4.265,4.265,0,0,1,1.35.575V9.5a4.273,4.273,0,0,0-2.625-.8,3.141,3.141,0,0,0-2.463.988,3.988,3.988,0,0,0-.887,2.762,4.022,4.022,0,0,0,.912,2.775A3.131,3.131,0,0,0,74.3,16.25a4.3,4.3,0,0,0,2.75-.85v3.05a4.34,4.34,0,0,1-1.45.637A7.52,7.52,0,0,1,73.675,19.325Zm-1.6-.575h2.1L73.7,20.4a2.968,2.968,0,0,1,1.875.775,2.2,2.2,0,0,1,.7,1.65,2.406,2.406,0,0,1-1.013,2.063,4.8,4.8,0,0,1-2.862.737,6.552,6.552,0,0,1-1.625-.225V23.5a4.156,4.156,0,0,0,.7.138,5.756,5.756,0,0,0,.6.037q1.45,0,1.45-.925,0-.85-1.525-.85h-.775Zm11,.575a4.512,4.512,0,0,1-3.1-1.038A3.532,3.532,0,0,1,78.8,15.5a4.018,4.018,0,0,1,1.725-3.463A8.265,8.265,0,0,1,85.4,10.8q.275,0,.55.012t.55.037q-.25-2.2-2.825-2.2a6.227,6.227,0,0,0-3.7,1.175V6.85A7.215,7.215,0,0,1,84.3,5.625,5.878,5.878,0,0,1,88.6,7.1a5.661,5.661,0,0,1,1.5,4.225V19H87l-.2-1.375a3.834,3.834,0,0,1-1.563,1.25A5.153,5.153,0,0,1,83.075,19.325Zm3.45-6.125q-.375-.025-.95-.025a4.733,4.733,0,0,0-2.362.488,1.527,1.527,0,0,0-.838,1.387,1.565,1.565,0,0,0,.5,1.225,1.906,1.906,0,0,0,1.325.45,2.2,2.2,0,0,0,1.65-.7,2.389,2.389,0,0,0,.675-1.725ZM86.7,4.375a2.687,2.687,0,0,1-1.362-.337q-.588-.337-1.062-.675a1.548,1.548,0,0,0-.875-.338q-.7,0-.7,1.1v.2H80.375v-.2a4.316,4.316,0,0,1,.7-2.663A2.4,2.4,0,0,1,83.1.55a2.756,2.756,0,0,1,1.375.337,10.732,10.732,0,0,1,1.063.675A1.494,1.494,0,0,0,86.4,1.9q.7,0,.7-1.1V.6h2.325V.8a4.316,4.316,0,0,1-.7,2.663A2.4,2.4,0,0,1,86.7,4.375Zm11.65,14.95A6.491,6.491,0,0,1,95,18.487a5.7,5.7,0,0,1-2.212-2.375A7.826,7.826,0,0,1,92,12.5a7.9,7.9,0,0,1,.788-3.625,5.74,5.74,0,0,1,2.225-2.4,7.047,7.047,0,0,1,6.688-.012,5.7,5.7,0,0,1,2.213,2.375,7.826,7.826,0,0,1,.787,3.612,7.9,7.9,0,0,1-.787,3.625,5.766,5.766,0,0,1-2.213,2.4A6.416,6.416,0,0,1,98.35,19.325Zm0-3.075a2.1,2.1,0,0,0,1.838-.988,4.924,4.924,0,0,0,.662-2.762,5.041,5.041,0,0,0-.662-2.8,2.2,2.2,0,0,0-3.675-.013,4.924,4.924,0,0,0-.662,2.762,5.041,5.041,0,0,0,.662,2.8A2.088,2.088,0,0,0,98.35,16.25Z" transform="translate(163 6498.727)"/>
    <path id="Caminho_1403" data-name="Caminho 1403" d="M4.3,19H.375q1.1-4.325,2.6-8.55t3.35-8.325H10.65q1.825,3.95,3.275,8.087T16.6,19H12.575q-.225-.95-.425-1.812t-.4-1.663H5.125Q4.675,17.25,4.3,19Zm1.675-6.45h4.95Q10.45,11,9.85,9.313T8.425,5.5q-.7,1.8-1.312,3.563T5.975,12.55Zm19.25,6.775a4.178,4.178,0,0,1-3.625-1.75L21.4,19H18.25V1h3.8V7.2A4.119,4.119,0,0,1,25.5,5.625a4.763,4.763,0,0,1,2.788.825,5.388,5.388,0,0,1,1.85,2.35,9.054,9.054,0,0,1,.663,3.625,9.011,9.011,0,0,1-.688,3.675,5.442,5.442,0,0,1-1.937,2.387A5.174,5.174,0,0,1,25.225,19.325ZM24.45,16.25a2.1,2.1,0,0,0,1.838-.988A4.924,4.924,0,0,0,26.95,12.5a5.041,5.041,0,0,0-.662-2.8,2.2,2.2,0,0,0-3.675-.013,4.923,4.923,0,0,0-.663,2.762,5.041,5.041,0,0,0,.663,2.8A2.088,2.088,0,0,0,24.45,16.25Zm12.025,3.075a4.512,4.512,0,0,1-3.1-1.038A3.532,3.532,0,0,1,32.2,15.5a4.018,4.018,0,0,1,1.725-3.463A8.265,8.265,0,0,1,38.8,10.8q.275,0,.55.012t.55.037q-.25-2.2-2.825-2.2a6.227,6.227,0,0,0-3.7,1.175V6.85A7.215,7.215,0,0,1,37.7,5.625,5.878,5.878,0,0,1,42,7.1a5.661,5.661,0,0,1,1.5,4.225V19H40.4l-.2-1.375a3.834,3.834,0,0,1-1.562,1.25A5.153,5.153,0,0,1,36.475,19.325Zm3.45-6.125q-.375-.025-.95-.025a4.733,4.733,0,0,0-2.362.488,1.527,1.527,0,0,0-.837,1.387,1.565,1.565,0,0,0,.5,1.225,1.906,1.906,0,0,0,1.325.45,2.2,2.2,0,0,0,1.65-.7,2.39,2.39,0,0,0,.675-1.725Zm6.05,5.8V5.95H49.3l.2,1.5a4.427,4.427,0,0,1,3.775-1.825,4.134,4.134,0,0,1,3.275,1.4,5.416,5.416,0,0,1,1.225,3.7V19h-3.8V11.325q0-2.55-2.05-2.55a1.944,1.944,0,0,0-1.575.688,2.812,2.812,0,0,0-.575,1.863V19Zm19.05.325a4.879,4.879,0,0,1-2.812-.825,5.318,5.318,0,0,1-1.875-2.35,9.054,9.054,0,0,1-.662-3.625,9.066,9.066,0,0,1,.675-3.663,5.525,5.525,0,0,1,1.9-2.388,4.833,4.833,0,0,1,2.825-.85A4.168,4.168,0,0,1,68.425,7.1V1h3.8V19H68.9l-.2-1.575a3.773,3.773,0,0,1-1.513,1.4A4.62,4.62,0,0,1,65.025,19.325Zm1-3.075a2.1,2.1,0,0,0,1.838-.988,4.924,4.924,0,0,0,.662-2.762,5.041,5.041,0,0,0-.662-2.8,2.2,2.2,0,0,0-3.675-.013,4.924,4.924,0,0,0-.662,2.762,5.041,5.041,0,0,0,.662,2.8A2.088,2.088,0,0,0,66.025,16.25ZM80.55,19.325a6.491,6.491,0,0,1-3.35-.838,5.7,5.7,0,0,1-2.212-2.375A7.826,7.826,0,0,1,74.2,12.5a7.9,7.9,0,0,1,.788-3.625,5.74,5.74,0,0,1,2.225-2.4A7.047,7.047,0,0,1,83.9,6.462a5.7,5.7,0,0,1,2.213,2.375A7.826,7.826,0,0,1,86.9,12.45a7.9,7.9,0,0,1-.787,3.625,5.766,5.766,0,0,1-2.213,2.4A6.416,6.416,0,0,1,80.55,19.325Zm0-3.075a2.1,2.1,0,0,0,1.837-.988A4.923,4.923,0,0,0,83.05,12.5a5.041,5.041,0,0,0-.663-2.8,2.2,2.2,0,0,0-3.675-.013,4.924,4.924,0,0,0-.662,2.762,5.041,5.041,0,0,0,.662,2.8A2.088,2.088,0,0,0,80.55,16.25ZM88.875,19V5.95H92.2l.2,1.5a4.427,4.427,0,0,1,3.775-1.825,4.134,4.134,0,0,1,3.275,1.4,5.416,5.416,0,0,1,1.225,3.7V19h-3.8V11.325q0-2.55-2.05-2.55a1.944,1.944,0,0,0-1.575.688,2.812,2.812,0,0,0-.575,1.863V19Zm20.05.325a6.491,6.491,0,0,1-3.35-.838,5.7,5.7,0,0,1-2.212-2.375,7.826,7.826,0,0,1-.788-3.612,7.9,7.9,0,0,1,.788-3.625,5.74,5.74,0,0,1,2.225-2.4,7.047,7.047,0,0,1,6.688-.012,5.7,5.7,0,0,1,2.213,2.375,7.826,7.826,0,0,1,.787,3.612,7.9,7.9,0,0,1-.787,3.625,5.766,5.766,0,0,1-2.213,2.4A6.416,6.416,0,0,1,108.925,19.325Zm0-3.075a2.1,2.1,0,0,0,1.837-.988,4.923,4.923,0,0,0,.663-2.762,5.041,5.041,0,0,0-.663-2.8,2.2,2.2,0,0,0-3.675-.013,4.924,4.924,0,0,0-.662,2.762,5.041,5.041,0,0,0,.662,2.8A2.088,2.088,0,0,0,108.925,16.25Z" transform="translate(163 6626.924)"/>
    <g id="Grupo_1771" data-name="Grupo 1771" transform="translate(-201.592 59.406)">
      <path id="Caminho_1384" data-name="Caminho 1384" d="M25.218,22.072A10.823,10.823,0,1,0,14.393,11.244,10.83,10.83,0,0,0,25.218,22.072Z" transform="translate(626.646 6281.771)" fill="#0e295b" stroke="#c2cadd" stroke-linecap="round" stroke-linejoin="round" stroke-width="3.85"/>
      <path id="Caminho_1385" data-name="Caminho 1385" d="M37.5,9.4H24.328c-8.282.539-12.674,4.681-12.674,14.832l.049,19.71c0,3.161,2.228,5.682,6.4,5.682V79.619a6.379,6.379,0,1,0,12.757,0,6.379,6.379,0,1,0,12.758,0l.052-29.993c4.287,0,6.442-2.521,6.442-5.682l.049-19.71C50.167,14.083,45.781,9.941,37.5,9.4Z" transform="translate(620.955 6294.441)" fill="#0e295b" stroke="#c2cadd" stroke-linecap="round" stroke-linejoin="round" stroke-width="3.85"/>
    </g>
    <g id="Grupo_1772" data-name="Grupo 1772" transform="translate(-201.592 179.406)">
      <path id="Caminho_1384-2" data-name="Caminho 1384" d="M25.218,22.072A10.823,10.823,0,1,0,14.393,11.244,10.83,10.83,0,0,0,25.218,22.072Z" transform="translate(626.646 6281.771)" fill="#0e295b" stroke="#c2cadd" stroke-linecap="round" stroke-linejoin="round" stroke-width="3.85"/>
      <path id="Caminho_1385-2" data-name="Caminho 1385" d="M37.5,9.4H24.328c-8.282.539-12.674,4.681-12.674,14.832l.049,19.71c0,3.161,2.228,5.682,6.4,5.682V79.619a6.379,6.379,0,1,0,12.757,0,6.379,6.379,0,1,0,12.758,0l.052-29.993c4.287,0,6.442-2.521,6.442-5.682l.049-19.71C50.167,14.083,45.781,9.941,37.5,9.4Z" transform="translate(620.955 6294.441)" fill="#0e295b" stroke="#c2cadd" stroke-linecap="round" stroke-linejoin="round" stroke-width="3.85"/>
    </g>
    <g id="Grupo_1773" data-name="Grupo 1773" transform="translate(-201.592 310.406)">
      <path id="Caminho_1384-3" data-name="Caminho 1384" d="M25.218,22.072A10.823,10.823,0,1,0,14.393,11.244,10.83,10.83,0,0,0,25.218,22.072Z" transform="translate(626.646 6281.771)" fill="#0e295b" stroke="#c2cadd" stroke-linecap="round" stroke-linejoin="round" stroke-width="3.85"/>
      <path id="Caminho_1385-3" data-name="Caminho 1385" d="M37.5,9.4H24.328c-8.282.539-12.674,4.681-12.674,14.832l.049,19.71c0,3.161,2.228,5.682,6.4,5.682V79.619a6.379,6.379,0,1,0,12.757,0,6.379,6.379,0,1,0,12.758,0l.052-29.993c4.287,0,6.442-2.521,6.442-5.682l.049-19.71C50.167,14.083,45.781,9.941,37.5,9.4Z" transform="translate(620.955 6294.441)" fill="#0e295b" stroke="#c2cadd" stroke-linecap="round" stroke-linejoin="round" stroke-width="3.85"/>
    </g>
    <g id="Grupo_1774" data-name="Grupo 1774" transform="translate(-130.592 59.406)">
      <path id="Caminho_1384-4" data-name="Caminho 1384" d="M25.218,22.072A10.823,10.823,0,1,0,14.393,11.244,10.83,10.83,0,0,0,25.218,22.072Z" transform="translate(626.646 6281.771)" fill="#fff" stroke="#0e295b" stroke-linecap="round" stroke-linejoin="round" stroke-width="3.85"/>
      <path id="Caminho_1385-4" data-name="Caminho 1385" d="M37.5,9.4H24.328c-8.282.539-12.674,4.681-12.674,14.832l.049,19.71c0,3.161,2.228,5.682,6.4,5.682V79.619a6.379,6.379,0,1,0,12.757,0,6.379,6.379,0,1,0,12.758,0l.052-29.993c4.287,0,6.442-2.521,6.442-5.682l.049-19.71C50.167,14.083,45.781,9.941,37.5,9.4Z" transform="translate(620.955 6294.441)" fill="#fff" stroke="#0e295b" stroke-linecap="round" stroke-linejoin="round" stroke-width="3.85"/>
    </g>
    <g id="Grupo_1775" data-name="Grupo 1775" transform="translate(-130.592 179.406)">
      <path id="Caminho_1384-5" data-name="Caminho 1384" d="M25.218,22.072A10.823,10.823,0,1,0,14.393,11.244,10.83,10.83,0,0,0,25.218,22.072Z" transform="translate(626.646 6281.771)" fill="#fff" stroke="#0e295b" stroke-linecap="round" stroke-linejoin="round" stroke-width="3.85"/>
      <path id="Caminho_1385-5" data-name="Caminho 1385" d="M37.5,9.4H24.328c-8.282.539-12.674,4.681-12.674,14.832l.049,19.71c0,3.161,2.228,5.682,6.4,5.682V79.619a6.379,6.379,0,1,0,12.757,0,6.379,6.379,0,1,0,12.758,0l.052-29.993c4.287,0,6.442-2.521,6.442-5.682l.049-19.71C50.167,14.083,45.781,9.941,37.5,9.4Z" transform="translate(620.955 6294.441)" fill="#fff" stroke="#0e295b" stroke-linecap="round" stroke-linejoin="round" stroke-width="3.85"/>
    </g>
    <g id="Grupo_1776" data-name="Grupo 1776" transform="translate(-130.592 310.406)">
      <path id="Caminho_1384-6" data-name="Caminho 1384" d="M25.218,22.072A10.823,10.823,0,1,0,14.393,11.244,10.83,10.83,0,0,0,25.218,22.072Z" transform="translate(626.646 6281.771)" fill="#fff" stroke="#0e295b" stroke-linecap="round" stroke-linejoin="round" stroke-width="3.85"/>
      <path id="Caminho_1385-6" data-name="Caminho 1385" d="M37.5,9.4H24.328c-8.282.539-12.674,4.681-12.674,14.832l.049,19.71c0,3.161,2.228,5.682,6.4,5.682V79.619a6.379,6.379,0,1,0,12.757,0,6.379,6.379,0,1,0,12.758,0l.052-29.993c4.287,0,6.442-2.521,6.442-5.682l.049-19.71C50.167,14.083,45.781,9.941,37.5,9.4Z" transform="translate(620.955 6294.441)" fill="#fff" stroke="#0e295b" stroke-linecap="round" stroke-linejoin="round" stroke-width="3.85"/>
    </g>
    <g id="Grupo_1777" data-name="Grupo 1777" transform="translate(246 59.406)">
      <path id="Caminho_1384-7" data-name="Caminho 1384" d="M25.218,22.072A10.823,10.823,0,1,0,14.393,11.244,10.83,10.83,0,0,0,25.218,22.072Z" transform="translate(626.646 6281.771)" fill="#0e295b" stroke="#c2cadd" stroke-linecap="round" stroke-linejoin="round" stroke-width="3.85"/>
      <path id="Caminho_1385-7" data-name="Caminho 1385" d="M37.5,9.4H24.328c-8.282.539-12.674,4.681-12.674,14.832l.049,19.71c0,3.161,2.228,5.682,6.4,5.682V79.619a6.379,6.379,0,1,0,12.757,0,6.379,6.379,0,1,0,12.758,0l.052-29.993c4.287,0,6.442-2.521,6.442-5.682l.049-19.71C50.167,14.083,45.781,9.941,37.5,9.4Z" transform="translate(620.955 6294.441)" fill="#0e295b" stroke="#c2cadd" stroke-linecap="round" stroke-linejoin="round" stroke-width="3.85"/>
    </g>
    <g id="Grupo_1778" data-name="Grupo 1778" transform="translate(246 179.406)">
      <path id="Caminho_1384-8" data-name="Caminho 1384" d="M25.218,22.072A10.823,10.823,0,1,0,14.393,11.244,10.83,10.83,0,0,0,25.218,22.072Z" transform="translate(626.646 6281.771)" fill="#0e295b" stroke="#c2cadd" stroke-linecap="round" stroke-linejoin="round" stroke-width="3.85"/>
      <path id="Caminho_1385-8" data-name="Caminho 1385" d="M37.5,9.4H24.328c-8.282.539-12.674,4.681-12.674,14.832l.049,19.71c0,3.161,2.228,5.682,6.4,5.682V79.619a6.379,6.379,0,1,0,12.757,0,6.379,6.379,0,1,0,12.758,0l.052-29.993c4.287,0,6.442-2.521,6.442-5.682l.049-19.71C50.167,14.083,45.781,9.941,37.5,9.4Z" transform="translate(620.955 6294.441)" fill="#0e295b" stroke="#c2cadd" stroke-linecap="round" stroke-linejoin="round" stroke-width="3.85"/>
    </g>
    <g id="Grupo_1779" data-name="Grupo 1779" transform="translate(246 310.406)">
      <path id="Caminho_1384-9" data-name="Caminho 1384" d="M25.218,22.072A10.823,10.823,0,1,0,14.393,11.244,10.83,10.83,0,0,0,25.218,22.072Z" transform="translate(626.646 6281.771)" fill="#0e295b" stroke="#c2cadd" stroke-linecap="round" stroke-linejoin="round" stroke-width="3.85"/>
      <path id="Caminho_1385-9" data-name="Caminho 1385" d="M37.5,9.4H24.328c-8.282.539-12.674,4.681-12.674,14.832l.049,19.71c0,3.161,2.228,5.682,6.4,5.682V79.619a6.379,6.379,0,1,0,12.757,0,6.379,6.379,0,1,0,12.758,0l.052-29.993c4.287,0,6.442-2.521,6.442-5.682l.049-19.71C50.167,14.083,45.781,9.941,37.5,9.4Z" transform="translate(620.955 6294.441)" fill="#0e295b" stroke="#c2cadd" stroke-linecap="round" stroke-linejoin="round" stroke-width="3.85"/>
    </g>
    <g id="Grupo_1780" data-name="Grupo 1780" transform="translate(317 59.406)">
      <path id="Caminho_1384-10" data-name="Caminho 1384" d="M25.218,22.072A10.823,10.823,0,1,0,14.393,11.244,10.83,10.83,0,0,0,25.218,22.072Z" transform="translate(626.646 6281.771)" fill="#fff" stroke="#0e295b" stroke-linecap="round" stroke-linejoin="round" stroke-width="3.85"/>
      <path id="Caminho_1385-10" data-name="Caminho 1385" d="M37.5,9.4H24.328c-8.282.539-12.674,4.681-12.674,14.832l.049,19.71c0,3.161,2.228,5.682,6.4,5.682V79.619a6.379,6.379,0,1,0,12.757,0,6.379,6.379,0,1,0,12.758,0l.052-29.993c4.287,0,6.442-2.521,6.442-5.682l.049-19.71C50.167,14.083,45.781,9.941,37.5,9.4Z" transform="translate(620.955 6294.441)" fill="#fff" stroke="#0e295b" stroke-linecap="round" stroke-linejoin="round" stroke-width="3.85"/>
    </g>
    <g id="Grupo_1781" data-name="Grupo 1781" transform="translate(317 179.406)">
      <path id="Caminho_1384-11" data-name="Caminho 1384" d="M25.218,22.072A10.823,10.823,0,1,0,14.393,11.244,10.83,10.83,0,0,0,25.218,22.072Z" transform="translate(626.646 6281.771)" fill="#fff" stroke="#0e295b" stroke-linecap="round" stroke-linejoin="round" stroke-width="3.85"/>
      <path id="Caminho_1385-11" data-name="Caminho 1385" d="M37.5,9.4H24.328c-8.282.539-12.674,4.681-12.674,14.832l.049,19.71c0,3.161,2.228,5.682,6.4,5.682V79.619a6.379,6.379,0,1,0,12.757,0,6.379,6.379,0,1,0,12.758,0l.052-29.993c4.287,0,6.442-2.521,6.442-5.682l.049-19.71C50.167,14.083,45.781,9.941,37.5,9.4Z" transform="translate(620.955 6294.441)" fill="#fff" stroke="#0e295b" stroke-linecap="round" stroke-linejoin="round" stroke-width="3.85"/>
    </g>
    <g id="Grupo_1782" data-name="Grupo 1782" transform="translate(317 310.406)">
      <path id="Caminho_1384-12" data-name="Caminho 1384" d="M25.218,22.072A10.823,10.823,0,1,0,14.393,11.244,10.83,10.83,0,0,0,25.218,22.072Z" transform="translate(626.646 6281.771)" fill="#fff" stroke="#0e295b" stroke-linecap="round" stroke-linejoin="round" stroke-width="3.85"/>
      <path id="Caminho_1385-12" data-name="Caminho 1385" d="M37.5,9.4H24.328c-8.282.539-12.674,4.681-12.674,14.832l.049,19.71c0,3.161,2.228,5.682,6.4,5.682V79.619a6.379,6.379,0,1,0,12.757,0,6.379,6.379,0,1,0,12.758,0l.052-29.993c4.287,0,6.442-2.521,6.442-5.682l.049-19.71C50.167,14.083,45.781,9.941,37.5,9.4Z" transform="translate(620.955 6294.441)" fill="#fff" stroke="#0e295b" stroke-linecap="round" stroke-linejoin="round" stroke-width="3.85"/>
    </g>
    <path id="Caminho_1391" data-name="Caminho 1391" d="M29.686,19H18.661V16.375q2.075-2.125,3.413-3.587t2.088-2.475a9.429,9.429,0,0,0,1.063-1.725,3.342,3.342,0,0,0,.312-1.338,2.087,2.087,0,0,0-.7-1.675,2.9,2.9,0,0,0-1.95-.6A5.877,5.877,0,0,0,19.261,6.2V3.125A7.328,7.328,0,0,1,23.686,1.8a6.943,6.943,0,0,1,3.013.613A4.605,4.605,0,0,1,28.686,4.15a4.866,4.866,0,0,1,.7,2.625,6.792,6.792,0,0,1-.513,2.55,11.875,11.875,0,0,1-1.75,2.837,43,43,0,0,1-3.412,3.713h5.975Zm7.65.325a5.471,5.471,0,0,1-4.713-2.3,10.858,10.858,0,0,1-1.662-6.45,10.856,10.856,0,0,1,1.675-6.463A5.493,5.493,0,0,1,37.361,1.8a5.481,5.481,0,0,1,4.712,2.287,10.848,10.848,0,0,1,1.663,6.463,10.856,10.856,0,0,1-1.675,6.463A5.493,5.493,0,0,1,37.336,19.325Zm0-3.15A2.029,2.029,0,0,0,39.273,14.8a11.05,11.05,0,0,0,.612-4.25,11.186,11.186,0,0,0-.6-4.212A2.007,2.007,0,0,0,37.361,4.95a2.036,2.036,0,0,0-1.925,1.375,10.849,10.849,0,0,0-.625,4.25Q34.811,16.175,37.336,16.175ZM49.136,19V5.9a23.1,23.1,0,0,0-4.05,2.375V4.8q1.05-.725,2.225-1.4t2.425-1.275h3.225V19Zm12.875.325a5.471,5.471,0,0,1-4.713-2.3,10.858,10.858,0,0,1-1.662-6.45,10.856,10.856,0,0,1,1.675-6.463,5.991,5.991,0,0,1,9.438-.025,10.848,10.848,0,0,1,1.662,6.463,10.856,10.856,0,0,1-1.675,6.463A5.493,5.493,0,0,1,62.011,19.325Zm0-3.15A2.029,2.029,0,0,0,63.948,14.8a11.05,11.05,0,0,0,.613-4.25,11.186,11.186,0,0,0-.6-4.212A2.007,2.007,0,0,0,62.036,4.95a2.036,2.036,0,0,0-1.925,1.375,10.849,10.849,0,0,0-.625,4.25Q59.486,16.175,62.011,16.175Z" transform="translate(450 6271.227)"/>
    <path id="Caminho_1402" data-name="Caminho 1402" d="M30.1,19H19.073V16.375q2.075-2.125,3.413-3.587t2.087-2.475a9.429,9.429,0,0,0,1.063-1.725,3.342,3.342,0,0,0,.313-1.338,2.087,2.087,0,0,0-.7-1.675,2.9,2.9,0,0,0-1.95-.6A5.877,5.877,0,0,0,19.673,6.2V3.125A7.328,7.328,0,0,1,24.1,1.8a6.943,6.943,0,0,1,3.012.613A4.605,4.605,0,0,1,29.1,4.15a4.866,4.866,0,0,1,.7,2.625,6.793,6.793,0,0,1-.513,2.55,11.875,11.875,0,0,1-1.75,2.837,43,43,0,0,1-3.413,3.713H30.1Zm7.65.325a5.471,5.471,0,0,1-4.713-2.3,10.858,10.858,0,0,1-1.662-6.45,10.856,10.856,0,0,1,1.675-6.463A5.493,5.493,0,0,1,37.773,1.8a5.481,5.481,0,0,1,4.712,2.287,10.848,10.848,0,0,1,1.663,6.463,10.856,10.856,0,0,1-1.675,6.463A5.493,5.493,0,0,1,37.748,19.325Zm0-3.15A2.029,2.029,0,0,0,39.686,14.8a11.05,11.05,0,0,0,.612-4.25,11.186,11.186,0,0,0-.6-4.212A2.007,2.007,0,0,0,37.773,4.95a2.036,2.036,0,0,0-1.925,1.375,10.849,10.849,0,0,0-.625,4.25Q35.223,16.175,37.748,16.175ZM49.548,19V5.9A23.1,23.1,0,0,0,45.5,8.275V4.8q1.05-.725,2.225-1.4t2.425-1.275h3.225V19Zm10.9.325A6.238,6.238,0,0,1,57.1,18.5V15.4a5.564,5.564,0,0,0,3.05.875q4.15,0,4.225-5.2A3.819,3.819,0,0,1,60.9,12.75a5.086,5.086,0,0,1-2.612-.65,4.529,4.529,0,0,1-1.737-1.825,5.717,5.717,0,0,1-.625-2.725,6.038,6.038,0,0,1,.725-3.012,5.145,5.145,0,0,1,2.038-2.012A6.233,6.233,0,0,1,61.748,1.8a5.552,5.552,0,0,1,4.638,2.013A9.354,9.354,0,0,1,67.973,9.7q0,4.6-1.963,7.113A6.647,6.647,0,0,1,60.448,19.325Zm1.3-9.3a2.093,2.093,0,0,0,1.662-.738,2.82,2.82,0,0,0,.638-1.913,2.974,2.974,0,0,0-.625-1.988,2.188,2.188,0,0,0-3.287.013A2.907,2.907,0,0,0,59.5,7.35a2.923,2.923,0,0,0,.612,1.95A2.035,2.035,0,0,0,61.748,10.025Z" transform="translate(891.865 6271.227)"/>
    <path id="Caminho_1396" data-name="Caminho 1396" d="M0,0V358" transform="translate(703.391 6332.5)" fill="none" stroke="#0e295b" stroke-width="3"/>
    <path id="Caminho_1408" data-name="Caminho 1408" d="M5.075,19H1.45V2.125H4.9l6.8,10.6V2.125h3.625V19H11.85L5.075,8.7Zm19.2.325a6.7,6.7,0,0,1-5-1.825,6.88,6.88,0,0,1-1.8-5.05,7.794,7.794,0,0,1,.775-3.575,5.856,5.856,0,0,1,2.175-2.387,6.069,6.069,0,0,1,3.25-.863A5.18,5.18,0,0,1,27.8,7.35a7,7,0,0,1,1.5,4.75v1.625H21.15q.6,2.65,3.65,2.65a7.473,7.473,0,0,0,1.95-.263,6.229,6.229,0,0,0,1.725-.737V18.3a5.951,5.951,0,0,1-1.837.75A9.817,9.817,0,0,1,24.275,19.325ZM21.1,11.2h4.7a3.28,3.28,0,0,0-.65-2.038A2.042,2.042,0,0,0,23.5,8.45Q21.45,8.45,21.1,11.2ZM36.375,23.95a8.936,8.936,0,0,1-2.288-.3,8.314,8.314,0,0,1-2.013-.8V19.775a6.5,6.5,0,0,0,1.825.813,7.473,7.473,0,0,0,2.025.288q3.525,0,3.525-3.5V17.25a4.265,4.265,0,0,1-3.425,1.5,5.031,5.031,0,0,1-2.825-.788,5.176,5.176,0,0,1-1.862-2.225,7.964,7.964,0,0,1-.662-3.363,8.545,8.545,0,0,1,.688-3.563A5.476,5.476,0,0,1,33.3,6.462a5.174,5.174,0,0,1,2.95-.838,4.178,4.178,0,0,1,3.625,1.75l.2-1.425H43.25V16.975a7.042,7.042,0,0,1-1.788,5.163A6.827,6.827,0,0,1,36.375,23.95Zm.7-8.1a2.064,2.064,0,0,0,1.8-.95,4.5,4.5,0,0,0,.65-2.575,4.654,4.654,0,0,0-.663-2.65A2.08,2.08,0,0,0,37.05,8.7a2.149,2.149,0,0,0-1.85.95,4.516,4.516,0,0,0-.675,2.65,4.31,4.31,0,0,0,.7,2.588A2.181,2.181,0,0,0,37.075,15.85ZM45.8,19V5.95h3.325l.25,1.875a4.1,4.1,0,0,1,1.262-1.55A2.809,2.809,0,0,1,52.325,5.7a2.5,2.5,0,0,1,1,.175V9.4a2.38,2.38,0,0,0-1.075-.225,2.411,2.411,0,0,0-1.937.837,3.457,3.457,0,0,0-.713,2.312V19Zm14.775.325a6.491,6.491,0,0,1-3.35-.838,5.7,5.7,0,0,1-2.213-2.375,7.826,7.826,0,0,1-.787-3.612,7.9,7.9,0,0,1,.787-3.625,5.74,5.74,0,0,1,2.225-2.4,7.047,7.047,0,0,1,6.688-.012,5.7,5.7,0,0,1,2.212,2.375,7.826,7.826,0,0,1,.787,3.612,7.9,7.9,0,0,1-.787,3.625,5.766,5.766,0,0,1-2.212,2.4A6.416,6.416,0,0,1,60.575,19.325Zm0-3.075a2.1,2.1,0,0,0,1.838-.988,4.924,4.924,0,0,0,.662-2.762,5.041,5.041,0,0,0-.662-2.8,2.2,2.2,0,0,0-3.675-.013,4.923,4.923,0,0,0-.663,2.762,5.041,5.041,0,0,0,.663,2.8A2.088,2.088,0,0,0,60.575,16.25ZM72.7,19.325a10.687,10.687,0,0,1-2.325-.25A7.258,7.258,0,0,1,68.4,18.35V15.375a7.027,7.027,0,0,0,1.862.8,7.742,7.742,0,0,0,2.038.275q2,0,2-1.225a.957.957,0,0,0-.513-.825,8.247,8.247,0,0,0-1.987-.725q-3.45-.975-3.45-3.95A3.531,3.531,0,0,1,69.863,6.75,6.61,6.61,0,0,1,73.9,5.625a8.559,8.559,0,0,1,1.838.2,5.6,5.6,0,0,1,1.537.55V9.3A6.946,6.946,0,0,0,74,8.5q-1.925,0-1.925,1.125a.892.892,0,0,0,.475.775,8.314,8.314,0,0,0,1.9.7,5.637,5.637,0,0,1,2.8,1.512,3.72,3.72,0,0,1,.875,2.563,3.63,3.63,0,0,1-1.45,3.025A6.331,6.331,0,0,1,72.7,19.325Zm32.45,4.425h-3.275V.375h3.275ZM133.975,19V2.125h5.775a7.9,7.9,0,0,1,4.612,1.2,3.769,3.769,0,0,1,1.713,3.25,3.661,3.661,0,0,1-2.225,3.463,4.6,4.6,0,0,1,2.1,1.567,4.015,4.015,0,0,1,.725,2.4,4.244,4.244,0,0,1-1.862,3.7A9.214,9.214,0,0,1,139.5,19Zm3.8-3H139.7q3.025,0,3.025-2.175a1.7,1.7,0,0,0-.75-1.475,3.622,3.622,0,0,0-2.1-.525h-2.1Zm0-7.075h1.975a2.952,2.952,0,0,0,1.837-.525,1.673,1.673,0,0,0,.688-1.4,1.665,1.665,0,0,0-.625-1.375,2.779,2.779,0,0,0-1.775-.5h-2.1ZM148.7,19V5.95h3.325l.25,1.875a4.1,4.1,0,0,1,1.262-1.55,2.809,2.809,0,0,1,1.688-.575,2.5,2.5,0,0,1,1,.175V9.4a2.38,2.38,0,0,0-1.075-.225,2.411,2.411,0,0,0-1.937.837,3.457,3.457,0,0,0-.713,2.312V19Zm12.725.325a4.512,4.512,0,0,1-3.1-1.038A3.532,3.532,0,0,1,157.15,15.5a4.018,4.018,0,0,1,1.725-3.463A8.265,8.265,0,0,1,163.75,10.8q.275,0,.55.012t.55.037q-.25-2.2-2.825-2.2a6.227,6.227,0,0,0-3.7,1.175V6.85a7.215,7.215,0,0,1,4.325-1.225,5.878,5.878,0,0,1,4.3,1.475,5.661,5.661,0,0,1,1.5,4.225V19h-3.1l-.2-1.375a3.834,3.834,0,0,1-1.562,1.25A5.153,5.153,0,0,1,161.425,19.325Zm3.45-6.125q-.375-.025-.95-.025a4.733,4.733,0,0,0-2.363.488,1.527,1.527,0,0,0-.838,1.387,1.565,1.565,0,0,0,.5,1.225,1.906,1.906,0,0,0,1.325.45,2.2,2.2,0,0,0,1.65-.7,2.39,2.39,0,0,0,.675-1.725Zm6.05,5.8V5.95h3.325l.2,1.5a4.427,4.427,0,0,1,3.775-1.825,4.134,4.134,0,0,1,3.275,1.4,5.416,5.416,0,0,1,1.225,3.7V19h-3.8V11.325q0-2.55-2.05-2.55a1.944,1.944,0,0,0-1.575.688,2.812,2.812,0,0,0-.575,1.863V19Zm20.3.325a7.059,7.059,0,0,1-3.5-.825,5.686,5.686,0,0,1-2.288-2.362,7.682,7.682,0,0,1-.812-3.638,7.368,7.368,0,0,1,.85-3.6,6.093,6.093,0,0,1,2.363-2.413,6.967,6.967,0,0,1,3.512-.863,6.81,6.81,0,0,1,1.75.225,4.265,4.265,0,0,1,1.35.575V9.5a4.273,4.273,0,0,0-2.625-.8,3.141,3.141,0,0,0-2.462.988,3.988,3.988,0,0,0-.887,2.762,4.022,4.022,0,0,0,.912,2.775,3.131,3.131,0,0,0,2.463,1.025,4.3,4.3,0,0,0,2.75-.85v3.05a4.34,4.34,0,0,1-1.45.637A7.52,7.52,0,0,1,191.225,19.325Zm11.175,0a6.491,6.491,0,0,1-3.35-.838,5.7,5.7,0,0,1-2.212-2.375,7.826,7.826,0,0,1-.788-3.612,7.9,7.9,0,0,1,.788-3.625,5.74,5.74,0,0,1,2.225-2.4,7.047,7.047,0,0,1,6.688-.012,5.7,5.7,0,0,1,2.213,2.375,7.826,7.826,0,0,1,.787,3.612,7.9,7.9,0,0,1-.787,3.625,5.766,5.766,0,0,1-2.213,2.4A6.416,6.416,0,0,1,202.4,19.325Zm0-3.075a2.1,2.1,0,0,0,1.837-.988A4.924,4.924,0,0,0,204.9,12.5a5.041,5.041,0,0,0-.663-2.8,2.2,2.2,0,0,0-3.675-.013,4.924,4.924,0,0,0-.662,2.762,5.041,5.041,0,0,0,.662,2.8A2.088,2.088,0,0,0,202.4,16.25Zm12.125,3.075a10.687,10.687,0,0,1-2.325-.25,7.258,7.258,0,0,1-1.975-.725V15.375a7.027,7.027,0,0,0,1.863.8,7.742,7.742,0,0,0,2.038.275q2,0,2-1.225a.957.957,0,0,0-.512-.825,8.247,8.247,0,0,0-1.988-.725q-3.45-.975-3.45-3.95a3.531,3.531,0,0,1,1.512-2.975,6.61,6.61,0,0,1,4.037-1.125,8.559,8.559,0,0,1,1.838.2,5.6,5.6,0,0,1,1.537.55V9.3a6.946,6.946,0,0,0-3.275-.8q-1.925,0-1.925,1.125a.892.892,0,0,0,.475.775,8.314,8.314,0,0,0,1.9.7,5.637,5.637,0,0,1,2.8,1.512,3.72,3.72,0,0,1,.875,2.563A3.631,3.631,0,0,1,218.5,18.2,6.331,6.331,0,0,1,214.525,19.325Z" transform="translate(831.496 6723.604)"/>
    <path id="Caminho_1401" data-name="Caminho 1401" d="M22.89,19q1.9-3.725,3.625-7.488T29.665,4h-8.4V2.125h10.5v1.75q-1.375,3.8-3.013,7.587T25.24,19Zm7.925,3.35h-1.85a10.188,10.188,0,0,0,2.3-6.35h2.1a9.006,9.006,0,0,1-.65,3.375A9.611,9.611,0,0,1,30.815,22.35ZM42.69,19V15.075H35.015V13.25q1.325-2.4,3.162-5.125t4.338-6H44.79v11.15h2.2v1.8h-2.2V19Zm0-5.725v-8.6q-1.875,2.5-3.275,4.613t-2.45,3.988Zm17.9,6.05a3.787,3.787,0,0,1-1.95-.513,3.723,3.723,0,0,1-1.375-1.388,3.909,3.909,0,0,1-.5-1.975,3.81,3.81,0,0,1,1.9-3.363,3.805,3.805,0,0,1,5.25,1.387,3.909,3.909,0,0,1,.5,1.975,3.874,3.874,0,0,1-1.887,3.363A3.72,3.72,0,0,1,60.59,19.325ZM52.265,9.55a3.787,3.787,0,0,1-1.95-.512A3.723,3.723,0,0,1,48.94,7.65a3.909,3.909,0,0,1-.5-1.975,3.81,3.81,0,0,1,1.9-3.362A3.805,3.805,0,0,1,55.59,3.7a3.909,3.909,0,0,1,.5,1.975A3.874,3.874,0,0,1,54.2,9.037,3.72,3.72,0,0,1,52.265,9.55ZM48.965,19,61.69,2.125h2.2L51.165,19Zm3.3-11a2.053,2.053,0,0,0,1.563-.65,2.344,2.344,0,0,0,.612-1.675,2.355,2.355,0,0,0-.612-1.662A2.188,2.188,0,0,0,50.7,4a2.344,2.344,0,0,0-.612,1.675,2.328,2.328,0,0,0,.625,1.663A2.045,2.045,0,0,0,52.265,8Zm8.325,9.775a2.034,2.034,0,0,0,1.563-.663,2.562,2.562,0,0,0,0-3.325,2.034,2.034,0,0,0-1.562-.663,2.064,2.064,0,0,0-1.55.65,2.317,2.317,0,0,0-.625,1.675,2.328,2.328,0,0,0,.625,1.662A2.045,2.045,0,0,0,60.59,17.775Z" transform="translate(793.695 6375.924)"/>
    <path id="Caminho_1397" data-name="Caminho 1397" d="M17.732,19V17.3q2.35-2.3,3.862-3.9a31.072,31.072,0,0,0,2.362-2.75A8.773,8.773,0,0,0,25.144,8.6a5.1,5.1,0,0,0,.337-1.8,2.962,2.962,0,0,0-.888-2.262A3.3,3.3,0,0,0,22.232,3.7a5.9,5.9,0,0,0-3.9,1.475V3.15a5.734,5.734,0,0,1,1.9-1,7.623,7.623,0,0,1,2.325-.35,5.836,5.836,0,0,1,2.712.6,4.458,4.458,0,0,1,1.813,1.675,4.737,4.737,0,0,1,.65,2.5A6.294,6.294,0,0,1,27.394,8.6a9.371,9.371,0,0,1-1.138,2.188A24.564,24.564,0,0,1,24.069,13.5q-1.387,1.525-3.488,3.6h7.55V19Zm17.475.325a6.881,6.881,0,0,1-2.988-.613,4.78,4.78,0,0,1-2-1.7,4.525,4.525,0,0,1-.712-2.538,4.537,4.537,0,0,1,.8-2.7,4.448,4.448,0,0,1,2.25-1.625,3.914,3.914,0,0,1-2.45-3.875,4.068,4.068,0,0,1,.663-2.3,4.634,4.634,0,0,1,1.837-1.588,6.366,6.366,0,0,1,5.288-.025,4.382,4.382,0,0,1,1.787,1.575,4.232,4.232,0,0,1,.65,2.338,4.169,4.169,0,0,1-.638,2.313,4.4,4.4,0,0,1-1.812,1.562,4.448,4.448,0,0,1,2.25,1.625,4.5,4.5,0,0,1,.8,2.675A4.586,4.586,0,0,1,40.219,17a4.748,4.748,0,0,1-2,1.712A6.943,6.943,0,0,1,35.207,19.325Zm0-1.75a3.646,3.646,0,0,0,2.575-.9,3.049,3.049,0,0,0,.975-2.35,3,3,0,0,0-.975-2.35,4.166,4.166,0,0,0-5.125.012,3.01,3.01,0,0,0-.975,2.338,3.069,3.069,0,0,0,.963,2.35A3.6,3.6,0,0,0,35.207,17.575Zm0-8.225a2.992,2.992,0,0,0,2.175-.8,2.793,2.793,0,0,0,.825-2.1,2.793,2.793,0,0,0-.825-2.1,2.992,2.992,0,0,0-2.175-.8,2.958,2.958,0,0,0-2.15.8,2.825,2.825,0,0,0-.825,2.125,2.762,2.762,0,0,0,.825,2.075A2.958,2.958,0,0,0,35.207,9.35Zm7.675,13h-1.85a10.188,10.188,0,0,0,2.3-6.35h2.1a9.006,9.006,0,0,1-.65,3.375A9.611,9.611,0,0,1,42.882,22.35Zm9.55-3.025a9.592,9.592,0,0,1-2.537-.3,6.77,6.77,0,0,1-2.062-.975v-2.2a7.129,7.129,0,0,0,2.05,1.163,6.564,6.564,0,0,0,2.275.412,4.331,4.331,0,0,0,2.837-.837,2.866,2.866,0,0,0,1.013-2.337,2.834,2.834,0,0,0-.975-2.325,4.4,4.4,0,0,0-2.85-.8H50.557V9.3h1.625a3.66,3.66,0,0,0,2.487-.775,2.734,2.734,0,0,0,.888-2.175,2.477,2.477,0,0,0-.837-1.975,3.338,3.338,0,0,0-2.263-.725,6.44,6.44,0,0,0-2.025.313,6.808,6.808,0,0,0-1.9,1.012V3.05a6.594,6.594,0,0,1,4.1-1.25A5.567,5.567,0,0,1,56.382,3a4.031,4.031,0,0,1,1.4,3.225,4.043,4.043,0,0,1-.7,2.313A4.355,4.355,0,0,1,55.207,10.1a4.411,4.411,0,0,1,2.237,1.588,4.35,4.35,0,0,1,.813,2.637,4.738,4.738,0,0,1-.725,2.625,4.826,4.826,0,0,1-2.038,1.75A7.051,7.051,0,0,1,52.432,19.325Zm19.525,0a3.787,3.787,0,0,1-1.95-.513,3.723,3.723,0,0,1-1.375-1.388,3.909,3.909,0,0,1-.5-1.975,3.81,3.81,0,0,1,1.9-3.363,3.805,3.805,0,0,1,5.25,1.387,3.909,3.909,0,0,1,.5,1.975,3.874,3.874,0,0,1-1.887,3.363A3.72,3.72,0,0,1,71.957,19.325ZM63.632,9.55a3.787,3.787,0,0,1-1.95-.512A3.723,3.723,0,0,1,60.307,7.65a3.909,3.909,0,0,1-.5-1.975,3.81,3.81,0,0,1,1.9-3.362A3.805,3.805,0,0,1,66.957,3.7a3.909,3.909,0,0,1,.5,1.975,3.874,3.874,0,0,1-1.887,3.363A3.72,3.72,0,0,1,63.632,9.55ZM60.332,19,73.057,2.125h2.2L62.532,19Zm3.3-11a2.053,2.053,0,0,0,1.563-.65,2.344,2.344,0,0,0,.613-1.675,2.355,2.355,0,0,0-.613-1.662A2.188,2.188,0,0,0,62.069,4a2.344,2.344,0,0,0-.612,1.675,2.328,2.328,0,0,0,.625,1.663A2.045,2.045,0,0,0,63.632,8Zm8.325,9.775a2.034,2.034,0,0,0,1.563-.663,2.563,2.563,0,0,0,0-3.325,2.034,2.034,0,0,0-1.562-.663,2.064,2.064,0,0,0-1.55.65,2.317,2.317,0,0,0-.625,1.675,2.328,2.328,0,0,0,.625,1.662A2.045,2.045,0,0,0,71.957,17.775Z" transform="translate(781.695 6498.727)"/>
    <path id="Caminho_1404" data-name="Caminho 1404" d="M17.846,19V4.3q-1.45.7-2.4,1.275a21.415,21.415,0,0,0-1.9,1.3v-2.1a24.253,24.253,0,0,1,2.175-1.463,22.869,22.869,0,0,1,2.3-1.187h2V19Zm5.75,3.35h-1.85a10.188,10.188,0,0,0,2.3-6.35h2.1a9.006,9.006,0,0,1-.65,3.375A9.611,9.611,0,0,1,23.6,22.35Zm9.325-3.025a7.769,7.769,0,0,1-4.325-1.25v-2.05a6.807,6.807,0,0,0,1.95,1.05,6.415,6.415,0,0,0,2.15.4,4.084,4.084,0,0,0,2.888-.962,3.421,3.421,0,0,0,1.038-2.638A3.106,3.106,0,0,0,35.5,11.3a5.01,5.01,0,0,0-3.2-.9,16.42,16.42,0,0,0-3.05.35L30.4,2.125h7.85V4H32.071l-.65,4.875a8.946,8.946,0,0,1,1.85-.175,5.73,5.73,0,0,1,4.05,1.388,4.844,4.844,0,0,1,1.5,3.738,5.533,5.533,0,0,1-.737,2.887,5.056,5.056,0,0,1-2.063,1.925A6.642,6.642,0,0,1,32.921,19.325Zm20,0a3.787,3.787,0,0,1-1.95-.513A3.723,3.723,0,0,1,49.6,17.425a3.909,3.909,0,0,1-.5-1.975A3.81,3.81,0,0,1,51,12.087a3.805,3.805,0,0,1,5.25,1.387,3.909,3.909,0,0,1,.5,1.975,3.874,3.874,0,0,1-1.888,3.363A3.72,3.72,0,0,1,52.921,19.325ZM44.6,9.55a3.787,3.787,0,0,1-1.95-.512A3.723,3.723,0,0,1,41.271,7.65a3.909,3.909,0,0,1-.5-1.975,3.81,3.81,0,0,1,1.9-3.362A3.805,3.805,0,0,1,47.921,3.7a3.909,3.909,0,0,1,.5,1.975,3.874,3.874,0,0,1-1.888,3.363A3.72,3.72,0,0,1,44.6,9.55ZM41.3,19,54.021,2.125h2.2L43.5,19ZM44.6,8a2.053,2.053,0,0,0,1.563-.65,2.344,2.344,0,0,0,.613-1.675,2.355,2.355,0,0,0-.613-1.662A2.188,2.188,0,0,0,43.033,4a2.344,2.344,0,0,0-.612,1.675,2.328,2.328,0,0,0,.625,1.663A2.045,2.045,0,0,0,44.6,8Zm8.325,9.775a2.034,2.034,0,0,0,1.563-.663,2.563,2.563,0,0,0,0-3.325,2.034,2.034,0,0,0-1.562-.663,2.064,2.064,0,0,0-1.55.65,2.317,2.317,0,0,0-.625,1.675,2.328,2.328,0,0,0,.625,1.662A2.045,2.045,0,0,0,52.921,17.775Z" transform="translate(800.695 6626.924)"/>
    <path id="Caminho_1409" data-name="Caminho 1409" d="M8.375,19V15.075H.7V13.25q1.325-2.4,3.163-5.125t4.337-6h2.275v11.15h2.2v1.8h-2.2V19Zm0-5.725v-8.6Q6.5,7.175,5.1,9.287T2.65,13.275Zm6.15,9.075h-1.85a10.188,10.188,0,0,0,2.3-6.35h2.1a9.006,9.006,0,0,1-.65,3.375A9.611,9.611,0,0,1,14.525,22.35ZM26.4,19V15.075H18.725V13.25q1.325-2.4,3.162-5.125t4.338-6H28.5v11.15h2.2v1.8H28.5V19Zm0-5.725v-8.6q-1.875,2.5-3.275,4.613t-2.45,3.988Zm17.9,6.05a3.787,3.787,0,0,1-1.95-.513,3.723,3.723,0,0,1-1.375-1.388,3.909,3.909,0,0,1-.5-1.975,3.81,3.81,0,0,1,1.9-3.363,3.805,3.805,0,0,1,5.25,1.387,3.909,3.909,0,0,1,.5,1.975,3.874,3.874,0,0,1-1.888,3.363A3.72,3.72,0,0,1,44.3,19.325ZM35.975,9.55a3.787,3.787,0,0,1-1.95-.512A3.723,3.723,0,0,1,32.65,7.65a3.909,3.909,0,0,1-.5-1.975,3.81,3.81,0,0,1,1.9-3.362A3.805,3.805,0,0,1,39.3,3.7a3.909,3.909,0,0,1,.5,1.975,3.874,3.874,0,0,1-1.888,3.363A3.72,3.72,0,0,1,35.975,9.55ZM32.675,19,45.4,2.125h2.2L34.875,19Zm3.3-11a2.053,2.053,0,0,0,1.563-.65,2.344,2.344,0,0,0,.612-1.675,2.355,2.355,0,0,0-.612-1.662A2.188,2.188,0,0,0,34.413,4,2.344,2.344,0,0,0,33.8,5.675a2.328,2.328,0,0,0,.625,1.663A2.045,2.045,0,0,0,35.975,8ZM44.3,17.775a2.034,2.034,0,0,0,1.563-.663,2.562,2.562,0,0,0,0-3.325,2.034,2.034,0,0,0-1.562-.663,2.064,2.064,0,0,0-1.55.65,2.317,2.317,0,0,0-.625,1.675,2.328,2.328,0,0,0,.625,1.662A2.045,2.045,0,0,0,44.3,17.775Z" transform="translate(1016 6375.924)" fill="#fff"/>
    <path id="Caminho_1410" data-name="Caminho 1410" d="M5.125,19V4.3q-1.45.7-2.4,1.275a21.415,21.415,0,0,0-1.9,1.3v-2.1A24.253,24.253,0,0,1,3,3.312,22.868,22.868,0,0,1,5.3,2.125h2V19Zm9.575.325a7.769,7.769,0,0,1-4.325-1.25v-2.05a6.807,6.807,0,0,0,1.95,1.05,6.415,6.415,0,0,0,2.15.4,4.084,4.084,0,0,0,2.887-.962A3.421,3.421,0,0,0,18.4,13.875,3.106,3.106,0,0,0,17.275,11.3a5.01,5.01,0,0,0-3.2-.9,16.42,16.42,0,0,0-3.05.35l1.15-8.625h7.85V4H13.85L13.2,8.875A8.946,8.946,0,0,1,15.05,8.7a5.73,5.73,0,0,1,4.05,1.388,4.844,4.844,0,0,1,1.5,3.738,5.533,5.533,0,0,1-.737,2.887A5.056,5.056,0,0,1,17.8,18.638,6.642,6.642,0,0,1,14.7,19.325Zm7.75,3.025H20.6A10.188,10.188,0,0,0,22.9,16H25a9.006,9.006,0,0,1-.65,3.375A9.611,9.611,0,0,1,22.45,22.35ZM27.375,19q1.9-3.725,3.625-7.488T34.15,4h-8.4V2.125h10.5v1.75q-1.375,3.8-3.012,7.587T29.725,19Zm22.175.325a3.787,3.787,0,0,1-1.95-.513,3.723,3.723,0,0,1-1.375-1.388,3.909,3.909,0,0,1-.5-1.975,3.81,3.81,0,0,1,1.9-3.363,3.805,3.805,0,0,1,5.25,1.387,3.909,3.909,0,0,1,.5,1.975,3.874,3.874,0,0,1-1.888,3.363A3.72,3.72,0,0,1,49.55,19.325ZM41.225,9.55a3.787,3.787,0,0,1-1.95-.512A3.723,3.723,0,0,1,37.9,7.65a3.909,3.909,0,0,1-.5-1.975,3.81,3.81,0,0,1,1.9-3.362A3.805,3.805,0,0,1,44.55,3.7a3.909,3.909,0,0,1,.5,1.975,3.874,3.874,0,0,1-1.888,3.363A3.72,3.72,0,0,1,41.225,9.55ZM37.925,19,50.65,2.125h2.2L40.125,19Zm3.3-11a2.053,2.053,0,0,0,1.563-.65A2.344,2.344,0,0,0,43.4,5.675a2.355,2.355,0,0,0-.612-1.662A2.188,2.188,0,0,0,39.663,4a2.344,2.344,0,0,0-.612,1.675,2.328,2.328,0,0,0,.625,1.663A2.045,2.045,0,0,0,41.225,8Zm8.325,9.775a2.034,2.034,0,0,0,1.563-.663,2.562,2.562,0,0,0,0-3.325,2.034,2.034,0,0,0-1.562-.663,2.064,2.064,0,0,0-1.55.65,2.317,2.317,0,0,0-.625,1.675A2.328,2.328,0,0,0,48,17.112,2.045,2.045,0,0,0,49.55,17.775Z" transform="translate(1016 6498.727)" fill="#fff"/>
    <path id="Caminho_1411" data-name="Caminho 1411" d="M6.8,19.325a5.005,5.005,0,0,1-4.388-2.3A11.388,11.388,0,0,1,.85,10.575,11.513,11.513,0,0,1,2.4,4.1,4.975,4.975,0,0,1,6.775,1.8a5.013,5.013,0,0,1,4.387,2.287,11.378,11.378,0,0,1,1.563,6.463,11.524,11.524,0,0,1-1.55,6.463A4.967,4.967,0,0,1,6.8,19.325Zm0-1.9a2.974,2.974,0,0,0,2.713-1.8,10.923,10.923,0,0,0,.962-5.075A11.105,11.105,0,0,0,9.538,5.5a2.982,2.982,0,0,0-5.475,0A10.923,10.923,0,0,0,3.1,10.575a10.979,10.979,0,0,0,.95,5.05A2.982,2.982,0,0,0,6.8,17.425Zm7.275,4.925h-1.85a10.188,10.188,0,0,0,2.3-6.35h2.1a9.006,9.006,0,0,1-.65,3.375A9.611,9.611,0,0,1,14.075,22.35ZM23.4,19.325a7.769,7.769,0,0,1-4.325-1.25v-2.05a6.807,6.807,0,0,0,1.95,1.05,6.415,6.415,0,0,0,2.15.4,4.084,4.084,0,0,0,2.887-.962A3.421,3.421,0,0,0,27.1,13.875,3.106,3.106,0,0,0,25.975,11.3a5.01,5.01,0,0,0-3.2-.9,16.42,16.42,0,0,0-3.05.35l1.15-8.625h7.85V4H22.55L21.9,8.875A8.946,8.946,0,0,1,23.75,8.7a5.73,5.73,0,0,1,4.05,1.388,4.844,4.844,0,0,1,1.5,3.738,5.533,5.533,0,0,1-.737,2.887A5.056,5.056,0,0,1,26.5,18.638,6.642,6.642,0,0,1,23.4,19.325Zm20,0a3.787,3.787,0,0,1-1.95-.513,3.723,3.723,0,0,1-1.375-1.388,3.909,3.909,0,0,1-.5-1.975,3.81,3.81,0,0,1,1.9-3.363,3.805,3.805,0,0,1,5.25,1.387,3.909,3.909,0,0,1,.5,1.975,3.874,3.874,0,0,1-1.888,3.363A3.72,3.72,0,0,1,43.4,19.325ZM35.075,9.55a3.787,3.787,0,0,1-1.95-.512A3.723,3.723,0,0,1,31.75,7.65a3.909,3.909,0,0,1-.5-1.975,3.81,3.81,0,0,1,1.9-3.362A3.805,3.805,0,0,1,38.4,3.7a3.909,3.909,0,0,1,.5,1.975,3.874,3.874,0,0,1-1.888,3.363A3.72,3.72,0,0,1,35.075,9.55ZM31.775,19,44.5,2.125h2.2L33.975,19Zm3.3-11a2.053,2.053,0,0,0,1.563-.65,2.344,2.344,0,0,0,.612-1.675,2.355,2.355,0,0,0-.612-1.662A2.188,2.188,0,0,0,33.513,4,2.344,2.344,0,0,0,32.9,5.675a2.328,2.328,0,0,0,.625,1.663A2.045,2.045,0,0,0,35.075,8ZM43.4,17.775a2.034,2.034,0,0,0,1.563-.663,2.562,2.562,0,0,0,0-3.325,2.034,2.034,0,0,0-1.562-.663,2.064,2.064,0,0,0-1.55.65,2.317,2.317,0,0,0-.625,1.675,2.328,2.328,0,0,0,.625,1.662A2.045,2.045,0,0,0,43.4,17.775Z" transform="translate(1016 6626.924)" fill="#fff"/>
    <path id="Caminho_1392" data-name="Caminho 1392" d="M15.69,19V4.3q-1.45.7-2.4,1.275a21.415,21.415,0,0,0-1.9,1.3v-2.1a24.253,24.253,0,0,1,2.175-1.463,22.868,22.868,0,0,1,2.3-1.187h2V19Zm9.375,0V4.3q-1.45.7-2.4,1.275a21.415,21.415,0,0,0-1.9,1.3v-2.1A24.253,24.253,0,0,1,22.94,3.312a22.869,22.869,0,0,1,2.3-1.187h2V19Zm5.75,3.35h-1.85a10.188,10.188,0,0,0,2.3-6.35h2.1a9.006,9.006,0,0,1-.65,3.375A9.611,9.611,0,0,1,30.815,22.35ZM42.69,19V15.075H35.015V13.25q1.325-2.4,3.162-5.125t4.338-6H44.79v11.15h2.2v1.8h-2.2V19Zm0-5.725v-8.6q-1.875,2.5-3.275,4.613t-2.45,3.988Zm17.9,6.05a3.787,3.787,0,0,1-1.95-.513,3.723,3.723,0,0,1-1.375-1.388,3.909,3.909,0,0,1-.5-1.975,3.81,3.81,0,0,1,1.9-3.363,3.805,3.805,0,0,1,5.25,1.387,3.909,3.909,0,0,1,.5,1.975,3.874,3.874,0,0,1-1.887,3.363A3.72,3.72,0,0,1,60.59,19.325ZM52.265,9.55a3.787,3.787,0,0,1-1.95-.512A3.723,3.723,0,0,1,48.94,7.65a3.909,3.909,0,0,1-.5-1.975,3.81,3.81,0,0,1,1.9-3.362A3.805,3.805,0,0,1,55.59,3.7a3.909,3.909,0,0,1,.5,1.975A3.874,3.874,0,0,1,54.2,9.037,3.72,3.72,0,0,1,52.265,9.55ZM48.965,19,61.69,2.125h2.2L51.165,19Zm3.3-11a2.053,2.053,0,0,0,1.563-.65,2.344,2.344,0,0,0,.612-1.675,2.355,2.355,0,0,0-.612-1.662A2.188,2.188,0,0,0,50.7,4a2.344,2.344,0,0,0-.612,1.675,2.328,2.328,0,0,0,.625,1.663A2.045,2.045,0,0,0,52.265,8Zm8.325,9.775a2.034,2.034,0,0,0,1.563-.663,2.562,2.562,0,0,0,0-3.325,2.034,2.034,0,0,0-1.562-.663,2.064,2.064,0,0,0-1.55.65,2.317,2.317,0,0,0-.625,1.675,2.328,2.328,0,0,0,.625,1.662A2.045,2.045,0,0,0,60.59,17.775Z" transform="translate(344 6375.924)"/>
    <path id="Caminho_1398" data-name="Caminho 1398" d="M21.832,19.325a9.592,9.592,0,0,1-2.537-.3,6.77,6.77,0,0,1-2.062-.975v-2.2a7.129,7.129,0,0,0,2.05,1.163,6.564,6.564,0,0,0,2.275.412,4.331,4.331,0,0,0,2.837-.837,2.866,2.866,0,0,0,1.013-2.337,2.834,2.834,0,0,0-.975-2.325,4.4,4.4,0,0,0-2.85-.8H19.957V9.3h1.625a3.66,3.66,0,0,0,2.488-.775,2.734,2.734,0,0,0,.887-2.175,2.477,2.477,0,0,0-.837-1.975,3.338,3.338,0,0,0-2.263-.725,6.44,6.44,0,0,0-2.025.313,6.808,6.808,0,0,0-1.9,1.012V3.05a6.594,6.594,0,0,1,4.1-1.25A5.567,5.567,0,0,1,25.782,3a4.031,4.031,0,0,1,1.4,3.225,4.043,4.043,0,0,1-.7,2.313A4.355,4.355,0,0,1,24.607,10.1a4.411,4.411,0,0,1,2.237,1.588,4.35,4.35,0,0,1,.813,2.637,4.738,4.738,0,0,1-.725,2.625,4.826,4.826,0,0,1-2.038,1.75A7.051,7.051,0,0,1,21.832,19.325Zm13.1,0a4.982,4.982,0,0,1-4.25-1.975,9.36,9.36,0,0,1-1.475-5.675q0-4.775,1.788-7.325A5.892,5.892,0,0,1,36.132,1.8a5.791,5.791,0,0,1,3.125.825v1.95a5.83,5.83,0,0,0-3.1-.925,4.068,4.068,0,0,0-3.562,1.788,9.231,9.231,0,0,0-1.287,5.137,4.222,4.222,0,0,1,1.675-1.638,5.347,5.347,0,0,1,5.038.088A4.662,4.662,0,0,1,39.757,10.9a5.979,5.979,0,0,1,.625,2.8,5.907,5.907,0,0,1-.7,2.912A5.19,5.19,0,0,1,37.757,18.6,5.441,5.441,0,0,1,34.932,19.325Zm.025-1.75a3.087,3.087,0,0,0,2.413-1.05,3.938,3.938,0,0,0,.938-2.725,3.933,3.933,0,0,0-.9-2.712,3.053,3.053,0,0,0-2.4-1.012,3.21,3.21,0,0,0-2.463,1.037,3.76,3.76,0,0,0-.962,2.663,3.952,3.952,0,0,0,.95,2.738A3.108,3.108,0,0,0,34.957,17.575Zm7.4,4.775h-1.85a10.188,10.188,0,0,0,2.3-6.35h2.1a9.006,9.006,0,0,1-.65,3.375A9.611,9.611,0,0,1,42.357,22.35Zm8.825-3.025a5.557,5.557,0,0,1-3.125-.825V16.55a5.745,5.745,0,0,0,3.1.925,4.052,4.052,0,0,0,3.575-1.8,9.32,9.32,0,0,0,1.275-5.125,4.181,4.181,0,0,1-1.7,1.638,5.014,5.014,0,0,1-2.4.587,4.955,4.955,0,0,1-2.6-.675,4.635,4.635,0,0,1-1.75-1.875,5.979,5.979,0,0,1-.625-2.8,5.978,5.978,0,0,1,.7-2.925,5.077,5.077,0,0,1,1.925-1.987A5.516,5.516,0,0,1,52.382,1.8a5.034,5.034,0,0,1,4.225,1.937,9.215,9.215,0,0,1,1.5,5.712q0,4.775-1.788,7.325A5.892,5.892,0,0,1,51.182,19.325Zm1.125-8.275a3.21,3.21,0,0,0,2.463-1.037,3.76,3.76,0,0,0,.963-2.663,3.942,3.942,0,0,0-.95-2.75,3.125,3.125,0,0,0-2.425-1.05A3.087,3.087,0,0,0,49.944,4.6a3.938,3.938,0,0,0-.937,2.725,3.933,3.933,0,0,0,.9,2.713A3.053,3.053,0,0,0,52.307,11.05Zm19.65,8.275a3.787,3.787,0,0,1-1.95-.513,3.723,3.723,0,0,1-1.375-1.388,3.909,3.909,0,0,1-.5-1.975,3.81,3.81,0,0,1,1.9-3.363,3.805,3.805,0,0,1,5.25,1.387,3.909,3.909,0,0,1,.5,1.975,3.874,3.874,0,0,1-1.887,3.363A3.72,3.72,0,0,1,71.957,19.325ZM63.632,9.55a3.787,3.787,0,0,1-1.95-.512A3.723,3.723,0,0,1,60.307,7.65a3.909,3.909,0,0,1-.5-1.975,3.81,3.81,0,0,1,1.9-3.362A3.805,3.805,0,0,1,66.957,3.7a3.909,3.909,0,0,1,.5,1.975,3.874,3.874,0,0,1-1.887,3.363A3.72,3.72,0,0,1,63.632,9.55ZM60.332,19,73.057,2.125h2.2L62.532,19Zm3.3-11a2.053,2.053,0,0,0,1.563-.65,2.344,2.344,0,0,0,.612-1.675,2.355,2.355,0,0,0-.612-1.662A2.188,2.188,0,0,0,62.069,4a2.344,2.344,0,0,0-.612,1.675,2.328,2.328,0,0,0,.625,1.663A2.045,2.045,0,0,0,63.632,8Zm8.325,9.775a2.034,2.034,0,0,0,1.563-.663,2.562,2.562,0,0,0,0-3.325,2.034,2.034,0,0,0-1.562-.663,2.064,2.064,0,0,0-1.55.65,2.317,2.317,0,0,0-.625,1.675,2.328,2.328,0,0,0,.625,1.662A2.045,2.045,0,0,0,71.957,17.775Z" transform="translate(333 6498.727)"/>
    <path id="Caminho_1405" data-name="Caminho 1405" d="M16.7,19V15.075H9.021V13.25q1.325-2.4,3.163-5.125t4.338-6H18.8v11.15H21v1.8H18.8V19Zm0-5.725v-8.6q-1.875,2.5-3.275,4.613t-2.45,3.988Zm6.15,9.075H21A10.188,10.188,0,0,0,23.3,16h2.1a9.006,9.006,0,0,1-.65,3.375A9.611,9.611,0,0,1,22.846,22.35Zm10.3-3.025a5.005,5.005,0,0,1-4.387-2.3,11.388,11.388,0,0,1-1.562-6.45A11.513,11.513,0,0,1,28.746,4.1a4.975,4.975,0,0,1,4.375-2.3,5.013,5.013,0,0,1,4.387,2.287,11.378,11.378,0,0,1,1.563,6.463,11.524,11.524,0,0,1-1.55,6.463A4.967,4.967,0,0,1,33.146,19.325Zm0-1.9a2.974,2.974,0,0,0,2.713-1.8,10.923,10.923,0,0,0,.962-5.075,11.105,11.105,0,0,0-.937-5.05,2.982,2.982,0,0,0-5.475,0,10.923,10.923,0,0,0-.962,5.075,10.979,10.979,0,0,0,.95,5.05A2.982,2.982,0,0,0,33.146,17.425Zm19.775,1.9a3.787,3.787,0,0,1-1.95-.513A3.723,3.723,0,0,1,49.6,17.425a3.909,3.909,0,0,1-.5-1.975A3.81,3.81,0,0,1,51,12.087a3.805,3.805,0,0,1,5.25,1.387,3.909,3.909,0,0,1,.5,1.975,3.874,3.874,0,0,1-1.888,3.363A3.72,3.72,0,0,1,52.921,19.325ZM44.6,9.55a3.787,3.787,0,0,1-1.95-.512A3.723,3.723,0,0,1,41.271,7.65a3.909,3.909,0,0,1-.5-1.975,3.81,3.81,0,0,1,1.9-3.362A3.805,3.805,0,0,1,47.921,3.7a3.909,3.909,0,0,1,.5,1.975,3.874,3.874,0,0,1-1.888,3.363A3.72,3.72,0,0,1,44.6,9.55ZM41.3,19,54.021,2.125h2.2L43.5,19ZM44.6,8a2.053,2.053,0,0,0,1.563-.65,2.344,2.344,0,0,0,.613-1.675,2.355,2.355,0,0,0-.613-1.662A2.188,2.188,0,0,0,43.033,4a2.344,2.344,0,0,0-.612,1.675,2.328,2.328,0,0,0,.625,1.663A2.045,2.045,0,0,0,44.6,8Zm8.325,9.775a2.034,2.034,0,0,0,1.563-.663,2.563,2.563,0,0,0,0-3.325,2.034,2.034,0,0,0-1.562-.663,2.064,2.064,0,0,0-1.55.65,2.317,2.317,0,0,0-.625,1.675,2.328,2.328,0,0,0,.625,1.662A2.045,2.045,0,0,0,52.921,17.775Z" transform="translate(352 6626.924)"/>
    <path id="Caminho_1399" data-name="Caminho 1399" d="M6.575,19.325a4.982,4.982,0,0,1-4.25-1.975A9.36,9.36,0,0,1,.85,11.675Q.85,6.9,2.638,4.35A5.892,5.892,0,0,1,7.775,1.8a5.791,5.791,0,0,1,3.125.825v1.95A5.83,5.83,0,0,0,7.8,3.65,4.068,4.068,0,0,0,4.238,5.438,9.231,9.231,0,0,0,2.95,10.575,4.222,4.222,0,0,1,4.625,8.937,4.973,4.973,0,0,1,7.05,8.35a4.938,4.938,0,0,1,2.613.675A4.662,4.662,0,0,1,11.4,10.9a5.979,5.979,0,0,1,.625,2.8,5.907,5.907,0,0,1-.7,2.912A5.19,5.19,0,0,1,9.4,18.6,5.441,5.441,0,0,1,6.575,19.325Zm.025-1.75a3.087,3.087,0,0,0,2.412-1.05A3.938,3.938,0,0,0,9.95,13.8a3.933,3.933,0,0,0-.9-2.712,3.053,3.053,0,0,0-2.4-1.012,3.21,3.21,0,0,0-2.463,1.037,3.76,3.76,0,0,0-.962,2.663,3.952,3.952,0,0,0,.95,2.738A3.108,3.108,0,0,0,6.6,17.575ZM14,22.35H12.15A10.188,10.188,0,0,0,14.45,16h2.1a9.006,9.006,0,0,1-.65,3.375A9.611,9.611,0,0,1,14,22.35Zm10.65-3.025a6.881,6.881,0,0,1-2.987-.613,4.78,4.78,0,0,1-2-1.7,4.525,4.525,0,0,1-.712-2.538,4.537,4.537,0,0,1,.8-2.7A4.448,4.448,0,0,1,22,10.15a3.914,3.914,0,0,1-2.45-3.875,4.068,4.068,0,0,1,.663-2.3A4.634,4.634,0,0,1,22.05,2.387a6.366,6.366,0,0,1,5.288-.025,4.382,4.382,0,0,1,1.787,1.575,4.232,4.232,0,0,1,.65,2.338,4.169,4.169,0,0,1-.638,2.313,4.4,4.4,0,0,1-1.812,1.562,4.448,4.448,0,0,1,2.25,1.625,4.5,4.5,0,0,1,.8,2.675A4.586,4.586,0,0,1,29.663,17a4.748,4.748,0,0,1-2,1.712A6.943,6.943,0,0,1,24.65,19.325Zm0-1.75a3.646,3.646,0,0,0,2.575-.9,3.049,3.049,0,0,0,.975-2.35,3,3,0,0,0-.975-2.35,3.673,3.673,0,0,0-2.55-.875,3.677,3.677,0,0,0-2.575.887,3.01,3.01,0,0,0-.975,2.338,3.069,3.069,0,0,0,.962,2.35A3.6,3.6,0,0,0,24.65,17.575Zm0-8.225a2.992,2.992,0,0,0,2.175-.8,2.793,2.793,0,0,0,.825-2.1,2.793,2.793,0,0,0-.825-2.1,2.992,2.992,0,0,0-2.175-.8,2.958,2.958,0,0,0-2.15.8,2.825,2.825,0,0,0-.825,2.125A2.762,2.762,0,0,0,22.5,8.55,2.958,2.958,0,0,0,24.65,9.35Zm19.425,9.975a3.787,3.787,0,0,1-1.95-.513,3.723,3.723,0,0,1-1.375-1.388,3.909,3.909,0,0,1-.5-1.975,3.81,3.81,0,0,1,1.9-3.363,3.805,3.805,0,0,1,5.25,1.387,3.909,3.909,0,0,1,.5,1.975,3.874,3.874,0,0,1-1.888,3.363A3.72,3.72,0,0,1,44.075,19.325ZM35.75,9.55a3.787,3.787,0,0,1-1.95-.512A3.723,3.723,0,0,1,32.425,7.65a3.909,3.909,0,0,1-.5-1.975,3.81,3.81,0,0,1,1.9-3.362A3.805,3.805,0,0,1,39.075,3.7a3.909,3.909,0,0,1,.5,1.975,3.874,3.874,0,0,1-1.888,3.363A3.72,3.72,0,0,1,35.75,9.55ZM32.45,19,45.175,2.125h2.2L34.65,19Zm3.3-11a2.053,2.053,0,0,0,1.563-.65,2.344,2.344,0,0,0,.613-1.675,2.355,2.355,0,0,0-.613-1.662A2.188,2.188,0,0,0,34.188,4a2.344,2.344,0,0,0-.612,1.675A2.328,2.328,0,0,0,34.2,7.337,2.045,2.045,0,0,0,35.75,8Zm8.325,9.775a2.034,2.034,0,0,0,1.563-.663,2.563,2.563,0,0,0,0-3.325,2.034,2.034,0,0,0-1.562-.663,2.064,2.064,0,0,0-1.55.65A2.317,2.317,0,0,0,41.9,15.45a2.328,2.328,0,0,0,.625,1.662A2.045,2.045,0,0,0,44.075,17.775Z" transform="translate(567.49 6375.924)" fill="#fff"/>
    <path id="Caminho_1400" data-name="Caminho 1400" d="M5.125,19V4.3q-1.45.7-2.4,1.275a21.415,21.415,0,0,0-1.9,1.3v-2.1A24.253,24.253,0,0,1,3,3.312,22.868,22.868,0,0,1,5.3,2.125h2V19Zm10.9.325a6.881,6.881,0,0,1-2.987-.613,4.78,4.78,0,0,1-2-1.7,4.525,4.525,0,0,1-.713-2.538,4.537,4.537,0,0,1,.8-2.7,4.448,4.448,0,0,1,2.25-1.625,3.914,3.914,0,0,1-2.45-3.875,4.068,4.068,0,0,1,.662-2.3,4.634,4.634,0,0,1,1.838-1.588,5.844,5.844,0,0,1,2.65-.587,5.879,5.879,0,0,1,2.638.562A4.382,4.382,0,0,1,20.5,3.937a4.232,4.232,0,0,1,.65,2.338,4.169,4.169,0,0,1-.638,2.313A4.4,4.4,0,0,1,18.7,10.15a4.448,4.448,0,0,1,2.25,1.625,4.5,4.5,0,0,1,.8,2.675A4.586,4.586,0,0,1,21.038,17a4.748,4.748,0,0,1-2,1.712A6.943,6.943,0,0,1,16.025,19.325Zm0-1.75a3.646,3.646,0,0,0,2.575-.9,3.049,3.049,0,0,0,.975-2.35,3,3,0,0,0-.975-2.35,3.673,3.673,0,0,0-2.55-.875,3.677,3.677,0,0,0-2.575.887,3.01,3.01,0,0,0-.975,2.338,3.069,3.069,0,0,0,.962,2.35A3.6,3.6,0,0,0,16.025,17.575Zm0-8.225a2.992,2.992,0,0,0,2.175-.8,2.793,2.793,0,0,0,.825-2.1,2.793,2.793,0,0,0-.825-2.1,2.992,2.992,0,0,0-2.175-.8,2.958,2.958,0,0,0-2.15.8,2.825,2.825,0,0,0-.825,2.125,2.762,2.762,0,0,0,.825,2.075A2.958,2.958,0,0,0,16.025,9.35Zm7.675,13H21.85A10.188,10.188,0,0,0,24.15,16h2.1a9.006,9.006,0,0,1-.65,3.375A9.611,9.611,0,0,1,23.7,22.35Zm9.55-3.025a9.592,9.592,0,0,1-2.537-.3,6.77,6.77,0,0,1-2.062-.975v-2.2a7.129,7.129,0,0,0,2.05,1.163,6.564,6.564,0,0,0,2.275.412,4.331,4.331,0,0,0,2.837-.837,2.866,2.866,0,0,0,1.013-2.337,2.834,2.834,0,0,0-.975-2.325,4.4,4.4,0,0,0-2.85-.8H31.375V9.3H33a3.66,3.66,0,0,0,2.488-.775,2.734,2.734,0,0,0,.887-2.175,2.477,2.477,0,0,0-.837-1.975,3.338,3.338,0,0,0-2.263-.725,6.44,6.44,0,0,0-2.025.313,6.808,6.808,0,0,0-1.9,1.012V3.05a6.594,6.594,0,0,1,4.1-1.25A5.567,5.567,0,0,1,37.2,3a4.031,4.031,0,0,1,1.4,3.225,4.043,4.043,0,0,1-.7,2.313A4.355,4.355,0,0,1,36.025,10.1a4.411,4.411,0,0,1,2.237,1.588,4.35,4.35,0,0,1,.813,2.637,4.738,4.738,0,0,1-.725,2.625,4.826,4.826,0,0,1-2.038,1.75A7.051,7.051,0,0,1,33.25,19.325Zm19.525,0a3.787,3.787,0,0,1-1.95-.513,3.723,3.723,0,0,1-1.375-1.388,3.909,3.909,0,0,1-.5-1.975,3.81,3.81,0,0,1,1.9-3.363,3.805,3.805,0,0,1,5.25,1.387,3.909,3.909,0,0,1,.5,1.975,3.874,3.874,0,0,1-1.888,3.363A3.72,3.72,0,0,1,52.775,19.325ZM44.45,9.55a3.787,3.787,0,0,1-1.95-.512A3.723,3.723,0,0,1,41.125,7.65a3.909,3.909,0,0,1-.5-1.975,3.81,3.81,0,0,1,1.9-3.362A3.805,3.805,0,0,1,47.775,3.7a3.909,3.909,0,0,1,.5,1.975,3.874,3.874,0,0,1-1.888,3.363A3.72,3.72,0,0,1,44.45,9.55ZM41.15,19,53.875,2.125h2.2L43.35,19Zm3.3-11a2.053,2.053,0,0,0,1.563-.65,2.344,2.344,0,0,0,.612-1.675,2.355,2.355,0,0,0-.612-1.662A2.188,2.188,0,0,0,42.888,4a2.344,2.344,0,0,0-.612,1.675A2.328,2.328,0,0,0,42.9,7.337,2.045,2.045,0,0,0,44.45,8Zm8.325,9.775a2.034,2.034,0,0,0,1.563-.663,2.562,2.562,0,0,0,0-3.325,2.034,2.034,0,0,0-1.562-.663,2.064,2.064,0,0,0-1.55.65A2.317,2.317,0,0,0,50.6,15.45a2.328,2.328,0,0,0,.625,1.662A2.045,2.045,0,0,0,52.775,17.775Z" transform="translate(567.49 6498.727)" fill="#fff"/>
    <path id="Caminho_1406" data-name="Caminho 1406" d="M5.125,19V4.3q-1.45.7-2.4,1.275a21.415,21.415,0,0,0-1.9,1.3v-2.1A24.253,24.253,0,0,1,3,3.312,22.868,22.868,0,0,1,5.3,2.125h2V19Zm5.75,3.35H9.025a10.188,10.188,0,0,0,2.3-6.35h2.1a9.006,9.006,0,0,1-.65,3.375A9.611,9.611,0,0,1,10.875,22.35ZM20.2,19.325a7.769,7.769,0,0,1-4.325-1.25v-2.05a6.807,6.807,0,0,0,1.95,1.05,6.415,6.415,0,0,0,2.15.4,4.084,4.084,0,0,0,2.887-.962A3.421,3.421,0,0,0,23.9,13.875,3.106,3.106,0,0,0,22.775,11.3a5.01,5.01,0,0,0-3.2-.9,16.42,16.42,0,0,0-3.05.35l1.15-8.625h7.85V4H19.35L18.7,8.875A8.946,8.946,0,0,1,20.55,8.7a5.73,5.73,0,0,1,4.05,1.388,4.844,4.844,0,0,1,1.5,3.738,5.533,5.533,0,0,1-.737,2.887A5.056,5.056,0,0,1,23.3,18.638,6.642,6.642,0,0,1,20.2,19.325Zm20,0a3.787,3.787,0,0,1-1.95-.513,3.723,3.723,0,0,1-1.375-1.388,3.909,3.909,0,0,1-.5-1.975,3.81,3.81,0,0,1,1.9-3.363,3.805,3.805,0,0,1,5.25,1.387,3.909,3.909,0,0,1,.5,1.975,3.874,3.874,0,0,1-1.888,3.363A3.72,3.72,0,0,1,40.2,19.325ZM31.875,9.55a3.787,3.787,0,0,1-1.95-.512A3.723,3.723,0,0,1,28.55,7.65a3.909,3.909,0,0,1-.5-1.975,3.81,3.81,0,0,1,1.9-3.362A3.805,3.805,0,0,1,35.2,3.7a3.909,3.909,0,0,1,.5,1.975,3.874,3.874,0,0,1-1.888,3.363A3.72,3.72,0,0,1,31.875,9.55ZM28.575,19,41.3,2.125h2.2L30.775,19Zm3.3-11a2.053,2.053,0,0,0,1.563-.65,2.344,2.344,0,0,0,.613-1.675,2.355,2.355,0,0,0-.613-1.662A2.188,2.188,0,0,0,30.313,4,2.344,2.344,0,0,0,29.7,5.675a2.328,2.328,0,0,0,.625,1.663A2.045,2.045,0,0,0,31.875,8ZM40.2,17.775a2.034,2.034,0,0,0,1.563-.663,2.563,2.563,0,0,0,0-3.325,2.034,2.034,0,0,0-1.562-.663,2.064,2.064,0,0,0-1.55.65,2.317,2.317,0,0,0-.625,1.675,2.328,2.328,0,0,0,.625,1.662A2.045,2.045,0,0,0,40.2,17.775Z" transform="translate(567.49 6626.924)" fill="#fff"/>
    <path id="Caminho_1412" data-name="Caminho 1412" d="M5.075,19H1.45V2.125H4.9l6.8,10.6V2.125h3.625V19H11.85L5.075,8.7Zm19.2.325a6.7,6.7,0,0,1-5-1.825,6.88,6.88,0,0,1-1.8-5.05,7.794,7.794,0,0,1,.775-3.575,5.856,5.856,0,0,1,2.175-2.387,6.069,6.069,0,0,1,3.25-.863A5.18,5.18,0,0,1,27.8,7.35a7,7,0,0,1,1.5,4.75v1.625H21.15q.6,2.65,3.65,2.65a7.473,7.473,0,0,0,1.95-.263,6.229,6.229,0,0,0,1.725-.737V18.3a5.951,5.951,0,0,1-1.837.75A9.817,9.817,0,0,1,24.275,19.325ZM21.1,11.2h4.7a3.28,3.28,0,0,0-.65-2.038A2.042,2.042,0,0,0,23.5,8.45Q21.45,8.45,21.1,11.2ZM36.375,23.95a8.936,8.936,0,0,1-2.288-.3,8.314,8.314,0,0,1-2.013-.8V19.775a6.5,6.5,0,0,0,1.825.813,7.473,7.473,0,0,0,2.025.288q3.525,0,3.525-3.5V17.25a4.265,4.265,0,0,1-3.425,1.5,5.031,5.031,0,0,1-2.825-.788,5.176,5.176,0,0,1-1.862-2.225,7.964,7.964,0,0,1-.662-3.363,8.545,8.545,0,0,1,.688-3.563A5.476,5.476,0,0,1,33.3,6.462a5.174,5.174,0,0,1,2.95-.838,4.178,4.178,0,0,1,3.625,1.75l.2-1.425H43.25V16.975a7.042,7.042,0,0,1-1.788,5.163A6.827,6.827,0,0,1,36.375,23.95Zm.7-8.1a2.064,2.064,0,0,0,1.8-.95,4.5,4.5,0,0,0,.65-2.575,4.654,4.654,0,0,0-.663-2.65A2.08,2.08,0,0,0,37.05,8.7a2.149,2.149,0,0,0-1.85.95,4.516,4.516,0,0,0-.675,2.65,4.31,4.31,0,0,0,.7,2.588A2.181,2.181,0,0,0,37.075,15.85ZM45.8,19V5.95h3.325l.25,1.875a4.1,4.1,0,0,1,1.262-1.55A2.809,2.809,0,0,1,52.325,5.7a2.5,2.5,0,0,1,1,.175V9.4a2.38,2.38,0,0,0-1.075-.225,2.411,2.411,0,0,0-1.937.837,3.457,3.457,0,0,0-.713,2.312V19Zm14.775.325a6.491,6.491,0,0,1-3.35-.838,5.7,5.7,0,0,1-2.213-2.375,7.826,7.826,0,0,1-.787-3.612,7.9,7.9,0,0,1,.787-3.625,5.74,5.74,0,0,1,2.225-2.4,7.047,7.047,0,0,1,6.688-.012,5.7,5.7,0,0,1,2.212,2.375,7.826,7.826,0,0,1,.787,3.612,7.9,7.9,0,0,1-.787,3.625,5.766,5.766,0,0,1-2.212,2.4A6.416,6.416,0,0,1,60.575,19.325Zm0-3.075a2.1,2.1,0,0,0,1.838-.988,4.924,4.924,0,0,0,.662-2.762,5.041,5.041,0,0,0-.662-2.8,2.2,2.2,0,0,0-3.675-.013,4.923,4.923,0,0,0-.663,2.762,5.041,5.041,0,0,0,.663,2.8A2.088,2.088,0,0,0,60.575,16.25ZM72.7,19.325a10.687,10.687,0,0,1-2.325-.25A7.258,7.258,0,0,1,68.4,18.35V15.375a7.027,7.027,0,0,0,1.862.8,7.742,7.742,0,0,0,2.038.275q2,0,2-1.225a.957.957,0,0,0-.513-.825,8.247,8.247,0,0,0-1.987-.725q-3.45-.975-3.45-3.95A3.531,3.531,0,0,1,69.863,6.75,6.61,6.61,0,0,1,73.9,5.625a8.559,8.559,0,0,1,1.838.2,5.6,5.6,0,0,1,1.537.55V9.3A6.946,6.946,0,0,0,74,8.5q-1.925,0-1.925,1.125a.892.892,0,0,0,.475.775,8.314,8.314,0,0,0,1.9.7,5.637,5.637,0,0,1,2.8,1.512,3.72,3.72,0,0,1,.875,2.563,3.63,3.63,0,0,1-1.45,3.025A6.331,6.331,0,0,1,72.7,19.325Zm32.45,4.425h-3.275V.375h3.275ZM133.975,19V2.125h5.775a7.9,7.9,0,0,1,4.612,1.2,3.769,3.769,0,0,1,1.713,3.25,3.661,3.661,0,0,1-2.225,3.463,4.6,4.6,0,0,1,2.1,1.567,4.015,4.015,0,0,1,.725,2.4,4.244,4.244,0,0,1-1.862,3.7A9.214,9.214,0,0,1,139.5,19Zm3.8-3H139.7q3.025,0,3.025-2.175a1.7,1.7,0,0,0-.75-1.475,3.622,3.622,0,0,0-2.1-.525h-2.1Zm0-7.075h1.975a2.952,2.952,0,0,0,1.837-.525,1.673,1.673,0,0,0,.688-1.4,1.665,1.665,0,0,0-.625-1.375,2.779,2.779,0,0,0-1.775-.5h-2.1ZM148.7,19V5.95h3.325l.25,1.875a4.1,4.1,0,0,1,1.262-1.55,2.809,2.809,0,0,1,1.688-.575,2.5,2.5,0,0,1,1,.175V9.4a2.38,2.38,0,0,0-1.075-.225,2.411,2.411,0,0,0-1.937.837,3.457,3.457,0,0,0-.713,2.312V19Zm12.725.325a4.512,4.512,0,0,1-3.1-1.038A3.532,3.532,0,0,1,157.15,15.5a4.018,4.018,0,0,1,1.725-3.463A8.265,8.265,0,0,1,163.75,10.8q.275,0,.55.012t.55.037q-.25-2.2-2.825-2.2a6.227,6.227,0,0,0-3.7,1.175V6.85a7.215,7.215,0,0,1,4.325-1.225,5.878,5.878,0,0,1,4.3,1.475,5.661,5.661,0,0,1,1.5,4.225V19h-3.1l-.2-1.375a3.834,3.834,0,0,1-1.562,1.25A5.153,5.153,0,0,1,161.425,19.325Zm3.45-6.125q-.375-.025-.95-.025a4.733,4.733,0,0,0-2.363.488,1.527,1.527,0,0,0-.838,1.387,1.565,1.565,0,0,0,.5,1.225,1.906,1.906,0,0,0,1.325.45,2.2,2.2,0,0,0,1.65-.7,2.39,2.39,0,0,0,.675-1.725Zm6.05,5.8V5.95h3.325l.2,1.5a4.427,4.427,0,0,1,3.775-1.825,4.134,4.134,0,0,1,3.275,1.4,5.416,5.416,0,0,1,1.225,3.7V19h-3.8V11.325q0-2.55-2.05-2.55a1.944,1.944,0,0,0-1.575.688,2.812,2.812,0,0,0-.575,1.863V19Zm20.3.325a7.059,7.059,0,0,1-3.5-.825,5.686,5.686,0,0,1-2.288-2.362,7.682,7.682,0,0,1-.812-3.638,7.368,7.368,0,0,1,.85-3.6,6.093,6.093,0,0,1,2.363-2.413,6.967,6.967,0,0,1,3.512-.863,6.81,6.81,0,0,1,1.75.225,4.265,4.265,0,0,1,1.35.575V9.5a4.273,4.273,0,0,0-2.625-.8,3.141,3.141,0,0,0-2.462.988,3.988,3.988,0,0,0-.887,2.762,4.022,4.022,0,0,0,.912,2.775,3.131,3.131,0,0,0,2.463,1.025,4.3,4.3,0,0,0,2.75-.85v3.05a4.34,4.34,0,0,1-1.45.637A7.52,7.52,0,0,1,191.225,19.325Zm11.175,0a6.491,6.491,0,0,1-3.35-.838,5.7,5.7,0,0,1-2.212-2.375,7.826,7.826,0,0,1-.788-3.612,7.9,7.9,0,0,1,.788-3.625,5.74,5.74,0,0,1,2.225-2.4,7.047,7.047,0,0,1,6.688-.012,5.7,5.7,0,0,1,2.213,2.375,7.826,7.826,0,0,1,.787,3.612,7.9,7.9,0,0,1-.787,3.625,5.766,5.766,0,0,1-2.213,2.4A6.416,6.416,0,0,1,202.4,19.325Zm0-3.075a2.1,2.1,0,0,0,1.837-.988A4.924,4.924,0,0,0,204.9,12.5a5.041,5.041,0,0,0-.663-2.8,2.2,2.2,0,0,0-3.675-.013,4.924,4.924,0,0,0-.662,2.762,5.041,5.041,0,0,0,.662,2.8A2.088,2.088,0,0,0,202.4,16.25Zm12.125,3.075a10.687,10.687,0,0,1-2.325-.25,7.258,7.258,0,0,1-1.975-.725V15.375a7.027,7.027,0,0,0,1.863.8,7.742,7.742,0,0,0,2.038.275q2,0,2-1.225a.957.957,0,0,0-.512-.825,8.247,8.247,0,0,0-1.988-.725q-3.45-.975-3.45-3.95a3.531,3.531,0,0,1,1.512-2.975,6.61,6.61,0,0,1,4.037-1.125,8.559,8.559,0,0,1,1.838.2,5.6,5.6,0,0,1,1.537.55V9.3a6.946,6.946,0,0,0-3.275-.8q-1.925,0-1.925,1.125a.892.892,0,0,0,.475.775,8.314,8.314,0,0,0,1.9.7,5.637,5.637,0,0,1,2.8,1.512,3.72,3.72,0,0,1,.875,2.563A3.631,3.631,0,0,1,218.5,18.2,6.331,6.331,0,0,1,214.525,19.325Z" transform="translate(382.986 6723.604)"/>
  </g>
</svg>
