<svg xmlns="http://www.w3.org/2000/svg" width="1069.031" height="494" viewBox="0 0 1069.031 494">
  <g id="Grupo_1791" data-name="Grupo 1791" transform="translate(-110.168 -7067)">
    <g id="Grupo_1783" data-name="Grupo 1783" transform="translate(82.199)" opacity="0.73">
      <line id="Linha_191" data-name="Linha 191" x2="973.73" transform="translate(122.27 7117.662)" fill="none" stroke="#b7b7b7" stroke-linecap="round" stroke-width="2"/>
      <line id="Linha_192" data-name="Linha 192" x2="973.73" transform="translate(122.27 7165.662)" fill="none" stroke="#b7b7b7" stroke-linecap="round" stroke-width="2"/>
      <line id="Linha_193" data-name="Linha 193" x2="973.73" transform="translate(122.27 7212.662)" fill="none" stroke="#b7b7b7" stroke-linecap="round" stroke-width="2"/>
      <line id="Linha_194" data-name="Linha 194" x2="973.73" transform="translate(122.27 7260.662)" fill="none" stroke="#b7b7b7" stroke-linecap="round" stroke-width="2"/>
      <line id="Linha_195" data-name="Linha 195" x2="973.73" transform="translate(122.27 7307.662)" fill="none" stroke="#b7b7b7" stroke-linecap="round" stroke-width="2"/>
      <line id="Linha_196" data-name="Linha 196" x2="973.73" transform="translate(122.27 7355.661)" fill="none" stroke="#b7b7b7" stroke-linecap="round" stroke-width="2"/>
      <line id="Linha_197" data-name="Linha 197" x2="973.73" transform="translate(122.27 7402.661)" fill="none" stroke="#b7b7b7" stroke-linecap="round" stroke-width="2"/>
    </g>
    <path id="Caminho_1424" data-name="Caminho 1424" d="M0,0V334" transform="translate(691.969 7068.5)" fill="none" stroke="#0e295b" stroke-linecap="round" stroke-width="3"/>
    <path id="Caminho_1419" data-name="Caminho 1419" d="M0,0H82V129H0Z" transform="translate(252.469 7274)" fill="#8696bc"/>
    <path id="Caminho_1429" data-name="Caminho 1429" d="M0,0H82V65H0Z" transform="translate(350.469 7338)" fill="#0e295b"/>
    <path id="Caminho_1414" data-name="Caminho 1414" d="M0,0H82V264H0Z" transform="translate(481.469 7139)" fill="#8696bc"/>
    <path id="Caminho_1420" data-name="Caminho 1420" d="M0,0H82V168H0Z" transform="translate(579.469 7235)" fill="#0e295b"/>
    <path id="Caminho_1413" data-name="Caminho 1413" d="M47.262,19H43.637V2.125h3.45l6.8,10.6V2.125h3.625V19H54.037L47.262,8.7Zm12.975,0V5.95h3.8V19ZM66.987.375l-3.5,3.975h-3.3L62.912.375ZM74.012,19h-3.7a65.319,65.319,0,0,1-2.775-6.538,60.916,60.916,0,0,1-1.95-6.512h4.1q.4,2.35.988,4.712a40.261,40.261,0,0,0,1.512,4.762,45.378,45.378,0,0,0,1.5-4.762q.6-2.362,1-4.712h4.05a55.407,55.407,0,0,1-1.9,6.437A64.27,64.27,0,0,1,74.012,19Zm11.9.325a6.7,6.7,0,0,1-5-1.825,6.88,6.88,0,0,1-1.8-5.05,7.794,7.794,0,0,1,.775-3.575,5.856,5.856,0,0,1,2.175-2.387,6.069,6.069,0,0,1,3.25-.863A5.18,5.18,0,0,1,89.437,7.35a7,7,0,0,1,1.5,4.75v1.625h-8.15q.6,2.65,3.65,2.65a7.472,7.472,0,0,0,1.95-.263,6.229,6.229,0,0,0,1.725-.737V18.3a5.951,5.951,0,0,1-1.838.75A9.817,9.817,0,0,1,85.912,19.325ZM82.737,11.2h4.7a3.28,3.28,0,0,0-.65-2.038,2.042,2.042,0,0,0-1.65-.712Q83.087,8.45,82.737,11.2ZM92.887,19V1h3.8V19Zm15.325.325a10.5,10.5,0,0,1-5.15-1.175V14.775a12.768,12.768,0,0,0,2.35.975,7.877,7.877,0,0,0,2.25.35q2.8,0,2.8-1.85a1.486,1.486,0,0,0-.3-.937,3.044,3.044,0,0,0-1.05-.763,16.748,16.748,0,0,0-2.1-.825,6.37,6.37,0,0,1-2.937-1.863,4.291,4.291,0,0,1-1.013-2.838,4.811,4.811,0,0,1,.8-2.775,5.14,5.14,0,0,1,2.262-1.812,8.549,8.549,0,0,1,3.438-.638,9.055,9.055,0,0,1,2.05.237,7.243,7.243,0,0,1,1.775.638v3.25a7.232,7.232,0,0,0-3.675-.95,3.636,3.636,0,0,0-1.988.45,1.46,1.46,0,0,0-.687,1.3,1.414,1.414,0,0,0,.688,1.2,11.306,11.306,0,0,0,2.563,1.1q4.25,1.4,4.25,4.975a4.811,4.811,0,0,1-1.712,3.888A6.945,6.945,0,0,1,108.212,19.325Zm14.2,0a6.491,6.491,0,0,1-3.35-.838,5.7,5.7,0,0,1-2.212-2.375,7.826,7.826,0,0,1-.788-3.612,7.9,7.9,0,0,1,.788-3.625,5.74,5.74,0,0,1,2.225-2.4,7.047,7.047,0,0,1,6.688-.012,5.7,5.7,0,0,1,2.213,2.375,7.826,7.826,0,0,1,.787,3.612,7.9,7.9,0,0,1-.787,3.625,5.766,5.766,0,0,1-2.213,2.4A6.416,6.416,0,0,1,122.412,19.325Zm0-3.075a2.1,2.1,0,0,0,1.838-.988,4.924,4.924,0,0,0,.662-2.762,5.041,5.041,0,0,0-.662-2.8,2.2,2.2,0,0,0-3.675-.013,4.924,4.924,0,0,0-.662,2.762,5.041,5.041,0,0,0,.662,2.8A2.088,2.088,0,0,0,122.412,16.25Zm14.35,3.075a7.059,7.059,0,0,1-3.5-.825,5.686,5.686,0,0,1-2.288-2.362,7.682,7.682,0,0,1-.812-3.638,7.368,7.368,0,0,1,.85-3.6,6.093,6.093,0,0,1,2.363-2.413,6.967,6.967,0,0,1,3.512-.863,6.81,6.81,0,0,1,1.75.225,4.265,4.265,0,0,1,1.35.575V9.5a4.273,4.273,0,0,0-2.625-.8,3.141,3.141,0,0,0-2.462.988,3.988,3.988,0,0,0-.887,2.762,4.022,4.022,0,0,0,.912,2.775,3.131,3.131,0,0,0,2.463,1.025,4.3,4.3,0,0,0,2.75-.85v3.05a4.34,4.34,0,0,1-1.45.637A7.52,7.52,0,0,1,136.762,19.325Zm5.7-.325V5.95h3.8V19Zm1.9-14.575a2.17,2.17,0,0,1-1.562-.613,2.043,2.043,0,0,1-.637-1.538A2.043,2.043,0,0,1,142.8.737a2.315,2.315,0,0,1,3.137,0,2.064,2.064,0,0,1,.625,1.538,2.064,2.064,0,0,1-.625,1.538A2.158,2.158,0,0,1,144.362,4.425Zm10.225,14.9a6.491,6.491,0,0,1-3.35-.838,5.7,5.7,0,0,1-2.212-2.375,7.826,7.826,0,0,1-.788-3.612,7.9,7.9,0,0,1,.788-3.625,5.74,5.74,0,0,1,2.225-2.4,7.047,7.047,0,0,1,6.688-.012,5.7,5.7,0,0,1,2.213,2.375,7.826,7.826,0,0,1,.787,3.612,7.9,7.9,0,0,1-.787,3.625,5.766,5.766,0,0,1-2.213,2.4A6.416,6.416,0,0,1,154.587,19.325Zm0-3.075a2.1,2.1,0,0,0,1.837-.988,4.924,4.924,0,0,0,.663-2.762,5.041,5.041,0,0,0-.663-2.8,2.2,2.2,0,0,0-3.675-.013,4.924,4.924,0,0,0-.662,2.762,5.041,5.041,0,0,0,.662,2.8A2.088,2.088,0,0,0,154.587,16.25Zm14.55,3.075a6.7,6.7,0,0,1-5-1.825,6.88,6.88,0,0,1-1.8-5.05,7.794,7.794,0,0,1,.775-3.575,5.856,5.856,0,0,1,2.175-2.387,6.069,6.069,0,0,1,3.25-.863,5.18,5.18,0,0,1,4.125,1.725,7,7,0,0,1,1.5,4.75v1.625h-8.15q.6,2.65,3.65,2.65a7.473,7.473,0,0,0,1.95-.263,6.229,6.229,0,0,0,1.725-.737V18.3a5.951,5.951,0,0,1-1.837.75A9.817,9.817,0,0,1,169.137,19.325ZM165.962,11.2h4.7a3.28,3.28,0,0,0-.65-2.038,2.042,2.042,0,0,0-1.65-.712Q166.312,8.45,165.962,11.2Zm16.175,8.125a7.059,7.059,0,0,1-3.5-.825,5.686,5.686,0,0,1-2.288-2.362,7.682,7.682,0,0,1-.812-3.638,7.368,7.368,0,0,1,.85-3.6,6.093,6.093,0,0,1,2.363-2.413,6.967,6.967,0,0,1,3.512-.863,6.81,6.81,0,0,1,1.75.225,4.265,4.265,0,0,1,1.35.575V9.5a4.273,4.273,0,0,0-2.625-.8,3.141,3.141,0,0,0-2.462.988,3.988,3.988,0,0,0-.887,2.762,4.022,4.022,0,0,0,.912,2.775,3.131,3.131,0,0,0,2.463,1.025,4.3,4.3,0,0,0,2.75-.85v3.05a4.34,4.34,0,0,1-1.45.637A7.52,7.52,0,0,1,182.137,19.325Zm11.175,0a6.491,6.491,0,0,1-3.35-.838,5.7,5.7,0,0,1-2.212-2.375,7.826,7.826,0,0,1-.788-3.612,7.9,7.9,0,0,1,.788-3.625,5.74,5.74,0,0,1,2.225-2.4,7.047,7.047,0,0,1,6.688-.012,5.7,5.7,0,0,1,2.213,2.375,7.826,7.826,0,0,1,.787,3.612,7.9,7.9,0,0,1-.787,3.625,5.766,5.766,0,0,1-2.213,2.4A6.416,6.416,0,0,1,193.312,19.325Zm0-3.075a2.1,2.1,0,0,0,1.837-.988,4.924,4.924,0,0,0,.663-2.762,5.041,5.041,0,0,0-.663-2.8,2.2,2.2,0,0,0-3.675-.013,4.924,4.924,0,0,0-.662,2.762,5.041,5.041,0,0,0,.662,2.8A2.088,2.088,0,0,0,193.312,16.25ZM201.637,19V5.95h3.325l.2,1.5a4.427,4.427,0,0,1,3.775-1.825,4.134,4.134,0,0,1,3.275,1.4,5.416,5.416,0,0,1,1.225,3.7V19h-3.8V11.325q0-2.55-2.05-2.55a1.944,1.944,0,0,0-1.575.688,2.812,2.812,0,0,0-.575,1.863V19Zm20.05.325a6.491,6.491,0,0,1-3.35-.838,5.7,5.7,0,0,1-2.212-2.375,7.826,7.826,0,0,1-.788-3.612,7.9,7.9,0,0,1,.788-3.625,5.74,5.74,0,0,1,2.225-2.4,7.047,7.047,0,0,1,6.688-.012,5.7,5.7,0,0,1,2.213,2.375,7.826,7.826,0,0,1,.787,3.612,7.9,7.9,0,0,1-.787,3.625,5.766,5.766,0,0,1-2.213,2.4A6.416,6.416,0,0,1,221.687,19.325Zm0-3.075a2.1,2.1,0,0,0,1.837-.988,4.924,4.924,0,0,0,.663-2.762,5.041,5.041,0,0,0-.663-2.8,2.2,2.2,0,0,0-3.675-.013,4.924,4.924,0,0,0-.662,2.762,5.041,5.041,0,0,0,.662,2.8A2.088,2.088,0,0,0,221.687,16.25Zm4.525-11.9h-2.85l-1.675-2.025L220.012,4.35h-2.85L220.137.375h3.1Zm3.8,14.65V5.95h3.325l.175,1.325a4.2,4.2,0,0,1,1.513-1.225,4.485,4.485,0,0,1,1.962-.425,3.755,3.755,0,0,1,3.45,2.05,4.728,4.728,0,0,1,1.688-1.513,4.856,4.856,0,0,1,2.313-.538,3.823,3.823,0,0,1,3.012,1.288,5,5,0,0,1,1.138,3.438V19h-3.8V10.95q0-2.175-1.725-2.175a1.7,1.7,0,0,0-1.35.575,2.359,2.359,0,0,0-.5,1.6V19h-3.8V10.95q0-2.175-1.75-2.175a1.7,1.7,0,0,0-1.35.575,2.359,2.359,0,0,0-.5,1.6V19Zm21.05,0V5.95h3.8V19Zm1.9-14.575a2.17,2.17,0,0,1-1.562-.613,2.043,2.043,0,0,1-.637-1.538A2.043,2.043,0,0,1,251.4.737a2.315,2.315,0,0,1,3.137,0,2.064,2.064,0,0,1,.625,1.538,2.064,2.064,0,0,1-.625,1.538A2.158,2.158,0,0,1,252.962,4.425Zm10.475,14.9a7.059,7.059,0,0,1-3.5-.825,5.686,5.686,0,0,1-2.287-2.362,7.682,7.682,0,0,1-.812-3.638,7.368,7.368,0,0,1,.85-3.6,6.093,6.093,0,0,1,2.363-2.413,6.967,6.967,0,0,1,3.512-.863,6.81,6.81,0,0,1,1.75.225,4.265,4.265,0,0,1,1.35.575V9.5a4.273,4.273,0,0,0-2.625-.8,3.141,3.141,0,0,0-2.462.988,3.988,3.988,0,0,0-.888,2.762,4.022,4.022,0,0,0,.913,2.775,3.131,3.131,0,0,0,2.462,1.025,4.3,4.3,0,0,0,2.75-.85v3.05a4.34,4.34,0,0,1-1.45.637A7.52,7.52,0,0,1,263.437,19.325Zm11.175,0a6.491,6.491,0,0,1-3.35-.838,5.7,5.7,0,0,1-2.213-2.375,7.826,7.826,0,0,1-.787-3.612,7.9,7.9,0,0,1,.787-3.625,5.74,5.74,0,0,1,2.225-2.4,7.047,7.047,0,0,1,6.688-.012,5.7,5.7,0,0,1,2.212,2.375,7.826,7.826,0,0,1,.788,3.612,7.9,7.9,0,0,1-.788,3.625,5.765,5.765,0,0,1-2.212,2.4A6.416,6.416,0,0,1,274.612,19.325Zm0-3.075a2.1,2.1,0,0,0,1.838-.988,4.924,4.924,0,0,0,.662-2.762,5.041,5.041,0,0,0-.662-2.8,2.2,2.2,0,0,0-3.675-.013,4.923,4.923,0,0,0-.663,2.762,5.041,5.041,0,0,0,.663,2.8A2.088,2.088,0,0,0,274.612,16.25Zm18.8,5.85h-3.4a16.286,16.286,0,0,1-2.275-4.663,18.122,18.122,0,0,1,0-10.65,16.286,16.286,0,0,1,2.275-4.662h3.4a18.513,18.513,0,0,0-2.875,10A18.471,18.471,0,0,0,293.412,22.1Zm5.4-3.1h-3.625V2.125h3.45l6.8,10.6V2.125h3.625V19h-3.475L298.812,8.7Zm17.7.325a10.5,10.5,0,0,1-5.15-1.175V14.775a12.768,12.768,0,0,0,2.35.975,7.877,7.877,0,0,0,2.25.35q2.8,0,2.8-1.85a1.486,1.486,0,0,0-.3-.937,3.045,3.045,0,0,0-1.05-.763,16.749,16.749,0,0,0-2.1-.825,6.37,6.37,0,0,1-2.937-1.863,4.291,4.291,0,0,1-1.012-2.838,4.811,4.811,0,0,1,.8-2.775,5.14,5.14,0,0,1,2.263-1.812,8.549,8.549,0,0,1,3.438-.638,9.055,9.055,0,0,1,2.05.237,7.243,7.243,0,0,1,1.775.638v3.25a7.232,7.232,0,0,0-3.675-.95,3.636,3.636,0,0,0-1.987.45,1.46,1.46,0,0,0-.687,1.3,1.414,1.414,0,0,0,.688,1.2,11.306,11.306,0,0,0,2.563,1.1q4.25,1.4,4.25,4.975a4.811,4.811,0,0,1-1.713,3.888A6.945,6.945,0,0,1,316.512,19.325Zm19.5-.325h-11.15V2.125h10.9v3.25h-7.075v3.45h5.825v3.25h-5.825V15.75h7.325Zm4.675,3.1h-3.4a18.513,18.513,0,0,0,2.875-10,18.471,18.471,0,0,0-2.875-9.975h3.4a16.32,16.32,0,0,1,2.275,4.65,18.123,18.123,0,0,1,0,10.65A16.254,16.254,0,0,1,340.687,22.1Z" transform="translate(110.043 7444.727) rotate(-90)"/>
    <path id="Caminho_1426" data-name="Caminho 1426" d="M0,0H82V123H0Z" transform="translate(741.469 7280)" fill="#8696bc"/>
    <path id="Caminho_1430" data-name="Caminho 1430" d="M0,0H82V65H0Z" transform="translate(839.469 7338)" fill="#0e295b"/>
    <path id="Caminho_1433" data-name="Caminho 1433" d="M0,0H82V217H0Z" transform="translate(970.469 7186)" fill="#8696bc"/>
    <path id="Caminho_1435" data-name="Caminho 1435" d="M0,0H82V118H0Z" transform="translate(1068.469 7285)" fill="#0e295b"/>
    <path id="Caminho_1415" data-name="Caminho 1415" d="M14.549,19.325A4.982,4.982,0,0,1,10.3,17.35a9.36,9.36,0,0,1-1.475-5.675q0-4.775,1.787-7.325A5.892,5.892,0,0,1,15.749,1.8a5.791,5.791,0,0,1,3.125.825v1.95a5.83,5.83,0,0,0-3.1-.925,4.068,4.068,0,0,0-3.562,1.788,9.231,9.231,0,0,0-1.287,5.137A4.222,4.222,0,0,1,12.6,8.937a4.973,4.973,0,0,1,2.425-.587,4.938,4.938,0,0,1,2.613.675A4.662,4.662,0,0,1,19.374,10.9,5.979,5.979,0,0,1,20,13.7a5.907,5.907,0,0,1-.7,2.912A5.19,5.19,0,0,1,17.374,18.6,5.441,5.441,0,0,1,14.549,19.325Zm.025-1.75a3.087,3.087,0,0,0,2.413-1.05,3.938,3.938,0,0,0,.938-2.725,3.933,3.933,0,0,0-.9-2.712,3.053,3.053,0,0,0-2.4-1.012,3.21,3.21,0,0,0-2.462,1.037,3.76,3.76,0,0,0-.962,2.663,3.952,3.952,0,0,0,.95,2.738A3.108,3.108,0,0,0,14.574,17.575Zm12.95,1.75a5.005,5.005,0,0,1-4.387-2.3,11.388,11.388,0,0,1-1.562-6.45A11.513,11.513,0,0,1,23.124,4.1,4.975,4.975,0,0,1,27.5,1.8a5.013,5.013,0,0,1,4.387,2.287,11.378,11.378,0,0,1,1.562,6.463,11.524,11.524,0,0,1-1.55,6.463A4.967,4.967,0,0,1,27.524,19.325Zm0-1.9a2.974,2.974,0,0,0,2.713-1.8A10.923,10.923,0,0,0,31.2,10.55a11.105,11.105,0,0,0-.937-5.05,2.982,2.982,0,0,0-5.475,0,10.923,10.923,0,0,0-.962,5.075,10.979,10.979,0,0,0,.95,5.05A2.982,2.982,0,0,0,27.524,17.425Zm19.775,1.9a3.787,3.787,0,0,1-1.95-.513,3.723,3.723,0,0,1-1.375-1.388,3.909,3.909,0,0,1-.5-1.975,3.81,3.81,0,0,1,1.9-3.363,3.805,3.805,0,0,1,5.25,1.387,3.909,3.909,0,0,1,.5,1.975,3.874,3.874,0,0,1-1.888,3.363A3.72,3.72,0,0,1,47.3,19.325ZM38.974,9.55a3.787,3.787,0,0,1-1.95-.512A3.723,3.723,0,0,1,35.649,7.65a3.909,3.909,0,0,1-.5-1.975,3.81,3.81,0,0,1,1.9-3.362A3.805,3.805,0,0,1,42.3,3.7a3.909,3.909,0,0,1,.5,1.975,3.874,3.874,0,0,1-1.888,3.363A3.72,3.72,0,0,1,38.974,9.55ZM35.674,19,48.4,2.125h2.2L37.874,19Zm3.3-11a2.053,2.053,0,0,0,1.563-.65,2.344,2.344,0,0,0,.613-1.675,2.355,2.355,0,0,0-.613-1.662A2.188,2.188,0,0,0,37.411,4,2.344,2.344,0,0,0,36.8,5.675a2.328,2.328,0,0,0,.625,1.663A2.045,2.045,0,0,0,38.974,8ZM47.3,17.775a2.034,2.034,0,0,0,1.563-.663,2.563,2.563,0,0,0,0-3.325,2.034,2.034,0,0,0-1.562-.663,2.064,2.064,0,0,0-1.55.65,2.317,2.317,0,0,0-.625,1.675,2.328,2.328,0,0,0,.625,1.662A2.045,2.045,0,0,0,47.3,17.775Z" transform="translate(145.496 7097.295)"/>
    <path id="Caminho_1416" data-name="Caminho 1416" d="M13.724,19.325A7.769,7.769,0,0,1,9.4,18.075v-2.05a6.807,6.807,0,0,0,1.95,1.05,6.415,6.415,0,0,0,2.15.4,4.084,4.084,0,0,0,2.887-.962,3.421,3.421,0,0,0,1.038-2.638A3.106,3.106,0,0,0,16.3,11.3a5.01,5.01,0,0,0-3.2-.9,16.42,16.42,0,0,0-3.05.35L11.2,2.125h7.85V4H12.874l-.65,4.875a8.946,8.946,0,0,1,1.85-.175,5.73,5.73,0,0,1,4.05,1.388,4.844,4.844,0,0,1,1.5,3.738,5.533,5.533,0,0,1-.737,2.887,5.056,5.056,0,0,1-2.063,1.925A6.642,6.642,0,0,1,13.724,19.325Zm13.8,0a5.005,5.005,0,0,1-4.387-2.3,11.388,11.388,0,0,1-1.562-6.45A11.513,11.513,0,0,1,23.124,4.1,4.975,4.975,0,0,1,27.5,1.8a5.013,5.013,0,0,1,4.387,2.287,11.378,11.378,0,0,1,1.562,6.463,11.524,11.524,0,0,1-1.55,6.463A4.967,4.967,0,0,1,27.524,19.325Zm0-1.9a2.974,2.974,0,0,0,2.713-1.8A10.923,10.923,0,0,0,31.2,10.55a11.105,11.105,0,0,0-.937-5.05,2.982,2.982,0,0,0-5.475,0,10.923,10.923,0,0,0-.962,5.075,10.979,10.979,0,0,0,.95,5.05A2.982,2.982,0,0,0,27.524,17.425Zm19.775,1.9a3.787,3.787,0,0,1-1.95-.513,3.723,3.723,0,0,1-1.375-1.388,3.909,3.909,0,0,1-.5-1.975,3.81,3.81,0,0,1,1.9-3.363,3.805,3.805,0,0,1,5.25,1.387,3.909,3.909,0,0,1,.5,1.975,3.874,3.874,0,0,1-1.888,3.363A3.72,3.72,0,0,1,47.3,19.325ZM38.974,9.55a3.787,3.787,0,0,1-1.95-.512A3.723,3.723,0,0,1,35.649,7.65a3.909,3.909,0,0,1-.5-1.975,3.81,3.81,0,0,1,1.9-3.362A3.805,3.805,0,0,1,42.3,3.7a3.909,3.909,0,0,1,.5,1.975,3.874,3.874,0,0,1-1.888,3.363A3.72,3.72,0,0,1,38.974,9.55ZM35.674,19,48.4,2.125h2.2L37.874,19Zm3.3-11a2.053,2.053,0,0,0,1.563-.65,2.344,2.344,0,0,0,.612-1.675,2.355,2.355,0,0,0-.612-1.662A2.188,2.188,0,0,0,37.411,4,2.344,2.344,0,0,0,36.8,5.675a2.328,2.328,0,0,0,.625,1.663A2.045,2.045,0,0,0,38.974,8ZM47.3,17.775a2.034,2.034,0,0,0,1.563-.663,2.562,2.562,0,0,0,0-3.325,2.034,2.034,0,0,0-1.562-.663,2.064,2.064,0,0,0-1.55.65,2.317,2.317,0,0,0-.625,1.675,2.328,2.328,0,0,0,.625,1.662A2.045,2.045,0,0,0,47.3,17.775Z" transform="translate(145.496 7145.295)"/>
    <path id="Caminho_1417" data-name="Caminho 1417" d="M16.074,19V15.075H8.4V13.25q1.325-2.4,3.163-5.125t4.337-6h2.275v11.15h2.2v1.8h-2.2V19Zm0-5.725v-8.6Q14.2,7.175,12.8,9.287t-2.45,3.988Zm11.45,6.05a5.005,5.005,0,0,1-4.387-2.3,11.388,11.388,0,0,1-1.562-6.45A11.513,11.513,0,0,1,23.124,4.1,4.975,4.975,0,0,1,27.5,1.8a5.013,5.013,0,0,1,4.387,2.287,11.378,11.378,0,0,1,1.562,6.463,11.524,11.524,0,0,1-1.55,6.463A4.967,4.967,0,0,1,27.524,19.325Zm0-1.9a2.974,2.974,0,0,0,2.713-1.8A10.923,10.923,0,0,0,31.2,10.55a11.105,11.105,0,0,0-.937-5.05,2.982,2.982,0,0,0-5.475,0,10.923,10.923,0,0,0-.962,5.075,10.979,10.979,0,0,0,.95,5.05A2.982,2.982,0,0,0,27.524,17.425Zm19.775,1.9a3.787,3.787,0,0,1-1.95-.513,3.723,3.723,0,0,1-1.375-1.388,3.909,3.909,0,0,1-.5-1.975,3.81,3.81,0,0,1,1.9-3.363,3.805,3.805,0,0,1,5.25,1.387,3.909,3.909,0,0,1,.5,1.975,3.874,3.874,0,0,1-1.888,3.363A3.72,3.72,0,0,1,47.3,19.325ZM38.974,9.55a3.787,3.787,0,0,1-1.95-.512A3.723,3.723,0,0,1,35.649,7.65a3.909,3.909,0,0,1-.5-1.975,3.81,3.81,0,0,1,1.9-3.362A3.805,3.805,0,0,1,42.3,3.7a3.909,3.909,0,0,1,.5,1.975,3.874,3.874,0,0,1-1.888,3.363A3.72,3.72,0,0,1,38.974,9.55ZM35.674,19,48.4,2.125h2.2L37.874,19Zm3.3-11a2.053,2.053,0,0,0,1.563-.65,2.344,2.344,0,0,0,.612-1.675,2.355,2.355,0,0,0-.612-1.662A2.188,2.188,0,0,0,37.411,4,2.344,2.344,0,0,0,36.8,5.675a2.328,2.328,0,0,0,.625,1.663A2.045,2.045,0,0,0,38.974,8ZM47.3,17.775a2.034,2.034,0,0,0,1.563-.663,2.562,2.562,0,0,0,0-3.325,2.034,2.034,0,0,0-1.562-.663,2.064,2.064,0,0,0-1.55.65,2.317,2.317,0,0,0-.625,1.675,2.328,2.328,0,0,0,.625,1.662A2.045,2.045,0,0,0,47.3,17.775Z" transform="translate(145.496 7193.295)"/>
    <path id="Caminho_1421" data-name="Caminho 1421" d="M14.2,19.325a9.592,9.592,0,0,1-2.537-.3A6.77,6.77,0,0,1,9.6,18.05v-2.2a7.129,7.129,0,0,0,2.05,1.163,6.564,6.564,0,0,0,2.275.412,4.331,4.331,0,0,0,2.837-.837,2.866,2.866,0,0,0,1.013-2.337,2.834,2.834,0,0,0-.975-2.325,4.4,4.4,0,0,0-2.85-.8H12.324V9.3h1.625a3.66,3.66,0,0,0,2.488-.775,2.734,2.734,0,0,0,.887-2.175,2.477,2.477,0,0,0-.837-1.975,3.338,3.338,0,0,0-2.263-.725,6.44,6.44,0,0,0-2.025.313,6.808,6.808,0,0,0-1.9,1.012V3.05A6.594,6.594,0,0,1,14.4,1.8,5.567,5.567,0,0,1,18.149,3a4.031,4.031,0,0,1,1.4,3.225,4.043,4.043,0,0,1-.7,2.313A4.355,4.355,0,0,1,16.974,10.1a4.411,4.411,0,0,1,2.237,1.588,4.35,4.35,0,0,1,.813,2.637A4.738,4.738,0,0,1,19.3,16.95a4.826,4.826,0,0,1-2.038,1.75A7.051,7.051,0,0,1,14.2,19.325Zm13.325,0a5.005,5.005,0,0,1-4.387-2.3,11.388,11.388,0,0,1-1.562-6.45A11.513,11.513,0,0,1,23.124,4.1,4.975,4.975,0,0,1,27.5,1.8a5.013,5.013,0,0,1,4.387,2.287,11.378,11.378,0,0,1,1.562,6.463,11.524,11.524,0,0,1-1.55,6.463A4.967,4.967,0,0,1,27.524,19.325Zm0-1.9a2.974,2.974,0,0,0,2.713-1.8A10.923,10.923,0,0,0,31.2,10.55a11.105,11.105,0,0,0-.937-5.05,2.982,2.982,0,0,0-5.475,0,10.923,10.923,0,0,0-.962,5.075,10.979,10.979,0,0,0,.95,5.05A2.982,2.982,0,0,0,27.524,17.425Zm19.775,1.9a3.787,3.787,0,0,1-1.95-.513,3.723,3.723,0,0,1-1.375-1.388,3.909,3.909,0,0,1-.5-1.975,3.81,3.81,0,0,1,1.9-3.363,3.805,3.805,0,0,1,5.25,1.387,3.909,3.909,0,0,1,.5,1.975,3.874,3.874,0,0,1-1.888,3.363A3.72,3.72,0,0,1,47.3,19.325ZM38.974,9.55a3.787,3.787,0,0,1-1.95-.512A3.723,3.723,0,0,1,35.649,7.65a3.909,3.909,0,0,1-.5-1.975,3.81,3.81,0,0,1,1.9-3.362A3.805,3.805,0,0,1,42.3,3.7a3.909,3.909,0,0,1,.5,1.975,3.874,3.874,0,0,1-1.888,3.363A3.72,3.72,0,0,1,38.974,9.55ZM35.674,19,48.4,2.125h2.2L37.874,19Zm3.3-11a2.053,2.053,0,0,0,1.563-.65,2.344,2.344,0,0,0,.612-1.675,2.355,2.355,0,0,0-.612-1.662A2.188,2.188,0,0,0,37.411,4,2.344,2.344,0,0,0,36.8,5.675a2.328,2.328,0,0,0,.625,1.663A2.045,2.045,0,0,0,38.974,8ZM47.3,17.775a2.034,2.034,0,0,0,1.563-.663,2.562,2.562,0,0,0,0-3.325,2.034,2.034,0,0,0-1.562-.663,2.064,2.064,0,0,0-1.55.65,2.317,2.317,0,0,0-.625,1.675,2.328,2.328,0,0,0,.625,1.662A2.045,2.045,0,0,0,47.3,17.775Z" transform="translate(145.496 7241.295)"/>
    <path id="Caminho_1427" data-name="Caminho 1427" d="M9.649,19V17.3Q12,15,13.511,13.4a31.072,31.072,0,0,0,2.363-2.75A8.773,8.773,0,0,0,17.061,8.6,5.1,5.1,0,0,0,17.4,6.8a2.962,2.962,0,0,0-.888-2.262A3.3,3.3,0,0,0,14.149,3.7a5.9,5.9,0,0,0-3.9,1.475V3.15a5.734,5.734,0,0,1,1.9-1,7.623,7.623,0,0,1,2.325-.35,5.836,5.836,0,0,1,2.712.6A4.458,4.458,0,0,1,19,4.075a4.737,4.737,0,0,1,.65,2.5A6.294,6.294,0,0,1,19.311,8.6a9.371,9.371,0,0,1-1.138,2.188A24.564,24.564,0,0,1,15.986,13.5Q14.6,15.025,12.5,17.1h7.55V19Zm17.875.325a5.005,5.005,0,0,1-4.387-2.3,11.388,11.388,0,0,1-1.562-6.45A11.513,11.513,0,0,1,23.124,4.1,4.975,4.975,0,0,1,27.5,1.8a5.013,5.013,0,0,1,4.387,2.287,11.378,11.378,0,0,1,1.562,6.463,11.524,11.524,0,0,1-1.55,6.463A4.967,4.967,0,0,1,27.524,19.325Zm0-1.9a2.974,2.974,0,0,0,2.713-1.8A10.923,10.923,0,0,0,31.2,10.55a11.105,11.105,0,0,0-.937-5.05,2.982,2.982,0,0,0-5.475,0,10.923,10.923,0,0,0-.962,5.075,10.979,10.979,0,0,0,.95,5.05A2.982,2.982,0,0,0,27.524,17.425Zm19.775,1.9a3.787,3.787,0,0,1-1.95-.513,3.723,3.723,0,0,1-1.375-1.388,3.909,3.909,0,0,1-.5-1.975,3.81,3.81,0,0,1,1.9-3.363,3.805,3.805,0,0,1,5.25,1.387,3.909,3.909,0,0,1,.5,1.975,3.874,3.874,0,0,1-1.888,3.363A3.72,3.72,0,0,1,47.3,19.325ZM38.974,9.55a3.787,3.787,0,0,1-1.95-.512A3.723,3.723,0,0,1,35.649,7.65a3.909,3.909,0,0,1-.5-1.975,3.81,3.81,0,0,1,1.9-3.362A3.805,3.805,0,0,1,42.3,3.7a3.909,3.909,0,0,1,.5,1.975,3.874,3.874,0,0,1-1.888,3.363A3.72,3.72,0,0,1,38.974,9.55ZM35.674,19,48.4,2.125h2.2L37.874,19Zm3.3-11a2.053,2.053,0,0,0,1.563-.65,2.344,2.344,0,0,0,.612-1.675,2.355,2.355,0,0,0-.612-1.662A2.188,2.188,0,0,0,37.411,4,2.344,2.344,0,0,0,36.8,5.675a2.328,2.328,0,0,0,.625,1.663A2.045,2.045,0,0,0,38.974,8ZM47.3,17.775a2.034,2.034,0,0,0,1.563-.663,2.562,2.562,0,0,0,0-3.325,2.034,2.034,0,0,0-1.562-.663,2.064,2.064,0,0,0-1.55.65,2.317,2.317,0,0,0-.625,1.675,2.328,2.328,0,0,0,.625,1.662A2.045,2.045,0,0,0,47.3,17.775Z" transform="translate(145.496 7289.295)"/>
    <path id="Caminho_1431" data-name="Caminho 1431" d="M16.224,19V4.3q-1.45.7-2.4,1.275a21.415,21.415,0,0,0-1.9,1.3v-2.1A24.253,24.253,0,0,1,14.1,3.312a22.868,22.868,0,0,1,2.3-1.187h2V19Zm11.3.325a5.005,5.005,0,0,1-4.387-2.3,11.388,11.388,0,0,1-1.562-6.45A11.513,11.513,0,0,1,23.124,4.1,4.975,4.975,0,0,1,27.5,1.8a5.013,5.013,0,0,1,4.387,2.287,11.378,11.378,0,0,1,1.562,6.463,11.524,11.524,0,0,1-1.55,6.463A4.967,4.967,0,0,1,27.524,19.325Zm0-1.9a2.974,2.974,0,0,0,2.713-1.8A10.923,10.923,0,0,0,31.2,10.55a11.105,11.105,0,0,0-.937-5.05,2.982,2.982,0,0,0-5.475,0,10.923,10.923,0,0,0-.962,5.075,10.979,10.979,0,0,0,.95,5.05A2.982,2.982,0,0,0,27.524,17.425Zm19.775,1.9a3.787,3.787,0,0,1-1.95-.513,3.723,3.723,0,0,1-1.375-1.388,3.909,3.909,0,0,1-.5-1.975,3.81,3.81,0,0,1,1.9-3.363,3.805,3.805,0,0,1,5.25,1.387,3.909,3.909,0,0,1,.5,1.975,3.874,3.874,0,0,1-1.888,3.363A3.72,3.72,0,0,1,47.3,19.325ZM38.974,9.55a3.787,3.787,0,0,1-1.95-.512A3.723,3.723,0,0,1,35.649,7.65a3.909,3.909,0,0,1-.5-1.975,3.81,3.81,0,0,1,1.9-3.362A3.805,3.805,0,0,1,42.3,3.7a3.909,3.909,0,0,1,.5,1.975,3.874,3.874,0,0,1-1.888,3.363A3.72,3.72,0,0,1,38.974,9.55ZM35.674,19,48.4,2.125h2.2L37.874,19Zm3.3-11a2.053,2.053,0,0,0,1.563-.65,2.344,2.344,0,0,0,.613-1.675,2.355,2.355,0,0,0-.613-1.662A2.188,2.188,0,0,0,37.411,4,2.344,2.344,0,0,0,36.8,5.675a2.328,2.328,0,0,0,.625,1.663A2.045,2.045,0,0,0,38.974,8ZM47.3,17.775a2.034,2.034,0,0,0,1.563-.663,2.563,2.563,0,0,0,0-3.325,2.034,2.034,0,0,0-1.562-.663,2.064,2.064,0,0,0-1.55.65,2.317,2.317,0,0,0-.625,1.675,2.328,2.328,0,0,0,.625,1.662A2.045,2.045,0,0,0,47.3,17.775Z" transform="translate(145.496 7337.295)"/>
    <path id="Caminho_1436" data-name="Caminho 1436" d="M27.524,19.325a5.005,5.005,0,0,1-4.387-2.3,11.388,11.388,0,0,1-1.562-6.45A11.513,11.513,0,0,1,23.124,4.1,4.975,4.975,0,0,1,27.5,1.8a5.013,5.013,0,0,1,4.387,2.287,11.378,11.378,0,0,1,1.562,6.463,11.524,11.524,0,0,1-1.55,6.463A4.967,4.967,0,0,1,27.524,19.325Zm0-1.9a2.974,2.974,0,0,0,2.713-1.8A10.923,10.923,0,0,0,31.2,10.55a11.105,11.105,0,0,0-.937-5.05,2.982,2.982,0,0,0-5.475,0,10.923,10.923,0,0,0-.962,5.075,10.979,10.979,0,0,0,.95,5.05A2.982,2.982,0,0,0,27.524,17.425Zm19.775,1.9a3.787,3.787,0,0,1-1.95-.513,3.723,3.723,0,0,1-1.375-1.388,3.909,3.909,0,0,1-.5-1.975,3.81,3.81,0,0,1,1.9-3.363,3.805,3.805,0,0,1,5.25,1.387,3.909,3.909,0,0,1,.5,1.975,3.874,3.874,0,0,1-1.888,3.363A3.72,3.72,0,0,1,47.3,19.325ZM38.974,9.55a3.787,3.787,0,0,1-1.95-.512A3.723,3.723,0,0,1,35.649,7.65a3.909,3.909,0,0,1-.5-1.975,3.81,3.81,0,0,1,1.9-3.362A3.805,3.805,0,0,1,42.3,3.7a3.909,3.909,0,0,1,.5,1.975,3.874,3.874,0,0,1-1.888,3.363A3.72,3.72,0,0,1,38.974,9.55ZM35.674,19,48.4,2.125h2.2L37.874,19Zm3.3-11a2.053,2.053,0,0,0,1.563-.65,2.344,2.344,0,0,0,.613-1.675,2.355,2.355,0,0,0-.613-1.662A2.188,2.188,0,0,0,37.411,4,2.344,2.344,0,0,0,36.8,5.675a2.328,2.328,0,0,0,.625,1.663A2.045,2.045,0,0,0,38.974,8ZM47.3,17.775a2.034,2.034,0,0,0,1.563-.663,2.563,2.563,0,0,0,0-3.325,2.034,2.034,0,0,0-1.562-.663,2.064,2.064,0,0,0-1.55.65,2.317,2.317,0,0,0-.625,1.675,2.328,2.328,0,0,0,.625,1.662A2.045,2.045,0,0,0,47.3,17.775Z" transform="translate(145.496 7385.295)"/>
    <path id="Caminho_1438" data-name="Caminho 1438" d="M1.45,19V2.125H7.225a7.9,7.9,0,0,1,4.613,1.2,3.769,3.769,0,0,1,1.713,3.25,3.661,3.661,0,0,1-2.225,3.463,4.6,4.6,0,0,1,2.1,1.567A4.015,4.015,0,0,1,14.15,14a4.244,4.244,0,0,1-1.863,3.7A9.214,9.214,0,0,1,6.975,19Zm3.8-3H7.175Q10.2,16,10.2,13.825a1.7,1.7,0,0,0-.75-1.475,3.622,3.622,0,0,0-2.1-.525H5.25Zm0-7.075H7.225A2.952,2.952,0,0,0,9.063,8.4,1.673,1.673,0,0,0,9.75,7a1.665,1.665,0,0,0-.625-1.375,2.779,2.779,0,0,0-1.775-.5H5.25Zm14.625,10.4a4.512,4.512,0,0,1-3.1-1.038A3.532,3.532,0,0,1,15.6,15.5a4.018,4.018,0,0,1,1.725-3.463A8.265,8.265,0,0,1,22.2,10.8q.275,0,.55.012t.55.037q-.25-2.2-2.825-2.2a6.227,6.227,0,0,0-3.7,1.175V6.85A7.215,7.215,0,0,1,21.1,5.625,5.878,5.878,0,0,1,25.4,7.1a5.661,5.661,0,0,1,1.5,4.225V19H23.8l-.2-1.375a3.834,3.834,0,0,1-1.563,1.25A5.153,5.153,0,0,1,19.875,19.325Zm3.45-6.125q-.375-.025-.95-.025a4.733,4.733,0,0,0-2.362.488,1.527,1.527,0,0,0-.837,1.387,1.565,1.565,0,0,0,.5,1.225,1.906,1.906,0,0,0,1.325.45,2.2,2.2,0,0,0,1.65-.7,2.39,2.39,0,0,0,.675-1.725Zm6.05,5.8V5.95h3.8V19Zm1.9-14.575a2.17,2.17,0,0,1-1.563-.613,2.043,2.043,0,0,1-.637-1.538A2.043,2.043,0,0,1,29.712.737a2.315,2.315,0,0,1,3.138,0,2.064,2.064,0,0,1,.625,1.538,2.064,2.064,0,0,1-.625,1.538A2.158,2.158,0,0,1,31.275,4.425ZM34.7,19l4.45-6.725L34.95,5.95h4.325l2.2,3.875,2.15-3.875H47.8L43.575,12.3,48.05,19H43.7l-2.425-4.025L38.85,19Zm19.975.325a6.491,6.491,0,0,1-3.35-.838,5.7,5.7,0,0,1-2.213-2.375,7.826,7.826,0,0,1-.787-3.612,7.9,7.9,0,0,1,.787-3.625,5.74,5.74,0,0,1,2.225-2.4,7.047,7.047,0,0,1,6.688-.012,5.7,5.7,0,0,1,2.213,2.375,7.826,7.826,0,0,1,.787,3.612,7.9,7.9,0,0,1-.787,3.625,5.766,5.766,0,0,1-2.213,2.4A6.416,6.416,0,0,1,54.675,19.325Zm0-3.075a2.1,2.1,0,0,0,1.838-.988,4.923,4.923,0,0,0,.663-2.762,5.041,5.041,0,0,0-.663-2.8,2.2,2.2,0,0,0-3.675-.013,4.923,4.923,0,0,0-.663,2.762,5.041,5.041,0,0,0,.663,2.8A2.088,2.088,0,0,0,54.675,16.25ZM71.05,19H67.425V2.125h3.45l6.8,10.6V2.125H81.3V19H77.825L71.05,8.7Zm17.7.325A10.5,10.5,0,0,1,83.6,18.15V14.775a12.768,12.768,0,0,0,2.35.975,7.877,7.877,0,0,0,2.25.35q2.8,0,2.8-1.85a1.486,1.486,0,0,0-.3-.937,3.044,3.044,0,0,0-1.05-.763,16.748,16.748,0,0,0-2.1-.825,6.37,6.37,0,0,1-2.937-1.863A4.291,4.291,0,0,1,83.6,7.025a4.811,4.811,0,0,1,.8-2.775,5.14,5.14,0,0,1,2.262-1.812A8.549,8.549,0,0,1,90.1,1.8a9.055,9.055,0,0,1,2.05.237,7.243,7.243,0,0,1,1.775.638v3.25a7.232,7.232,0,0,0-3.675-.95,3.636,3.636,0,0,0-1.988.45,1.46,1.46,0,0,0-.687,1.3,1.414,1.414,0,0,0,.688,1.2,11.306,11.306,0,0,0,2.563,1.1q4.25,1.4,4.25,4.975a4.811,4.811,0,0,1-1.712,3.888A6.945,6.945,0,0,1,88.75,19.325ZM108.25,19H97.1V2.125H108v3.25h-7.075v3.45h5.825v3.25h-5.825V15.75h7.325Z" transform="translate(289.27 7444.727)"/>
    <path id="Caminho_1439" data-name="Caminho 1439" d="M4.3,19H.375q1.1-4.325,2.6-8.55t3.35-8.325H10.65q1.825,3.95,3.275,8.087T16.6,19H12.575q-.225-.95-.425-1.812t-.4-1.663H5.125Q4.675,17.25,4.3,19Zm1.675-6.45h4.95Q10.45,11,9.85,9.313T8.425,5.5q-.7,1.8-1.312,3.563T5.975,12.55ZM18.25,19V1h3.8V19Zm11.875.25q-4.65,0-4.65-4.725V8.85h-2V5.95h2V2.55h3.8v3.4h2.75v2.9h-2.75v5.325q0,2.05,1.65,2.05a2.9,2.9,0,0,0,1.4-.325v2.925a6.754,6.754,0,0,1-1.038.3A5.574,5.574,0,0,1,30.125,19.25Zm9.575.075a6.491,6.491,0,0,1-3.35-.838,5.7,5.7,0,0,1-2.213-2.375A7.826,7.826,0,0,1,33.35,12.5a7.9,7.9,0,0,1,.787-3.625,5.74,5.74,0,0,1,2.225-2.4,7.047,7.047,0,0,1,6.688-.012,5.7,5.7,0,0,1,2.213,2.375,7.826,7.826,0,0,1,.787,3.612,7.9,7.9,0,0,1-.787,3.625,5.766,5.766,0,0,1-2.213,2.4A6.416,6.416,0,0,1,39.7,19.325Zm0-3.075a2.1,2.1,0,0,0,1.838-.988A4.923,4.923,0,0,0,42.2,12.5a5.041,5.041,0,0,0-.663-2.8,2.2,2.2,0,0,0-3.675-.013A4.923,4.923,0,0,0,37.2,12.45a5.041,5.041,0,0,0,.663,2.8A2.088,2.088,0,0,0,39.7,16.25ZM56.075,19H52.45V2.125H55.9l6.8,10.6V2.125h3.625V19H62.85L56.075,8.7Zm17.7.325a10.5,10.5,0,0,1-5.15-1.175V14.775a12.768,12.768,0,0,0,2.35.975,7.877,7.877,0,0,0,2.25.35q2.8,0,2.8-1.85a1.486,1.486,0,0,0-.3-.937,3.044,3.044,0,0,0-1.05-.763,16.748,16.748,0,0,0-2.1-.825,6.37,6.37,0,0,1-2.937-1.863,4.291,4.291,0,0,1-1.013-2.838,4.811,4.811,0,0,1,.8-2.775,5.14,5.14,0,0,1,2.262-1.812A8.549,8.549,0,0,1,75.125,1.8a9.055,9.055,0,0,1,2.05.237,7.243,7.243,0,0,1,1.775.638v3.25a7.232,7.232,0,0,0-3.675-.95,3.636,3.636,0,0,0-1.988.45,1.46,1.46,0,0,0-.687,1.3,1.414,1.414,0,0,0,.688,1.2,11.306,11.306,0,0,0,2.563,1.1Q80.1,10.425,80.1,14a4.811,4.811,0,0,1-1.713,3.888A6.945,6.945,0,0,1,73.775,19.325ZM93.275,19H82.125V2.125h10.9v3.25H85.95v3.45h5.825v3.25H85.95V15.75h7.325Z" transform="translate(514.27 7444.727)"/>
    <path id="Caminho_1440" data-name="Caminho 1440" d="M1.45,19V2.125h5.4a8.031,8.031,0,0,1,5.088,1.462A4.823,4.823,0,0,1,13.8,7.6a5.069,5.069,0,0,1-1.888,4.188A8.165,8.165,0,0,1,6.675,13.3H5.25V19ZM6.925,5.175H5.25V10.25H6.875A3.306,3.306,0,0,0,9.1,9.562,2.387,2.387,0,0,0,9.9,7.65a2.227,2.227,0,0,0-.788-1.838A3.386,3.386,0,0,0,6.925,5.175ZM15.55,19V5.95h3.325l.25,1.875a4.1,4.1,0,0,1,1.263-1.55A2.809,2.809,0,0,1,22.075,5.7a2.5,2.5,0,0,1,1,.175V9.4A2.38,2.38,0,0,0,22,9.175a2.411,2.411,0,0,0-1.937.837,3.458,3.458,0,0,0-.712,2.312V19Zm15.225.325a6.7,6.7,0,0,1-5-1.825,6.88,6.88,0,0,1-1.8-5.05,7.794,7.794,0,0,1,.775-3.575,5.856,5.856,0,0,1,2.175-2.387,6.069,6.069,0,0,1,3.25-.863A5.18,5.18,0,0,1,34.3,7.35a7,7,0,0,1,1.5,4.75v1.625H27.65q.6,2.65,3.65,2.65a7.472,7.472,0,0,0,1.95-.263,6.229,6.229,0,0,0,1.725-.737V18.3a5.951,5.951,0,0,1-1.838.75A9.817,9.817,0,0,1,30.775,19.325ZM27.6,11.2h4.7a3.28,3.28,0,0,0-.65-2.038A2.042,2.042,0,0,0,30,8.45Q27.95,8.45,27.6,11.2Zm15.675,8.05q-4.65,0-4.65-4.725V8.85h-2V5.95h2V2.55h3.8v3.4h2.75v2.9h-2.75v5.325q0,2.05,1.65,2.05a2.9,2.9,0,0,0,1.4-.325v2.925a6.754,6.754,0,0,1-1.037.3A5.574,5.574,0,0,1,43.275,19.25Zm9.575.075a6.491,6.491,0,0,1-3.35-.838,5.7,5.7,0,0,1-2.213-2.375A7.826,7.826,0,0,1,46.5,12.5a7.9,7.9,0,0,1,.787-3.625,5.74,5.74,0,0,1,2.225-2.4A7.047,7.047,0,0,1,56.2,6.462a5.7,5.7,0,0,1,2.213,2.375A7.826,7.826,0,0,1,59.2,12.45a7.9,7.9,0,0,1-.787,3.625,5.766,5.766,0,0,1-2.213,2.4A6.416,6.416,0,0,1,52.85,19.325Zm0-3.075a2.1,2.1,0,0,0,1.838-.988A4.923,4.923,0,0,0,55.35,12.5a5.041,5.041,0,0,0-.663-2.8,2.2,2.2,0,0,0-3.675-.013,4.923,4.923,0,0,0-.663,2.762,5.041,5.041,0,0,0,.663,2.8A2.088,2.088,0,0,0,52.85,16.25Zm12.125,3.075a10.687,10.687,0,0,1-2.325-.25,7.258,7.258,0,0,1-1.975-.725V15.375a7.027,7.027,0,0,0,1.862.8,7.742,7.742,0,0,0,2.038.275q2,0,2-1.225a.957.957,0,0,0-.513-.825,8.247,8.247,0,0,0-1.987-.725q-3.45-.975-3.45-3.95A3.531,3.531,0,0,1,62.138,6.75a6.61,6.61,0,0,1,4.038-1.125,8.559,8.559,0,0,1,1.838.2,5.6,5.6,0,0,1,1.537.55V9.3a6.946,6.946,0,0,0-3.275-.8q-1.925,0-1.925,1.125a.892.892,0,0,0,.475.775,8.314,8.314,0,0,0,1.9.7,5.637,5.637,0,0,1,2.8,1.512,3.72,3.72,0,0,1,.875,2.563A3.63,3.63,0,0,1,68.95,18.2,6.331,6.331,0,0,1,64.975,19.325Z" transform="translate(787.27 7444.727)"/>
    <path id="Caminho_1441" data-name="Caminho 1441" d="M1.45,19V2.125H7.225a7.9,7.9,0,0,1,4.613,1.2,3.769,3.769,0,0,1,1.713,3.25,3.661,3.661,0,0,1-2.225,3.463,4.6,4.6,0,0,1,2.1,1.567A4.015,4.015,0,0,1,14.15,14a4.244,4.244,0,0,1-1.863,3.7A9.214,9.214,0,0,1,6.975,19Zm3.8-3H7.175Q10.2,16,10.2,13.825a1.7,1.7,0,0,0-.75-1.475,3.622,3.622,0,0,0-2.1-.525H5.25Zm0-7.075H7.225A2.952,2.952,0,0,0,9.063,8.4,1.673,1.673,0,0,0,9.75,7a1.665,1.665,0,0,0-.625-1.375,2.779,2.779,0,0,0-1.775-.5H5.25ZM16.175,19V5.95H19.5l.25,1.875a4.1,4.1,0,0,1,1.263-1.55A2.809,2.809,0,0,1,22.7,5.7a2.5,2.5,0,0,1,1,.175V9.4a2.38,2.38,0,0,0-1.075-.225,2.411,2.411,0,0,0-1.937.837,3.458,3.458,0,0,0-.712,2.312V19Zm12.725.325a4.512,4.512,0,0,1-3.1-1.038A3.532,3.532,0,0,1,24.625,15.5a4.018,4.018,0,0,1,1.725-3.463A8.265,8.265,0,0,1,31.225,10.8q.275,0,.55.012t.55.037q-.25-2.2-2.825-2.2a6.227,6.227,0,0,0-3.7,1.175V6.85a7.215,7.215,0,0,1,4.325-1.225,5.878,5.878,0,0,1,4.3,1.475,5.661,5.661,0,0,1,1.5,4.225V19h-3.1l-.2-1.375a3.834,3.834,0,0,1-1.562,1.25A5.153,5.153,0,0,1,28.9,19.325ZM32.35,13.2q-.375-.025-.95-.025a4.733,4.733,0,0,0-2.362.488A1.527,1.527,0,0,0,28.2,15.05a1.565,1.565,0,0,0,.5,1.225,1.906,1.906,0,0,0,1.325.45,2.2,2.2,0,0,0,1.65-.7A2.39,2.39,0,0,0,32.35,14.3ZM38.4,19V5.95h3.325l.2,1.5A4.427,4.427,0,0,1,45.7,5.625a4.134,4.134,0,0,1,3.275,1.4,5.416,5.416,0,0,1,1.225,3.7V19H46.4V11.325q0-2.55-2.05-2.55a1.944,1.944,0,0,0-1.575.688,2.812,2.812,0,0,0-.575,1.863V19Zm20.3.325a7.059,7.059,0,0,1-3.5-.825,5.686,5.686,0,0,1-2.287-2.362A7.682,7.682,0,0,1,52.1,12.5a7.368,7.368,0,0,1,.85-3.6,6.093,6.093,0,0,1,2.362-2.413,6.967,6.967,0,0,1,3.513-.863,6.81,6.81,0,0,1,1.75.225,4.265,4.265,0,0,1,1.35.575V9.5A4.273,4.273,0,0,0,59.3,8.7a3.141,3.141,0,0,0-2.463.988,3.988,3.988,0,0,0-.888,2.762,4.022,4.022,0,0,0,.913,2.775,3.131,3.131,0,0,0,2.462,1.025,4.3,4.3,0,0,0,2.75-.85v3.05a4.34,4.34,0,0,1-1.45.637A7.52,7.52,0,0,1,58.7,19.325Zm11.175,0a6.491,6.491,0,0,1-3.35-.838,5.7,5.7,0,0,1-2.213-2.375,7.826,7.826,0,0,1-.787-3.612,7.9,7.9,0,0,1,.787-3.625,5.74,5.74,0,0,1,2.225-2.4,7.047,7.047,0,0,1,6.688-.012,5.7,5.7,0,0,1,2.213,2.375,7.826,7.826,0,0,1,.787,3.612,7.9,7.9,0,0,1-.787,3.625,5.766,5.766,0,0,1-2.213,2.4A6.416,6.416,0,0,1,69.875,19.325Zm0-3.075a2.1,2.1,0,0,0,1.838-.988,4.924,4.924,0,0,0,.662-2.762,5.041,5.041,0,0,0-.662-2.8,2.2,2.2,0,0,0-3.675-.013,4.924,4.924,0,0,0-.662,2.762,5.041,5.041,0,0,0,.662,2.8A2.088,2.088,0,0,0,69.875,16.25ZM82,19.325a10.687,10.687,0,0,1-2.325-.25A7.258,7.258,0,0,1,77.7,18.35V15.375a7.027,7.027,0,0,0,1.862.8,7.742,7.742,0,0,0,2.038.275q2,0,2-1.225a.957.957,0,0,0-.513-.825,8.247,8.247,0,0,0-1.987-.725q-3.45-.975-3.45-3.95A3.531,3.531,0,0,1,79.163,6.75,6.61,6.61,0,0,1,83.2,5.625a8.559,8.559,0,0,1,1.838.2,5.6,5.6,0,0,1,1.537.55V9.3A6.946,6.946,0,0,0,83.3,8.5q-1.925,0-1.925,1.125a.892.892,0,0,0,.475.775,8.314,8.314,0,0,0,1.9.7,5.637,5.637,0,0,1,2.8,1.512,3.72,3.72,0,0,1,.875,2.563,3.63,3.63,0,0,1-1.45,3.025A6.331,6.331,0,0,1,82,19.325Z" transform="translate(1012.27 7444.727)"/>
    <g id="Caminho_1442" data-name="Caminho 1442" transform="translate(524.242 7537)" fill="#0e295b">
      <path d="M 22.5 23.5 L 0.5 23.5 L 0.5 0.5 L 22.5 0.5 L 22.5 23.5 Z" stroke="none"/>
      <path d="M 1 1 L 1 23 L 22 23 L 22 1 L 1 1 M 0 0 L 23 0 L 23 24 L 0 24 L 0 0 Z" stroke="none" fill="#707070"/>
    </g>
    <path id="Caminho_1443" data-name="Caminho 1443" d="M1.75,19V2.125h4.6a7.386,7.386,0,0,1,4.7,1.362,4.5,4.5,0,0,1,1.725,3.738,4.794,4.794,0,0,1-1.712,3.913A7.406,7.406,0,0,1,6.225,12.55h-2.3V19ZM6.325,3.975h-2.4V10.7H6.3a4.872,4.872,0,0,0,3.113-.887A3.029,3.029,0,0,0,10.525,7.3a2.938,2.938,0,0,0-1.1-2.475A4.97,4.97,0,0,0,6.325,3.975ZM19.85,19.325a5.508,5.508,0,0,1-3.062-.85,5.739,5.739,0,0,1-2.05-2.363A7.984,7.984,0,0,1,14,12.575a8.065,8.065,0,0,1,.738-3.55A5.691,5.691,0,0,1,16.8,6.65a5.57,5.57,0,0,1,3.075-.85,5.569,5.569,0,0,1,3.063.837A5.636,5.636,0,0,1,24.988,9a8.065,8.065,0,0,1,.738,3.55,8.065,8.065,0,0,1-.738,3.55,5.691,5.691,0,0,1-2.062,2.375A5.57,5.57,0,0,1,19.85,19.325Zm.025-1.85a3.135,3.135,0,0,0,2.638-1.312,5.84,5.84,0,0,0,.987-3.588,5.908,5.908,0,0,0-.987-3.588,3.313,3.313,0,0,0-5.3-.025,5.84,5.84,0,0,0-.988,3.587,5.908,5.908,0,0,0,.988,3.588A3.14,3.14,0,0,0,19.875,17.475ZM28.15,19V6.125h1.925l.15,1.925a3.767,3.767,0,0,1,1.25-1.575,3,3,0,0,1,1.8-.6,2.645,2.645,0,0,1,1.2.275v2a2.424,2.424,0,0,0-1.225-.275,2.506,2.506,0,0,0-2.1,1.063,4.56,4.56,0,0,0-.8,2.813V19Zm13.475.25a3.58,3.58,0,0,1-2.725-1,4.208,4.208,0,0,1-.95-3V7.85H35.875V6.125H37.95V2.85h2.2V6.125h3.125V7.85H40.15V15.2a2.98,2.98,0,0,0,.388,1.613,1.355,1.355,0,0,0,1.237.612,3.658,3.658,0,0,0,1.1-.15,2.973,2.973,0,0,0,.8-.375v1.8a3.1,3.1,0,0,1-.863.387A4.092,4.092,0,0,1,41.625,19.25Zm8.7.075a3.945,3.945,0,0,1-3.175-1.388A5.594,5.594,0,0,1,45.975,14.2V6.125h2.2v7.75a4.239,4.239,0,0,0,.737,2.638A2.476,2.476,0,0,0,51,17.475a2.8,2.8,0,0,0,2.225-.988,3.827,3.827,0,0,0,.85-2.587V6.125h2.2V19H54.35l-.125-1.675A4.342,4.342,0,0,1,50.325,19.325Zm13.7,4.625a8.743,8.743,0,0,1-2.175-.275,5.827,5.827,0,0,1-1.875-.825V20.875a6.856,6.856,0,0,0,1.825.875,6.75,6.75,0,0,0,2.05.325q4.025,0,4.025-4.275V17a4.343,4.343,0,0,1-1.662,1.587,4.721,4.721,0,0,1-2.288.563,4.673,4.673,0,0,1-2.725-.812,5.37,5.37,0,0,1-1.837-2.3,8.443,8.443,0,0,1-.663-3.463,8.749,8.749,0,0,1,.675-3.588,5.5,5.5,0,0,1,1.887-2.35A4.911,4.911,0,0,1,64.125,5.8,4.2,4.2,0,0,1,68.05,8.075l.15-1.95h1.875V17.6a6.623,6.623,0,0,1-1.537,4.725A5.921,5.921,0,0,1,64.025,23.95Zm.475-6.6A2.946,2.946,0,0,0,67,16.038a5.822,5.822,0,0,0,.95-3.488A6.032,6.032,0,0,0,67,8.987,2.953,2.953,0,0,0,64.475,7.65,3.056,3.056,0,0,0,61.9,8.962a5.849,5.849,0,0,0-.975,3.562A5.746,5.746,0,0,0,61.9,16.05,3.089,3.089,0,0,0,64.5,17.35Zm12.975,1.975A3.945,3.945,0,0,1,74.3,17.938,5.594,5.594,0,0,1,73.125,14.2V6.125h2.2v7.75a4.239,4.239,0,0,0,.737,2.638,2.476,2.476,0,0,0,2.088.962,2.8,2.8,0,0,0,2.225-.988,3.827,3.827,0,0,0,.85-2.587V6.125h2.2V19H81.5l-.125-1.675A4.342,4.342,0,0,1,77.475,19.325Zm14.5,0A5.723,5.723,0,0,1,87.488,17.5a7.177,7.177,0,0,1-1.638-4.975,8.348,8.348,0,0,1,.7-3.538,5.463,5.463,0,0,1,1.987-2.35A5.356,5.356,0,0,1,91.525,5.8,4.62,4.62,0,0,1,95.3,7.475a7.043,7.043,0,0,1,1.375,4.6v1.15h-8.7a4.9,4.9,0,0,0,1.275,3.137,4,4,0,0,0,2.975,1.113,6.284,6.284,0,0,0,2-.325,5.5,5.5,0,0,0,1.675-.875v1.9a5.186,5.186,0,0,1-1.75.838A7.755,7.755,0,0,1,91.975,19.325ZM88,11.55h6.625a4.887,4.887,0,0,0-.912-2.938,2.782,2.782,0,0,0-2.287-1.037A3,3,0,0,0,89.037,8.6,5,5,0,0,0,88,11.55Zm7.1-7.375H93.275l-2-2.475-2,2.475H87.45l2.825-3.8h2Zm7.55,15.15a8.292,8.292,0,0,1-1.988-.225,8.741,8.741,0,0,1-1.887-.725V16.4a7.112,7.112,0,0,0,3.8,1.15,3.251,3.251,0,0,0,1.988-.55,1.747,1.747,0,0,0,.737-1.475,1.542,1.542,0,0,0-.637-1.288,7.472,7.472,0,0,0-2.363-.962,5.736,5.736,0,0,1-2.637-1.425,3.243,3.243,0,0,1-.838-2.3,3.211,3.211,0,0,1,.613-1.925A4.156,4.156,0,0,1,101.1,6.287a5.576,5.576,0,0,1,2.375-.487,7.262,7.262,0,0,1,1.738.225A5.329,5.329,0,0,1,106.7,6.6V8.5a5.587,5.587,0,0,0-3.15-.925,3.211,3.211,0,0,0-1.9.5,1.6,1.6,0,0,0-.7,1.375,1.517,1.517,0,0,0,.6,1.25,6.387,6.387,0,0,0,2.125.9,6.448,6.448,0,0,1,2.925,1.487,3.374,3.374,0,0,1,.875,2.438,3.332,3.332,0,0,1-1.325,2.763A5.518,5.518,0,0,1,102.65,19.325Z" transform="translate(559.045 7537)"/>
    <g id="Caminho_1444" data-name="Caminho 1444" transform="translate(711.242 7537)" fill="#8696bc">
      <path d="M 22.5 23.5 L 0.5 23.5 L 0.5 0.5 L 22.5 0.5 L 22.5 23.5 Z" stroke="none"/>
      <path d="M 1 1 L 1 23 L 22 23 L 22 1 L 1 1 M 0 0 L 23 0 L 23 24 L 0 24 L 0 0 Z" stroke="none" fill="#707070"/>
    </g>
    <path id="Caminho_1445" data-name="Caminho 1445" d="M1.5,19q0-4.05.275-8.225T2.6,2.125H5.275L10.3,14.575l5-12.45h2.65q.325,2.875.538,5.15t.337,4.212q.125,1.938.175,3.75T19.05,19H16.925q0-2.175-.075-4.35t-.25-4.538q-.175-2.362-.475-5.087L11.275,17.2h-2L4.375,5.075q-.4,3.775-.588,7.263T3.6,19Zm24.15.325A4.246,4.246,0,0,1,22.675,18.3a3.479,3.479,0,0,1-1.125-2.7,3.738,3.738,0,0,1,1.763-3.312A9.248,9.248,0,0,1,28.4,11.125q.5,0,1.075.025-.05-3.5-3.075-3.5a5.463,5.463,0,0,0-3.8,1.4V7.075a5.418,5.418,0,0,1,1.763-.925A6.8,6.8,0,0,1,26.5,5.8a5.033,5.033,0,0,1,3.8,1.375,5.5,5.5,0,0,1,1.325,3.975V19H29.75l-.125-1.7a4.136,4.136,0,0,1-1.65,1.488A5.027,5.027,0,0,1,25.65,19.325Zm3.825-6.55q-.575-.025-1.15-.025a7.133,7.133,0,0,0-3.462.675,2.247,2.247,0,0,0-.5,3.6,2.555,2.555,0,0,0,1.788.625,3.193,3.193,0,0,0,1.675-.45,3.414,3.414,0,0,0,1.2-1.213,3.212,3.212,0,0,0,.45-1.663Zm9.55,6.475a3.58,3.58,0,0,1-2.725-1,4.208,4.208,0,0,1-.95-3V7.85H33.275V6.125H35.35V2.85h2.2V6.125h3.125V7.85H37.55V15.2a2.98,2.98,0,0,0,.388,1.613,1.355,1.355,0,0,0,1.237.612,3.658,3.658,0,0,0,1.1-.15,2.973,2.973,0,0,0,.8-.375v1.8a3.1,3.1,0,0,1-.863.387A4.092,4.092,0,0,1,39.025,19.25Zm9.3.075A5.723,5.723,0,0,1,43.838,17.5,7.177,7.177,0,0,1,42.2,12.525a8.348,8.348,0,0,1,.7-3.538,5.463,5.463,0,0,1,1.988-2.35A5.356,5.356,0,0,1,47.875,5.8,4.62,4.62,0,0,1,51.65,7.475a7.043,7.043,0,0,1,1.375,4.6v1.15h-8.7A4.9,4.9,0,0,0,45.6,16.362a4,4,0,0,0,2.975,1.113,6.284,6.284,0,0,0,2-.325,5.5,5.5,0,0,0,1.675-.875v1.9a5.186,5.186,0,0,1-1.75.838A7.755,7.755,0,0,1,48.325,19.325ZM44.35,11.55h6.625a4.887,4.887,0,0,0-.912-2.938,2.782,2.782,0,0,0-2.288-1.037A3,3,0,0,0,45.388,8.6,5,5,0,0,0,44.35,11.55ZM55.425,19V6.125H57.35l.1,1.525a4.45,4.45,0,0,1,1.538-1.363A4.308,4.308,0,0,1,61.05,5.8a3.786,3.786,0,0,1,2.15.6,4,4,0,0,1,1.4,1.65,4.451,4.451,0,0,1,1.65-1.663A4.591,4.591,0,0,1,68.575,5.8,3.744,3.744,0,0,1,71.55,7.062a5.014,5.014,0,0,1,1.1,3.413V19h-2.2V10.825A3.626,3.626,0,0,0,69.788,8.5a2.253,2.253,0,0,0-1.863-.825,2.6,2.6,0,0,0-2.012.862,3.225,3.225,0,0,0-.788,2.263V19h-2.2V10.825A3.626,3.626,0,0,0,62.263,8.5,2.253,2.253,0,0,0,60.4,7.675a2.566,2.566,0,0,0-2,.862,3.257,3.257,0,0,0-.775,2.263V19Zm23.8.325A4.246,4.246,0,0,1,76.25,18.3a3.479,3.479,0,0,1-1.125-2.7,3.738,3.738,0,0,1,1.762-3.312,9.248,9.248,0,0,1,5.088-1.163q.5,0,1.075.025-.05-3.5-3.075-3.5a5.463,5.463,0,0,0-3.8,1.4V7.075a5.418,5.418,0,0,1,1.762-.925,6.8,6.8,0,0,1,2.137-.35,5.033,5.033,0,0,1,3.8,1.375A5.5,5.5,0,0,1,85.2,11.15V19H83.325L83.2,17.3a4.136,4.136,0,0,1-1.65,1.488A5.027,5.027,0,0,1,79.225,19.325Zm3.825-6.55q-.575-.025-1.15-.025a7.133,7.133,0,0,0-3.463.675,2.247,2.247,0,0,0-.5,3.6,2.555,2.555,0,0,0,1.787.625A3.193,3.193,0,0,0,81.4,17.2a3.414,3.414,0,0,0,1.2-1.213,3.212,3.212,0,0,0,.45-1.663ZM84.375.375l-3.1,3.8h-2L81.9.375ZM92.6,19.25a3.58,3.58,0,0,1-2.725-1,4.208,4.208,0,0,1-.95-3V7.85H86.85V6.125h2.075V2.85h2.2V6.125H94.25V7.85H91.125V15.2a2.98,2.98,0,0,0,.388,1.613,1.355,1.355,0,0,0,1.237.612,3.658,3.658,0,0,0,1.1-.15,2.973,2.973,0,0,0,.8-.375v1.8a3.1,3.1,0,0,1-.862.387A4.092,4.092,0,0,1,92.6,19.25ZM97.05,19V6.125h2.2V19Zm1.1-15.35a1.407,1.407,0,0,1-1.038-.413A1.377,1.377,0,0,1,96.7,2.225a1.377,1.377,0,0,1,.412-1.013,1.511,1.511,0,0,1,2.075,0A1.377,1.377,0,0,1,99.6,2.225a1.377,1.377,0,0,1-.412,1.012A1.407,1.407,0,0,1,98.15,3.65Zm9.575,15.675a6.155,6.155,0,0,1-3.213-.812,5.362,5.362,0,0,1-2.1-2.338,8.189,8.189,0,0,1-.738-3.6A7.794,7.794,0,0,1,102.45,9a5.713,5.713,0,0,1,2.162-2.363A6.046,6.046,0,0,1,107.8,5.8a6.624,6.624,0,0,1,1.75.212,4.4,4.4,0,0,1,1.325.587V8.675a4.581,4.581,0,0,0-3.075-1A3.461,3.461,0,0,0,104.975,9a5.467,5.467,0,0,0-1.075,3.55,6.129,6.129,0,0,0,.5,2.538,4.107,4.107,0,0,0,1.4,1.738,3.507,3.507,0,0,0,2.05.625,5.068,5.068,0,0,0,3.225-1.125v2.1a5.272,5.272,0,0,1-1.55.663A7.029,7.029,0,0,1,107.725,19.325Zm9.275,0a4.246,4.246,0,0,1-2.975-1.025,3.479,3.479,0,0,1-1.125-2.7,3.738,3.738,0,0,1,1.762-3.312,9.248,9.248,0,0,1,5.088-1.163q.5,0,1.075.025-.05-3.5-3.075-3.5a5.463,5.463,0,0,0-3.8,1.4V7.075a5.418,5.418,0,0,1,1.762-.925,6.8,6.8,0,0,1,2.137-.35,5.033,5.033,0,0,1,3.8,1.375,5.5,5.5,0,0,1,1.325,3.975V19H121.1l-.125-1.7a4.136,4.136,0,0,1-1.65,1.488A5.027,5.027,0,0,1,117,19.325Zm3.825-6.55q-.575-.025-1.15-.025a7.133,7.133,0,0,0-3.463.675,2.247,2.247,0,0,0-.5,3.6,2.555,2.555,0,0,0,1.787.625,3.193,3.193,0,0,0,1.675-.45,3.414,3.414,0,0,0,1.2-1.213,3.212,3.212,0,0,0,.45-1.663Z" transform="translate(746.043 7537)"/>
    <path id="Caminho_1422" data-name="Caminho 1422" d="M9.7,19V16.775q2.225-2.25,3.65-3.775a32.716,32.716,0,0,0,2.213-2.575,7.913,7.913,0,0,0,1.088-1.837,4.3,4.3,0,0,0,.3-1.538,2.463,2.463,0,0,0-.775-1.925,3.054,3.054,0,0,0-2.125-.7,6.172,6.172,0,0,0-3.75,1.3v-2.6A7.066,7.066,0,0,1,14.649,1.8a6.3,6.3,0,0,1,2.85.613,4.685,4.685,0,0,1,1.912,1.7A4.694,4.694,0,0,1,20.1,6.675a6.681,6.681,0,0,1-.3,1.975,8.652,8.652,0,0,1-1.013,2.088,20.96,20.96,0,0,1-1.925,2.488Q15.649,14.6,13.824,16.4h6.625V19Zm17.95.325a7.474,7.474,0,0,1-3.138-.613,4.919,4.919,0,0,1-2.087-1.725,4.518,4.518,0,0,1-.75-2.587,4.17,4.17,0,0,1,2.875-4.25,3.861,3.861,0,0,1-2.275-3.775,4.126,4.126,0,0,1,.7-2.363,4.716,4.716,0,0,1,1.938-1.625,7.035,7.035,0,0,1,5.6-.012A4.483,4.483,0,0,1,32.4,3.987a4.28,4.28,0,0,1,.675,2.388A3.892,3.892,0,0,1,30.8,10.15a4.657,4.657,0,0,1,2.125,6.837,4.906,4.906,0,0,1-2.1,1.725A7.626,7.626,0,0,1,27.649,19.325Zm0-2.45a3.012,3.012,0,0,0,2.125-.737,2.541,2.541,0,0,0,.8-1.963,2.522,2.522,0,0,0-.788-1.95A2.961,2.961,0,0,0,27.7,11.5a3.012,3.012,0,0,0-2.125.737,2.541,2.541,0,0,0-.8,1.963,2.521,2.521,0,0,0,.788,1.95A2.961,2.961,0,0,0,27.649,16.875Zm.025-7.8a2.425,2.425,0,0,0,1.775-.663,2.358,2.358,0,0,0,.675-1.762,2.326,2.326,0,0,0-.675-1.738,2.709,2.709,0,0,0-3.55,0,2.358,2.358,0,0,0-.675,1.763,2.3,2.3,0,0,0,.688,1.738A2.435,2.435,0,0,0,27.674,9.075Zm19.775,10.25a3.809,3.809,0,0,1-3.338-1.9A3.9,3.9,0,0,1,45.5,12.087a3.787,3.787,0,0,1,1.95-.513,3.9,3.9,0,0,1,3.362,5.838,3.791,3.791,0,0,1-1.388,1.4A3.834,3.834,0,0,1,47.449,19.325ZM38.824,9.55a3.81,3.81,0,0,1-3.875-3.875A3.834,3.834,0,0,1,35.461,3.7a3.791,3.791,0,0,1,1.4-1.387A3.854,3.854,0,0,1,38.824,1.8a3.768,3.768,0,0,1,1.962.513,3.834,3.834,0,0,1,1.888,3.362,3.854,3.854,0,0,1-.513,1.963A3.786,3.786,0,0,1,38.824,9.55ZM35.5,19,48.024,2.125h2.75L38.249,19ZM38.824,7.575a1.724,1.724,0,0,0,1.287-.525,1.884,1.884,0,0,0,.513-1.375,1.9,1.9,0,0,0-.513-1.362,1.7,1.7,0,0,0-1.287-.537,1.755,1.755,0,0,0-1.312.525A1.884,1.884,0,0,0,37,5.675a1.87,1.87,0,0,0,.525,1.363A1.745,1.745,0,0,0,38.824,7.575Zm8.625,9.775a1.755,1.755,0,0,0,1.313-.525,2.084,2.084,0,0,0,0-2.738,1.872,1.872,0,0,0-2.6-.025,1.875,1.875,0,0,0-.512,1.387,1.9,1.9,0,0,0,.512,1.363A1.7,1.7,0,0,0,47.449,17.35Z" transform="translate(267.48 7235)"/>
    <path id="Caminho_1425" data-name="Caminho 1425" d="M17.049,19V5.2a24.375,24.375,0,0,0-4.175,2.45V4.8q1.1-.8,2.25-1.488a19.127,19.127,0,0,1,2.325-1.187h2.7V19Zm10.475.325a8.723,8.723,0,0,1-4.65-1.225V15.375a7.247,7.247,0,0,0,4.225,1.4,3.972,3.972,0,0,0,2.513-.7,2.4,2.4,0,0,0,.887-2q0-2.575-3.325-2.575h-1.65V9.025h1.625a3.272,3.272,0,0,0,2.175-.637,2.248,2.248,0,0,0,.75-1.812q0-2.225-2.9-2.225A6.262,6.262,0,0,0,23.5,5.525v-2.5A7.312,7.312,0,0,1,27.8,1.8a5.978,5.978,0,0,1,3.938,1.213A3.992,3.992,0,0,1,33.2,6.25a4.085,4.085,0,0,1-.662,2.288A4.365,4.365,0,0,1,30.724,10.1a4.239,4.239,0,0,1,2.95,4.175,4.668,4.668,0,0,1-.762,2.663A4.983,4.983,0,0,1,30.774,18.7,7.8,7.8,0,0,1,27.524,19.325Zm19.925,0a3.809,3.809,0,0,1-3.338-1.9A3.9,3.9,0,0,1,45.5,12.087a3.787,3.787,0,0,1,1.95-.513,3.9,3.9,0,0,1,3.362,5.838,3.791,3.791,0,0,1-1.388,1.4A3.834,3.834,0,0,1,47.449,19.325ZM38.824,9.55a3.81,3.81,0,0,1-3.875-3.875A3.834,3.834,0,0,1,35.461,3.7a3.791,3.791,0,0,1,1.4-1.387A3.854,3.854,0,0,1,38.824,1.8a3.768,3.768,0,0,1,1.962.513,3.834,3.834,0,0,1,1.888,3.362,3.854,3.854,0,0,1-.513,1.963A3.786,3.786,0,0,1,38.824,9.55ZM35.5,19,48.024,2.125h2.75L38.249,19ZM38.824,7.575a1.724,1.724,0,0,0,1.287-.525,1.884,1.884,0,0,0,.513-1.375,1.9,1.9,0,0,0-.513-1.362,1.7,1.7,0,0,0-1.287-.537,1.755,1.755,0,0,0-1.312.525A1.884,1.884,0,0,0,37,5.675a1.87,1.87,0,0,0,.525,1.363A1.745,1.745,0,0,0,38.824,7.575Zm8.625,9.775a1.755,1.755,0,0,0,1.313-.525,2.084,2.084,0,0,0,0-2.738,1.872,1.872,0,0,0-2.6-.025,1.875,1.875,0,0,0-.513,1.387,1.9,1.9,0,0,0,.513,1.363A1.7,1.7,0,0,0,47.449,17.35Z" transform="translate(365.48 7283.549)"/>
    <path id="Caminho_1418" data-name="Caminho 1418" d="M14.774,19.325A7.923,7.923,0,0,1,10.3,18.1V15.425a6.607,6.607,0,0,0,1.963,1.038,6.806,6.806,0,0,0,2.163.363,3.751,3.751,0,0,0,2.55-.788,2.784,2.784,0,0,0,.9-2.213q0-2.95-4.075-2.95-.65,0-1.387.062t-1.538.188l1.175-9h8.325v2.6h-6l-.525,3.95a7.675,7.675,0,0,1,1.4-.125,5.938,5.938,0,0,1,4.175,1.4,4.9,4.9,0,0,1,1.525,3.8,5.57,5.57,0,0,1-.762,2.938,5.085,5.085,0,0,1-2.15,1.95A7.267,7.267,0,0,1,14.774,19.325Zm12.325,0A7.923,7.923,0,0,1,22.624,18.1V15.425a6.607,6.607,0,0,0,1.962,1.038,6.806,6.806,0,0,0,2.163.363,3.751,3.751,0,0,0,2.55-.788,2.784,2.784,0,0,0,.9-2.213q0-2.95-4.075-2.95-.65,0-1.387.062t-1.538.188l1.175-9H32.7v2.6h-6l-.525,3.95a7.675,7.675,0,0,1,1.4-.125,5.938,5.938,0,0,1,4.175,1.4,4.9,4.9,0,0,1,1.525,3.8,5.57,5.57,0,0,1-.763,2.938,5.085,5.085,0,0,1-2.15,1.95A7.267,7.267,0,0,1,27.1,19.325Zm20.35,0a3.809,3.809,0,0,1-3.338-1.9A3.9,3.9,0,0,1,45.5,12.087a3.787,3.787,0,0,1,1.95-.513,3.9,3.9,0,0,1,3.362,5.838,3.791,3.791,0,0,1-1.388,1.4A3.834,3.834,0,0,1,47.449,19.325ZM38.824,9.55a3.81,3.81,0,0,1-3.875-3.875A3.834,3.834,0,0,1,35.461,3.7a3.791,3.791,0,0,1,1.4-1.387A3.854,3.854,0,0,1,38.824,1.8a3.768,3.768,0,0,1,1.962.513,3.834,3.834,0,0,1,1.888,3.362,3.854,3.854,0,0,1-.513,1.963A3.786,3.786,0,0,1,38.824,9.55ZM35.5,19,48.024,2.125h2.75L38.249,19ZM38.824,7.575a1.724,1.724,0,0,0,1.287-.525,1.884,1.884,0,0,0,.513-1.375,1.9,1.9,0,0,0-.513-1.362,1.7,1.7,0,0,0-1.287-.537,1.755,1.755,0,0,0-1.312.525A1.884,1.884,0,0,0,37,5.675a1.87,1.87,0,0,0,.525,1.363A1.745,1.745,0,0,0,38.824,7.575Zm8.625,9.775a1.755,1.755,0,0,0,1.313-.525,2.084,2.084,0,0,0,0-2.738,1.872,1.872,0,0,0-2.6-.025,1.875,1.875,0,0,0-.513,1.387,1.9,1.9,0,0,0,.513,1.363A1.7,1.7,0,0,0,47.449,17.35Z" transform="translate(492.982 7090.021)"/>
    <path id="Caminho_1423" data-name="Caminho 1423" d="M15.924,19.325a8.723,8.723,0,0,1-4.65-1.225V15.375a7.247,7.247,0,0,0,4.225,1.4,3.972,3.972,0,0,0,2.513-.7,2.4,2.4,0,0,0,.887-2q0-2.575-3.325-2.575h-1.65V9.025h1.625a3.272,3.272,0,0,0,2.175-.637,2.248,2.248,0,0,0,.75-1.812q0-2.225-2.9-2.225A6.262,6.262,0,0,0,11.9,5.525v-2.5A7.312,7.312,0,0,1,16.2,1.8a5.978,5.978,0,0,1,3.938,1.213A3.992,3.992,0,0,1,21.6,6.25a4.085,4.085,0,0,1-.663,2.288A4.365,4.365,0,0,1,19.124,10.1a4.239,4.239,0,0,1,2.95,4.175,4.668,4.668,0,0,1-.762,2.663A4.983,4.983,0,0,1,19.174,18.7,7.8,7.8,0,0,1,15.924,19.325Zm8.6-.325q2.05-4.075,3.65-7.575t2.8-6.675h-7.85V2.125h10.9v2.3A137.1,137.1,0,0,1,27.824,19Zm22.925.325a3.809,3.809,0,0,1-3.338-1.9A3.9,3.9,0,0,1,45.5,12.087a3.787,3.787,0,0,1,1.95-.513,3.9,3.9,0,0,1,3.362,5.838,3.791,3.791,0,0,1-1.388,1.4A3.834,3.834,0,0,1,47.449,19.325ZM38.824,9.55a3.81,3.81,0,0,1-3.875-3.875A3.834,3.834,0,0,1,35.461,3.7a3.791,3.791,0,0,1,1.4-1.387A3.854,3.854,0,0,1,38.824,1.8a3.768,3.768,0,0,1,1.962.513,3.834,3.834,0,0,1,1.888,3.362,3.854,3.854,0,0,1-.513,1.963A3.786,3.786,0,0,1,38.824,9.55ZM35.5,19,48.024,2.125h2.75L38.249,19ZM38.824,7.575a1.724,1.724,0,0,0,1.287-.525,1.884,1.884,0,0,0,.513-1.375,1.9,1.9,0,0,0-.513-1.362,1.7,1.7,0,0,0-1.287-.537,1.755,1.755,0,0,0-1.312.525A1.884,1.884,0,0,0,37,5.675a1.87,1.87,0,0,0,.525,1.363A1.745,1.745,0,0,0,38.824,7.575Zm8.625,9.775a1.755,1.755,0,0,0,1.313-.525,2.084,2.084,0,0,0,0-2.738,1.872,1.872,0,0,0-2.6-.025,1.875,1.875,0,0,0-.513,1.387,1.9,1.9,0,0,0,.513,1.363A1.7,1.7,0,0,0,47.449,17.35Z" transform="translate(594.98 7187.569)"/>
    <path id="Caminho_1428" data-name="Caminho 1428" d="M11.349,19V16.775Q13.574,14.525,15,13a32.716,32.716,0,0,0,2.213-2.575A7.913,7.913,0,0,0,18.3,8.587a4.3,4.3,0,0,0,.3-1.538,2.463,2.463,0,0,0-.775-1.925,3.054,3.054,0,0,0-2.125-.7,6.172,6.172,0,0,0-3.75,1.3v-2.6A7.066,7.066,0,0,1,16.3,1.8a6.3,6.3,0,0,1,2.85.613,4.685,4.685,0,0,1,1.912,1.7,4.694,4.694,0,0,1,.688,2.563,6.681,6.681,0,0,1-.3,1.975,8.652,8.652,0,0,1-1.013,2.088,20.96,20.96,0,0,1-1.925,2.488Q17.3,14.6,15.474,16.4H22.1V19Zm13.175,0q2.05-4.075,3.65-7.575t2.8-6.675h-7.85V2.125h10.9v2.3A137.1,137.1,0,0,1,27.824,19Zm22.925.325a3.809,3.809,0,0,1-3.338-1.9A3.9,3.9,0,0,1,45.5,12.087a3.787,3.787,0,0,1,1.95-.513,3.9,3.9,0,0,1,3.362,5.838,3.791,3.791,0,0,1-1.388,1.4A3.834,3.834,0,0,1,47.449,19.325ZM38.824,9.55a3.81,3.81,0,0,1-3.875-3.875A3.834,3.834,0,0,1,35.461,3.7a3.791,3.791,0,0,1,1.4-1.387A3.854,3.854,0,0,1,38.824,1.8a3.768,3.768,0,0,1,1.962.513,3.834,3.834,0,0,1,1.888,3.362,3.854,3.854,0,0,1-.513,1.963A3.786,3.786,0,0,1,38.824,9.55ZM35.5,19,48.024,2.125h2.75L38.249,19ZM38.824,7.575a1.724,1.724,0,0,0,1.287-.525,1.884,1.884,0,0,0,.513-1.375,1.9,1.9,0,0,0-.513-1.362,1.7,1.7,0,0,0-1.287-.537,1.755,1.755,0,0,0-1.312.525A1.884,1.884,0,0,0,37,5.675a1.87,1.87,0,0,0,.525,1.363A1.745,1.745,0,0,0,38.824,7.575Zm8.625,9.775a1.755,1.755,0,0,0,1.313-.525,2.084,2.084,0,0,0,0-2.738,1.872,1.872,0,0,0-2.6-.025,1.875,1.875,0,0,0-.512,1.387,1.9,1.9,0,0,0,.512,1.363A1.7,1.7,0,0,0,47.449,17.35Z" transform="translate(755.984 7235)"/>
    <path id="Caminho_1432" data-name="Caminho 1432" d="M17.024,19V5.2a24.375,24.375,0,0,0-4.175,2.45V4.8q1.1-.8,2.25-1.488a19.127,19.127,0,0,1,2.325-1.187h2.7V19ZM22.7,19V16.775q2.225-2.25,3.65-3.775a32.716,32.716,0,0,0,2.213-2.575,7.913,7.913,0,0,0,1.087-1.837,4.3,4.3,0,0,0,.3-1.538,2.463,2.463,0,0,0-.775-1.925,3.054,3.054,0,0,0-2.125-.7,6.172,6.172,0,0,0-3.75,1.3v-2.6A7.066,7.066,0,0,1,27.649,1.8a6.3,6.3,0,0,1,2.85.613,4.685,4.685,0,0,1,1.912,1.7A4.694,4.694,0,0,1,33.1,6.675a6.681,6.681,0,0,1-.3,1.975,8.652,8.652,0,0,1-1.013,2.088,20.96,20.96,0,0,1-1.925,2.488Q28.649,14.6,26.824,16.4h6.625V19Zm24.75.325a3.809,3.809,0,0,1-3.338-1.9A3.9,3.9,0,0,1,45.5,12.087a3.787,3.787,0,0,1,1.95-.513,3.9,3.9,0,0,1,3.362,5.838,3.791,3.791,0,0,1-1.388,1.4A3.834,3.834,0,0,1,47.449,19.325ZM38.824,9.55a3.81,3.81,0,0,1-3.875-3.875A3.834,3.834,0,0,1,35.461,3.7a3.791,3.791,0,0,1,1.4-1.387A3.854,3.854,0,0,1,38.824,1.8a3.768,3.768,0,0,1,1.962.513,3.834,3.834,0,0,1,1.888,3.362,3.854,3.854,0,0,1-.513,1.963A3.786,3.786,0,0,1,38.824,9.55ZM35.5,19,48.024,2.125h2.75L38.249,19ZM38.824,7.575a1.724,1.724,0,0,0,1.287-.525,1.884,1.884,0,0,0,.513-1.375,1.9,1.9,0,0,0-.513-1.362,1.7,1.7,0,0,0-1.287-.537,1.755,1.755,0,0,0-1.312.525A1.884,1.884,0,0,0,37,5.675a1.87,1.87,0,0,0,.525,1.363A1.745,1.745,0,0,0,38.824,7.575Zm8.625,9.775a1.755,1.755,0,0,0,1.313-.525,2.084,2.084,0,0,0,0-2.738,1.872,1.872,0,0,0-2.6-.025,1.875,1.875,0,0,0-.513,1.387,1.9,1.9,0,0,0,.513,1.363A1.7,1.7,0,0,0,47.449,17.35Z" transform="translate(853.98 7309.549)"/>
    <path id="Caminho_1434" data-name="Caminho 1434" d="M15.824,19V15.5H8.2V12.975q1.55-2.75,3.413-5.438t3.913-5.412h3.225v10.85H20.6V15.5h-1.85V19Zm0-6.025v-7.6q-1.4,1.9-2.637,3.8t-2.387,3.8Zm12.15,6.35a5.287,5.287,0,0,1-4.463-2,9.377,9.377,0,0,1-1.538-5.8q0-4.65,1.888-7.188A6.287,6.287,0,0,1,29.224,1.8a5.581,5.581,0,0,1,3.25.825v2.6a5.2,5.2,0,0,0-3.075-.9,3.9,3.9,0,0,0-3.3,1.512A7.325,7.325,0,0,0,24.9,10.2a3.657,3.657,0,0,1,1.513-1.35,4.937,4.937,0,0,1,2.212-.475,4.776,4.776,0,0,1,3.637,1.438,5.314,5.314,0,0,1,1.363,3.813,6.07,6.07,0,0,1-.713,2.987,5.066,5.066,0,0,1-1.975,2A5.928,5.928,0,0,1,27.974,19.325Zm0-2.375a2.5,2.5,0,0,0,1.987-.888,3.386,3.386,0,0,0,.763-2.288,3.35,3.35,0,0,0-.737-2.275A2.5,2.5,0,0,0,28,10.65a2.566,2.566,0,0,0-2,.862,3.22,3.22,0,0,0-.775,2.238,3.413,3.413,0,0,0,.762,2.325A2.511,2.511,0,0,0,27.974,16.95Zm19.475,2.375a3.809,3.809,0,0,1-3.338-1.9A3.9,3.9,0,0,1,45.5,12.087a3.787,3.787,0,0,1,1.95-.513,3.9,3.9,0,0,1,3.362,5.838,3.791,3.791,0,0,1-1.388,1.4A3.834,3.834,0,0,1,47.449,19.325ZM38.824,9.55a3.81,3.81,0,0,1-3.875-3.875A3.834,3.834,0,0,1,35.461,3.7a3.791,3.791,0,0,1,1.4-1.387A3.854,3.854,0,0,1,38.824,1.8a3.768,3.768,0,0,1,1.962.513,3.834,3.834,0,0,1,1.888,3.362,3.854,3.854,0,0,1-.513,1.963A3.786,3.786,0,0,1,38.824,9.55ZM35.5,19,48.024,2.125h2.75L38.249,19ZM38.824,7.575a1.724,1.724,0,0,0,1.287-.525,1.884,1.884,0,0,0,.513-1.375,1.9,1.9,0,0,0-.513-1.362,1.7,1.7,0,0,0-1.287-.537,1.755,1.755,0,0,0-1.312.525A1.884,1.884,0,0,0,37,5.675a1.87,1.87,0,0,0,.525,1.363A1.745,1.745,0,0,0,38.824,7.575Zm8.625,9.775a1.755,1.755,0,0,0,1.313-.525,2.084,2.084,0,0,0,0-2.738,1.872,1.872,0,0,0-2.6-.025,1.875,1.875,0,0,0-.513,1.387,1.9,1.9,0,0,0,.513,1.363A1.7,1.7,0,0,0,47.449,17.35Z" transform="translate(984.695 7142.021)"/>
    <path id="Caminho_1437" data-name="Caminho 1437" d="M9.574,19V16.775Q11.8,14.525,13.224,13a32.716,32.716,0,0,0,2.213-2.575,7.913,7.913,0,0,0,1.088-1.837,4.3,4.3,0,0,0,.3-1.538,2.463,2.463,0,0,0-.775-1.925,3.054,3.054,0,0,0-2.125-.7,6.172,6.172,0,0,0-3.75,1.3v-2.6A7.066,7.066,0,0,1,14.524,1.8a6.3,6.3,0,0,1,2.85.613,4.685,4.685,0,0,1,1.912,1.7,4.694,4.694,0,0,1,.688,2.563,6.681,6.681,0,0,1-.3,1.975,8.652,8.652,0,0,1-1.013,2.088,20.96,20.96,0,0,1-1.925,2.488Q15.524,14.6,13.7,16.4h6.625V19Zm18.4.325a5.287,5.287,0,0,1-4.462-2,9.377,9.377,0,0,1-1.538-5.8q0-4.65,1.888-7.188A6.287,6.287,0,0,1,29.224,1.8a5.581,5.581,0,0,1,3.25.825v2.6a5.2,5.2,0,0,0-3.075-.9,3.9,3.9,0,0,0-3.3,1.512A7.325,7.325,0,0,0,24.9,10.2a3.657,3.657,0,0,1,1.512-1.35,4.937,4.937,0,0,1,2.213-.475,4.776,4.776,0,0,1,3.638,1.438,5.314,5.314,0,0,1,1.362,3.813,6.07,6.07,0,0,1-.713,2.987,5.066,5.066,0,0,1-1.975,2A5.928,5.928,0,0,1,27.974,19.325Zm0-2.375a2.5,2.5,0,0,0,1.988-.888,3.386,3.386,0,0,0,.763-2.288,3.35,3.35,0,0,0-.738-2.275A2.5,2.5,0,0,0,28,10.65a2.566,2.566,0,0,0-2,.862,3.22,3.22,0,0,0-.775,2.238,3.413,3.413,0,0,0,.763,2.325A2.511,2.511,0,0,0,27.974,16.95Zm19.475,2.375a3.809,3.809,0,0,1-3.338-1.9A3.9,3.9,0,0,1,45.5,12.087a3.787,3.787,0,0,1,1.95-.513,3.9,3.9,0,0,1,3.362,5.838,3.791,3.791,0,0,1-1.388,1.4A3.834,3.834,0,0,1,47.449,19.325ZM38.824,9.55a3.81,3.81,0,0,1-3.875-3.875A3.834,3.834,0,0,1,35.461,3.7a3.791,3.791,0,0,1,1.4-1.387A3.854,3.854,0,0,1,38.824,1.8a3.768,3.768,0,0,1,1.962.513,3.834,3.834,0,0,1,1.888,3.362,3.854,3.854,0,0,1-.513,1.963A3.786,3.786,0,0,1,38.824,9.55ZM35.5,19,48.024,2.125h2.75L38.249,19ZM38.824,7.575a1.724,1.724,0,0,0,1.287-.525,1.884,1.884,0,0,0,.513-1.375,1.9,1.9,0,0,0-.513-1.362,1.7,1.7,0,0,0-1.287-.537,1.755,1.755,0,0,0-1.312.525A1.884,1.884,0,0,0,37,5.675a1.87,1.87,0,0,0,.525,1.363A1.745,1.745,0,0,0,38.824,7.575Zm8.625,9.775a1.755,1.755,0,0,0,1.313-.525,2.084,2.084,0,0,0,0-2.738,1.872,1.872,0,0,0-2.6-.025,1.875,1.875,0,0,0-.512,1.387,1.9,1.9,0,0,0,.512,1.363A1.7,1.7,0,0,0,47.449,17.35Z" transform="translate(1085.691 7237.274)"/>
  </g>
</svg>
